G04 start of page 2 for group 0 idx 0 *
G04 Title: (unknown), component *
G04 Creator: pcb 20100929 *
G04 CreationDate: Wed Oct  5 20:03:28 2011 UTC *
G04 For: user1 *
G04 Format: Gerber/RS-274X *
G04 PCB-Dimensions: 103000 143000 *
G04 PCB-Coordinate-Origin: lower left *
%MOIN*%
%FSLAX25Y25*%
%LNFRONT*%
%ADD11C,0.0150*%
%ADD12C,0.0200*%
%ADD13C,0.0250*%
%ADD14C,0.0400*%
%ADD15C,0.0100*%
%ADD16C,0.0600*%
%ADD17R,0.0512X0.0512*%
%ADD18R,0.0200X0.0200*%
%ADD19R,0.0315X0.0315*%
%ADD20R,0.0315X0.0315*%
%ADD21R,0.0394X0.0394*%
%ADD22C,0.0380*%
G54D11*X48500Y94250D02*X52000Y90750D01*
X60500D02*X62500Y92750D01*
X52000Y90750D02*X60500D01*
X62500Y92750D02*Y95500D01*
G54D12*X62146Y86000D02*X68500Y92354D01*
X70405Y90449D02*X68500Y92354D01*
X70405Y70500D02*Y90449D01*
X69595Y59500D02*X71000Y58095D01*
X70405Y70500D02*X71000Y69905D01*
X61500Y67000D02*X64500Y64000D01*
G54D11*X63500Y96500D02*X85500D01*
X62500Y95500D02*X63500Y96500D01*
G54D12*X51000Y86000D02*X62146D01*
X48500Y83500D02*X51000Y86000D01*
X48500Y78000D02*Y83500D01*
X53500Y78000D02*Y67000D01*
X64500Y64000D02*X75500D01*
X48500Y92000D02*Y102000D01*
X53500Y98500D02*Y107994D01*
G54D13*X57507Y112001D02*X60663D01*
G54D12*X53500Y107994D02*X57507Y112001D01*
G54D13*X60663D02*X68500Y104164D01*
G54D11*Y104250D01*
G54D14*X20500Y127250D02*X87000D01*
Y96500D02*Y127250D01*
G54D15*X500Y142500D02*X102500D01*
G54D12*X35000Y59500D02*X39500Y64000D01*
X28000Y62000D02*X30500Y59500D01*
X35000D01*
X25000Y53905D02*X32405Y46500D01*
X31905Y46000D02*X32405Y46500D01*
X26500Y36000D02*Y20000D01*
X27500Y19000D01*
X42500D01*
X25000Y83500D02*Y53905D01*
X33405Y67000D02*X32405Y68000D01*
X31500Y78500D02*X28000Y75000D01*
Y62000D01*
G54D14*X20595Y88000D02*X20690Y26905D01*
G54D15*X500Y500D02*Y142500D01*
G54D12*X48500Y102000D02*X45000Y105500D01*
X43500Y98500D02*Y95595D01*
X39000Y88000D02*X43500Y92500D01*
Y98500D01*
X48500Y92000D02*X35000Y78500D01*
X31500D01*
X37500Y112500D02*Y105500D01*
G54D14*X20500Y127250D02*Y88095D01*
G54D12*X45000Y105500D02*X20500D01*
X43530Y114166D02*X39166D01*
X37500Y112500D01*
G54D14*X20500Y88095D02*X20595Y88000D01*
G54D12*X29500D02*X25000Y83500D01*
X29500Y88000D02*X39000D01*
X53500Y56750D02*Y52500D01*
X61500Y67000D02*X33405D01*
X40000Y46500D02*X32405D01*
X39500Y64000D02*X46500D01*
G54D15*X102500Y142500D02*Y500D01*
X500D01*
G54D12*X56500Y6500D02*Y28500D01*
X80000Y59500D02*Y32000D01*
X87000Y17000D02*X76500Y6500D01*
X75500Y64000D02*X80000Y59500D01*
X76500Y28500D02*X80000Y32000D01*
X69457Y48500D02*X71000Y50043D01*
Y42957D02*Y34405D01*
X70905Y22500D02*X71000Y22595D01*
X87000Y97000D02*Y17000D01*
X53500Y52500D02*X57000Y49000D01*
X69957D01*
X71000Y50043D02*Y58095D01*
X69957Y49000D02*X71000Y50043D01*
X46500Y64000D02*X48500Y62000D01*
Y56750D01*
X43500D02*Y50000D01*
X40000Y46500D01*
X48500Y36250D02*Y41500D01*
X42500Y19000D02*X46500Y15000D01*
X53500Y36250D02*Y28500D01*
X46500Y15000D02*Y6500D01*
X66500D02*Y18095D01*
X34405Y28500D02*X32405Y26500D01*
Y41905D02*X26500Y36000D01*
X32405Y49155D02*Y41905D01*
X48500Y41500D02*X50500Y43500D01*
X70457D01*
X71000Y42957D01*
X76500Y28500D02*X34405D01*
X66500Y18095D02*X71000Y22595D01*
G54D14*X34000Y14000D02*X36500Y11500D01*
X25000Y14000D02*X34000D01*
X20595Y18405D02*X25000Y14000D01*
X20595Y26500D02*Y18405D01*
X36500Y11500D02*Y6500D01*
G54D16*X6500Y86500D03*
Y76500D03*
Y66500D03*
Y56500D03*
Y46500D03*
Y36500D03*
Y26500D03*
Y16500D03*
G54D12*G36*
X23500Y9500D02*Y3500D01*
X29500D01*
Y9500D01*
X23500D01*
G37*
G54D16*X36500Y6500D03*
X46500D03*
X56500D03*
X66500D03*
X76500D03*
X96500Y96500D03*
Y86500D03*
Y76500D03*
Y66500D03*
G54D12*G36*
X93500Y129500D02*Y123500D01*
X99500D01*
Y129500D01*
X93500D01*
G37*
G54D16*X96500Y116500D03*
Y106500D03*
Y56500D03*
Y46500D03*
Y36500D03*
Y26500D03*
Y16500D03*
G54D12*G36*
X3500Y129500D02*Y123500D01*
X9500D01*
Y129500D01*
X3500D01*
G37*
G54D16*X6500Y116500D03*
Y106500D03*
Y96500D03*
G54D12*G36*
X13500Y139500D02*Y133500D01*
X19500D01*
Y139500D01*
X13500D01*
G37*
G54D16*X26500Y136500D03*
X36500D03*
X46500D03*
X56500D03*
X66500D03*
X76500D03*
X86500D03*
G54D17*X69819Y69905D02*X72181D01*
X69819Y58095D02*X72181D01*
X70607Y50043D02*X71393D01*
X70607Y42957D02*X71393D01*
X69819Y34405D02*X72181D01*
X69819Y22595D02*X72181D01*
G54D18*X58500Y60000D02*Y53500D01*
X53500Y60000D02*Y53500D01*
X48500Y60000D02*Y53500D01*
X43500Y60000D02*Y53500D01*
Y39500D02*Y33000D01*
X48500Y39500D02*Y33000D01*
X53500Y39500D02*Y33000D01*
X58500Y39500D02*Y33000D01*
G54D17*X20595Y70755D02*Y65245D01*
Y29255D02*Y23745D01*
Y49255D02*Y43745D01*
X32405Y70755D02*Y65245D01*
Y29255D02*Y23745D01*
Y49255D02*Y43745D01*
G54D18*X43500Y81250D02*Y74750D01*
X48500Y81250D02*Y74750D01*
X53500Y81250D02*Y74750D01*
G54D17*X20595Y90755D02*Y85245D01*
X32405Y90755D02*Y85245D01*
G54D18*X58500Y101750D02*Y95250D01*
X53500Y101750D02*Y95250D01*
X48500Y101750D02*Y95250D01*
X43500Y101750D02*Y95250D01*
X58500Y81250D02*Y74750D01*
G54D17*X67319Y104164D02*X69681D01*
X67319Y92354D02*X69681D01*
G54D19*X42940Y114166D02*X44121D01*
G54D20*X42941Y109835D02*X44121D01*
G54D21*X57310Y112001D02*X57704D01*
G54D22*M02*
