G04 start of page 7 for group -4079 idx -4079 *
G04 Title: (unknown), topsilk *
G04 Creator: pcb 20100929 *
G04 CreationDate: Wed Oct  5 20:03:28 2011 UTC *
G04 For: user1 *
G04 Format: Gerber/RS-274X *
G04 PCB-Dimensions: 103000 143000 *
G04 PCB-Coordinate-Origin: lower left *
%MOIN*%
%FSLAX25Y25*%
%LNFRONTSILK*%
%ADD15C,0.0100*%
%ADD29C,0.0130*%
%ADD30C,0.0110*%
G54D15*X500Y142500D02*X102500D01*
Y500D01*
X500D01*
Y142500D01*
X86000Y100000D02*X90000D01*
Y100500D02*Y98500D01*
X89500Y98000D01*
X88500D02*X89500D01*
X88000Y98500D02*X88500Y98000D01*
X88000Y100000D02*Y98500D01*
X86000Y96799D02*X90000D01*
X87500D02*X88000Y96299D01*
Y95299D01*
X87500Y94799D01*
X86000D02*X87500D01*
X86500Y93598D02*X87500D01*
X88000Y93098D01*
Y92098D01*
X87500Y91598D01*
X86500D02*X87500D01*
X86000Y92098D02*X86500Y91598D01*
X86000Y93098D02*Y92098D01*
X86500Y93598D02*X86000Y93098D01*
X86500Y89897D02*X90000D01*
X86500D02*X86000Y89397D01*
X88500Y90397D02*Y89397D01*
X86500Y88396D02*X87500D01*
X88000Y87896D01*
Y86896D01*
X87500Y86396D01*
X86500D02*X87500D01*
X86000Y86896D02*X86500Y86396D01*
X86000Y87896D02*Y86896D01*
X86500Y88396D02*X86000Y87896D01*
Y84695D02*X87500D01*
X88000Y84195D01*
Y83695D01*
X87500Y83195D01*
X86000D02*X87500D01*
X88000Y82695D01*
Y82195D01*
X87500Y81695D01*
X86000D02*X87500D01*
X88000Y85195D02*X87500Y84695D01*
X86000Y79994D02*Y78494D01*
X86500Y80494D02*X86000Y79994D01*
X86500Y80494D02*X87500D01*
X88000Y79994D01*
Y78994D01*
X87500Y78494D01*
X87000Y80494D02*Y78494D01*
X87500D01*
X86500Y76793D02*X90000D01*
X86500D02*X86000Y76293D01*
X88500Y77293D02*Y76293D01*
X86000Y74792D02*Y73292D01*
X86500Y75292D02*X86000Y74792D01*
X86500Y75292D02*X87500D01*
X88000Y74792D01*
Y73792D01*
X87500Y73292D01*
X87000Y75292D02*Y73292D01*
X87500D01*
X86000Y71591D02*X87500D01*
X88000Y71091D01*
Y70091D01*
Y72091D02*X87500Y71591D01*
X88000Y67090D02*Y65590D01*
X86000Y67090D02*Y65090D01*
Y67090D02*X90000D01*
Y65090D01*
X88000Y62389D02*X87500Y61889D01*
X88000Y63389D02*Y62389D01*
X87500Y63889D02*X88000Y63389D01*
X86500Y63889D02*X87500D01*
X86500D02*X86000Y63389D01*
X86500Y61889D02*X88000D01*
X86500D02*X86000Y61389D01*
Y63389D02*Y62389D01*
X86500Y61889D01*
Y59688D02*X90000D01*
X86500D02*X86000Y59188D01*
X88500Y60188D02*Y59188D01*
X86500Y58187D02*X87500D01*
X88000Y57687D01*
Y56687D01*
X87500Y56187D01*
X86500D02*X87500D01*
X86000Y56687D02*X86500Y56187D01*
X86000Y57687D02*Y56687D01*
X86500Y58187D02*X86000Y57687D01*
Y54486D02*X87500D01*
X88000Y53986D01*
Y53486D01*
X87500Y52986D01*
X86000D02*X87500D01*
X88000Y54986D02*X87500Y54486D01*
X86000Y49485D02*X90000D01*
Y49985D02*Y47985D01*
X89500Y47485D01*
X88500D02*X89500D01*
X88000Y47985D02*X88500Y47485D01*
X88000Y49485D02*Y47985D01*
X86000Y45784D02*Y44284D01*
X86500Y46284D02*X86000Y45784D01*
X86500Y46284D02*X87500D01*
X88000Y45784D01*
Y44784D01*
X87500Y44284D01*
X87000Y46284D02*Y44284D01*
X87500D01*
X88000Y41583D02*X87500Y41083D01*
X88000Y42583D02*Y41583D01*
X87500Y43083D02*X88000Y42583D01*
X86500Y43083D02*X87500D01*
X86500D02*X86000Y42583D01*
X86500Y41083D02*X88000D01*
X86500D02*X86000Y40583D01*
Y42583D02*Y41583D01*
X86500Y41083D01*
X86000Y39382D02*X90000D01*
X86500D02*X86000Y38882D01*
Y37882D01*
X86500Y37382D01*
X87500D01*
X88000Y37882D02*X87500Y37382D01*
X88000Y38882D02*Y37882D01*
X87500Y39382D02*X88000Y38882D01*
X86500Y36181D02*X87500D01*
X88000Y35681D01*
Y34681D01*
X87500Y34181D01*
X86500D02*X87500D01*
X86000Y34681D02*X86500Y34181D01*
X86000Y35681D02*Y34681D01*
X86500Y36181D02*X86000Y35681D01*
Y30980D02*X90000D01*
X86000Y31480D02*X86500Y30980D01*
X86000Y32480D02*Y31480D01*
X86500Y32980D02*X86000Y32480D01*
X86500Y32980D02*X87500D01*
X88000Y32480D01*
Y31480D01*
X87500Y30980D01*
X86500Y29779D02*X88000D01*
X86500D02*X86000Y29279D01*
X85000Y27779D02*X88000D01*
X84500Y28279D02*X85000Y27779D01*
X84500Y29279D02*Y28279D01*
X85000Y29779D02*X84500Y29279D01*
X86000D02*Y28279D01*
X86500Y27779D01*
X86000Y24778D02*X90000D01*
X86000D02*Y22778D01*
X88000Y20077D02*X87500Y19577D01*
X88000Y21077D02*Y20077D01*
X87500Y21577D02*X88000Y21077D01*
X86500Y21577D02*X87500D01*
X86500D02*X86000Y21077D01*
X86500Y19577D02*X88000D01*
X86500D02*X86000Y19077D01*
Y21077D02*Y20077D01*
X86500Y19577D01*
X86000Y17876D02*X90000D01*
X86500D02*X86000Y17376D01*
Y16376D01*
X86500Y15876D01*
X87500D01*
X88000Y16376D02*X87500Y15876D01*
X88000Y17376D02*Y16376D01*
X87500Y17876D02*X88000Y17376D01*
X16500Y91000D02*X17000Y90500D01*
Y89000D01*
X16500Y88500D01*
X15500D02*X16500D01*
X13000Y91000D02*X15500Y88500D01*
X13000Y91000D02*Y88500D01*
X13500Y87299D02*X13000Y86799D01*
X13500Y87299D02*X16500D01*
X17000Y86799D01*
Y85799D01*
X16500Y85299D01*
X13500D02*X16500D01*
X13000Y85799D02*X13500Y85299D01*
X13000Y86799D02*Y85799D01*
X14000Y87299D02*X16000Y85299D01*
X13000Y83598D02*Y82598D01*
Y83098D02*X17000D01*
X16000Y84098D02*X17000Y83098D01*
X13000Y80897D02*Y79897D01*
Y80397D02*X17000D01*
X16000Y81397D02*X17000Y80397D01*
X13000Y78696D02*Y78196D01*
Y76495D02*Y75495D01*
Y75995D02*X17000D01*
X16000Y76995D02*X17000Y75995D01*
X13500Y74294D02*X13000Y73794D01*
X13500Y74294D02*X16500D01*
X17000Y73794D01*
Y72794D01*
X16500Y72294D01*
X13500D02*X16500D01*
X13000Y72794D02*X13500Y72294D01*
X13000Y73794D02*Y72794D01*
X14000Y74294D02*X16000Y72294D01*
X13000Y71093D02*Y70593D01*
X13500Y69392D02*X13000Y68892D01*
X13500Y69392D02*X16500D01*
X17000Y68892D01*
Y67892D01*
X16500Y67392D01*
X13500D02*X16500D01*
X13000Y67892D02*X13500Y67392D01*
X13000Y68892D02*Y67892D01*
X14000Y69392D02*X16000Y67392D01*
X17000Y66191D02*Y64191D01*
X15000Y66191D02*X17000D01*
X15000D02*X15500Y65691D01*
Y64691D01*
X15000Y64191D01*
X13500D02*X15000D01*
X13000Y64691D02*X13500Y64191D01*
X13000Y65691D02*Y64691D01*
X13500Y66191D02*X13000Y65691D01*
X15000Y61190D02*Y59190D01*
Y56189D02*Y54689D01*
X13000Y56189D02*Y54189D01*
Y56189D02*X17000D01*
Y54189D01*
X14000Y52988D02*X15000D01*
X14000D02*X13000Y51988D01*
X14000Y50988D01*
X15000D01*
Y48287D02*X14500Y47787D01*
X15000Y49287D02*Y48287D01*
X14500Y49787D02*X15000Y49287D01*
X13500Y49787D02*X14500D01*
X13500D02*X13000Y49287D01*
X13500Y47787D02*X15000D01*
X13500D02*X13000Y47287D01*
Y49287D02*Y48287D01*
X13500Y47787D01*
X13000Y45586D02*X14500D01*
X15000Y45086D01*
Y44586D01*
X14500Y44086D01*
X13000D02*X14500D01*
X15000Y46086D02*X14500Y45586D01*
X13000Y41085D02*X17000D01*
Y39085D01*
X15000Y41085D02*Y39585D01*
X13500Y37884D02*X14500D01*
X15000Y37384D01*
Y36384D01*
X14500Y35884D01*
X13500D02*X14500D01*
X13000Y36384D02*X13500Y35884D01*
X13000Y37384D02*Y36384D01*
X13500Y37884D02*X13000Y37384D01*
Y34183D02*Y32683D01*
X13500Y32183D01*
X14000Y32683D02*X13500Y32183D01*
X14000Y34183D02*Y32683D01*
X14500Y34683D02*X14000Y34183D01*
X14500Y34683D02*X15000Y34183D01*
Y32683D01*
X14500Y32183D01*
X13500Y34683D02*X13000Y34183D01*
Y30482D02*Y28982D01*
X13500Y28482D01*
X14000Y28982D02*X13500Y28482D01*
X14000Y30482D02*Y28982D01*
X14500Y30982D02*X14000Y30482D01*
X14500Y30982D02*X15000Y30482D01*
Y28982D01*
X14500Y28482D01*
X13500Y30982D02*X13000Y30482D01*
X41500Y103750D02*X60500D01*
X41500D02*Y72750D01*
X60500D01*
Y103750D02*Y90750D01*
Y85750D02*Y72750D01*
Y90750D02*G75*G03X60500Y85750I0J-2500D01*G01*
G54D29*X72240Y100621D02*Y95897D01*
X64760Y100621D02*Y95897D01*
G54D30*X60066Y116134D02*Y107866D01*
X40972D02*X60066D01*
X40972Y116134D02*Y107866D01*
Y116134D02*X60066D01*
G54D15*X11500Y131500D02*X91500D01*
Y141500D02*Y131500D01*
X11500Y141500D02*X91500D01*
X11500D02*Y131500D01*
X21500Y141500D02*Y131500D01*
X11500Y141500D02*X21500D01*
G54D29*X74740Y66362D02*Y61638D01*
X67260Y66362D02*Y61638D01*
X73755Y46893D02*Y46107D01*
X68245Y46893D02*Y46107D01*
X74740Y30862D02*Y26138D01*
X67260Y30862D02*Y26138D01*
G54D15*X41500Y62000D02*X60500D01*
X41500D02*Y31000D01*
X60500D01*
Y62000D02*Y49000D01*
Y44000D02*Y31000D01*
Y49000D02*G75*G03X60500Y44000I0J-2500D01*G01*
X91500Y131500D02*Y11500D01*
X101500D01*
Y131500D01*
X91500D01*
Y121500D02*X101500D01*
Y131500D01*
G54D29*X24532Y73314D02*X28468D01*
X24532Y62686D02*X28468D01*
G54D15*X1500Y131500D02*Y11500D01*
X11500D01*
Y131500D01*
X1500D01*
Y121500D02*X11500D01*
Y131500D01*
G54D29*X24532Y31814D02*X28468D01*
X24532Y21186D02*X28468D01*
G54D15*X21500Y1500D02*X81500D01*
Y11500D02*Y1500D01*
X21500Y11500D02*X81500D01*
X21500D02*Y1500D01*
X31500Y11500D02*Y1500D01*
X21500Y11500D02*X31500D01*
G54D29*X24532Y93314D02*X28468D01*
X24532Y82686D02*X28468D01*
X24532Y51814D02*X28468D01*
X24532Y41186D02*X28468D01*
G54D15*X63000Y83750D02*X66500D01*
X63000D02*X62500Y83250D01*
Y82250D01*
X63000Y81750D01*
X66500D01*
X62500Y80049D02*Y79049D01*
Y79549D02*X66500D01*
X65500Y80549D02*X66500Y79549D01*
X78150Y95909D02*Y93909D01*
X77650Y93409D01*
X76650D02*X77650D01*
X76150Y93909D02*X76650Y93409D01*
X76150Y95409D02*Y93909D01*
X74150Y95409D02*X78150D01*
X76150D02*X74150Y93409D01*
Y91708D02*Y90708D01*
Y91208D02*X78150D01*
X77150Y92208D02*X78150Y91208D01*
X49031Y121827D02*Y117827D01*
X50531Y121827D02*X51031Y121327D01*
Y118327D01*
X50531Y117827D02*X51031Y118327D01*
X48531Y117827D02*X50531D01*
X48531Y121827D02*X50531D01*
X52732Y117827D02*X53732D01*
X53232Y121827D02*Y117827D01*
X52232Y120827D02*X53232Y121827D01*
X85500Y129000D02*Y127500D01*
X86000Y129500D02*X85500Y129000D01*
X86000Y129500D02*X89000D01*
X89500Y129000D01*
Y127500D01*
X86000Y126299D02*X89000D01*
X89500Y125799D01*
Y124799D01*
X89000Y124299D01*
X86000D02*X89000D01*
X85500Y124799D02*X86000Y124299D01*
X85500Y125799D02*Y124799D01*
X86000Y126299D02*X85500Y125799D01*
Y123098D02*X89500D01*
X89000D02*X89500D01*
X89000D02*X86500Y120598D01*
X85500D02*X89500D01*
X85500Y119397D02*X89500D01*
X89000D02*X89500D01*
X89000D02*X86500Y116897D01*
X85500D02*X89500D01*
X89000Y115696D02*X89500Y115196D01*
Y114196D01*
X89000Y113696D01*
X86000D02*X89000D01*
X85500Y114196D02*X86000Y113696D01*
X85500Y115196D02*Y114196D01*
X86000Y115696D02*X85500Y115196D01*
X87500D02*Y113696D01*
X80150Y67693D02*Y65693D01*
X79650Y65193D01*
X78650D02*X79650D01*
X78150Y65693D02*X78650Y65193D01*
X78150Y67193D02*Y65693D01*
X76150Y67193D02*X80150D01*
X78150D02*X76150Y65193D01*
X79650Y63992D02*X80150Y63492D01*
Y61992D01*
X79650Y61492D01*
X78650D02*X79650D01*
X76150Y63992D02*X78650Y61492D01*
X76150Y63992D02*Y61492D01*
X79150Y49607D02*Y47607D01*
X78650Y47107D01*
X77650D02*X78650D01*
X77150Y47607D02*X77650Y47107D01*
X77150Y49107D02*Y47607D01*
X75150Y49107D02*X79150D01*
X77150D02*X75150Y47107D01*
X78650Y45906D02*X79150Y45406D01*
Y44406D01*
X78650Y43906D01*
X75650D02*X78650D01*
X75150Y44406D02*X75650Y43906D01*
X75150Y45406D02*Y44406D01*
X75650Y45906D02*X75150Y45406D01*
X77150D02*Y43906D01*
X80150Y31607D02*Y29607D01*
X79650Y29107D01*
X78650D02*X79650D01*
X78150Y29607D02*X78650Y29107D01*
X78150Y31107D02*Y29607D01*
X76150Y31107D02*X80150D01*
X78150D02*X76150Y29107D01*
X78150Y27906D02*X80150Y25906D01*
X78150Y27906D02*Y25406D01*
X76150Y25906D02*X80150D01*
X62500Y49500D02*X66000D01*
X62500D02*X62000Y49000D01*
Y48000D01*
X62500Y47500D01*
X66000D01*
X65500Y46299D02*X66000Y45799D01*
Y44299D01*
X65500Y43799D01*
X64500D02*X65500D01*
X62000Y46299D02*X64500Y43799D01*
X62000Y46299D02*Y43799D01*
X24350Y74650D02*X25850D01*
X23850Y75150D02*X24350Y74650D01*
X23850Y78150D02*Y75150D01*
Y78150D02*X24350Y78650D01*
X25850D01*
X27051Y78150D02*X27551Y78650D01*
X28551D01*
X29051Y78150D01*
Y75150D01*
X28551Y74650D02*X29051Y75150D01*
X27551Y74650D02*X28551D01*
X27051Y75150D02*X27551Y74650D01*
Y76650D02*X29051D01*
X23893Y33150D02*X25393D01*
X23393Y33650D02*X23893Y33150D01*
X23393Y36650D02*Y33650D01*
Y36650D02*X23893Y37150D01*
X25393D01*
X26594Y36650D02*X27094Y37150D01*
X28594D01*
X29094Y36650D01*
Y35650D01*
X26594Y33150D02*X29094Y35650D01*
X26594Y33150D02*X29094D01*
X22000Y13000D02*X23500D01*
X21500Y13500D02*X22000Y13000D01*
X21500Y16500D02*Y13500D01*
Y16500D02*X22000Y17000D01*
X23500D01*
X24701Y16500D02*Y13500D01*
Y16500D02*X25201Y17000D01*
X26201D01*
X26701Y16500D01*
Y13500D01*
X26201Y13000D02*X26701Y13500D01*
X25201Y13000D02*X26201D01*
X24701Y13500D02*X25201Y13000D01*
X27902Y17000D02*Y13000D01*
Y17000D02*Y16500D01*
X30402Y14000D01*
Y17000D02*Y13000D01*
X31603Y17000D02*Y13000D01*
Y17000D02*Y16500D01*
X34103Y14000D01*
Y17000D02*Y13000D01*
X35804D02*X36804D01*
X36304Y17000D02*Y13000D01*
X35304Y16000D02*X36304Y17000D01*
X24255Y94650D02*X25755D01*
X23755Y95150D02*X24255Y94650D01*
X23755Y98150D02*Y95150D01*
Y98150D02*X24255Y98650D01*
X25755D01*
X26956Y96650D02*X28956Y98650D01*
X26956Y96650D02*X29456D01*
X28956Y98650D02*Y94650D01*
X13500Y129000D02*Y127500D01*
X14000Y129500D02*X13500Y129000D01*
X14000Y129500D02*X17000D01*
X17500Y129000D01*
Y127500D01*
X14000Y126299D02*X17000D01*
X17500Y125799D01*
Y124799D01*
X17000Y124299D01*
X14000D02*X17000D01*
X13500Y124799D02*X14000Y124299D01*
X13500Y125799D02*Y124799D01*
X14000Y126299D02*X13500Y125799D01*
Y123098D02*X17500D01*
X17000D02*X17500D01*
X17000D02*X14500Y120598D01*
X13500D02*X17500D01*
X13500Y119397D02*X17500D01*
X17000D02*X17500D01*
X17000D02*X14500Y116897D01*
X13500D02*X17500D01*
X17000Y115696D02*X17500Y115196D01*
Y113696D01*
X17000Y113196D01*
X16000D02*X17000D01*
X13500Y115696D02*X16000Y113196D01*
X13500Y115696D02*Y113196D01*
X20500Y125500D02*X22000D01*
X20000Y126000D02*X20500Y125500D01*
X20000Y129000D02*Y126000D01*
Y129000D02*X20500Y129500D01*
X22000D01*
X23201Y129000D02*Y126000D01*
Y129000D02*X23701Y129500D01*
X24701D01*
X25201Y129000D01*
Y126000D01*
X24701Y125500D02*X25201Y126000D01*
X23701Y125500D02*X24701D01*
X23201Y126000D02*X23701Y125500D01*
X26402Y129500D02*Y125500D01*
Y129500D02*Y129000D01*
X28902Y126500D01*
Y129500D02*Y125500D01*
X30103Y129500D02*Y125500D01*
Y129500D02*Y129000D01*
X32603Y126500D01*
Y129500D02*Y125500D01*
X33804Y127500D02*X35804Y129500D01*
X33804Y127500D02*X36304D01*
X35804Y129500D02*Y125500D01*
X24350Y53150D02*X25850D01*
X23850Y53650D02*X24350Y53150D01*
X23850Y56650D02*Y53650D01*
Y56650D02*X24350Y57150D01*
X25850D01*
X27051D02*X29051D01*
X27051D02*Y55150D01*
X27551Y55650D01*
X28551D01*
X29051Y55150D01*
Y53650D01*
X28551Y53150D02*X29051Y53650D01*
X27551Y53150D02*X28551D01*
X27051Y53650D02*X27551Y53150D01*
M02*
