M48
INCH
T22C0.038
%
T22
X000650Y008650
X000650Y007650
X000650Y006650
X000650Y005650
X000650Y004650
X000650Y003650
X000650Y002650
X000650Y001650
X002650Y000650
X003650Y000650
X004650Y000650
X005650Y000650
X006650Y000650
X007650Y000650
X009650Y009650
X009650Y008650
X009650Y007650
X009650Y006650
X009650Y012650
X009650Y011650
X009650Y010650
X009650Y005650
X009650Y004650
X009650Y003650
X009650Y002650
X009650Y001650
X000650Y012650
X000650Y011650
X000650Y010650
X000650Y009650
X001650Y013650
X002650Y013650
X003650Y013650
X004650Y013650
X005650Y013650
X006650Y013650
X007650Y013650
X008650Y013650
M30
