G04 start of page 6 for group -4062 idx -4062 *
G04 Title: (unknown), soldermask *
G04 Creator: pcb 20100929 *
G04 CreationDate: Wed Oct  5 20:03:28 2011 UTC *
G04 For: user1 *
G04 Format: Gerber/RS-274X *
G04 PCB-Dimensions: 103000 143000 *
G04 PCB-Coordinate-Origin: lower left *
%MOIN*%
%FSLAX25Y25*%
%LNBACKMASK*%
%ADD12C,0.0200*%
%ADD23C,0.0660*%
G54D23*X6500Y86500D03*
Y76500D03*
Y66500D03*
Y56500D03*
Y46500D03*
Y36500D03*
Y26500D03*
Y16500D03*
G54D12*G36*
X23200Y9800D02*Y3200D01*
X29800D01*
Y9800D01*
X23200D01*
G37*
G54D23*X36500Y6500D03*
X46500D03*
X56500D03*
X66500D03*
X76500D03*
X96500Y96500D03*
Y86500D03*
Y76500D03*
Y66500D03*
G54D12*G36*
X93200Y129800D02*Y123200D01*
X99800D01*
Y129800D01*
X93200D01*
G37*
G54D23*X96500Y116500D03*
Y106500D03*
Y56500D03*
Y46500D03*
Y36500D03*
Y26500D03*
Y16500D03*
G54D12*G36*
X3200Y129800D02*Y123200D01*
X9800D01*
Y129800D01*
X3200D01*
G37*
G54D23*X6500Y116500D03*
Y106500D03*
Y96500D03*
G54D12*G36*
X13200Y139800D02*Y133200D01*
X19800D01*
Y139800D01*
X13200D01*
G37*
G54D23*X26500Y136500D03*
X36500D03*
X46500D03*
X56500D03*
X66500D03*
X76500D03*
X86500D03*
M02*
