G04 start of page 3 for group 1 idx 1 *
G04 Title: (unknown), solder *
G04 Creator: pcb 20100929 *
G04 CreationDate: Wed Oct  5 20:03:28 2011 UTC *
G04 For: user1 *
G04 Format: Gerber/RS-274X *
G04 PCB-Dimensions: 103000 143000 *
G04 PCB-Coordinate-Origin: lower left *
%MOIN*%
%FSLAX25Y25*%
%LNBACK*%
%ADD12C,0.0200*%
%ADD15C,0.0100*%
%ADD16C,0.0600*%
%ADD22C,0.0380*%
G54D12*G36*
X96499Y141000D02*X101000D01*
Y128000D01*
X100991Y128117D01*
X100963Y128232D01*
X100918Y128340D01*
X100857Y128441D01*
X100780Y128530D01*
X100691Y128607D01*
X100590Y128668D01*
X100482Y128713D01*
X100367Y128741D01*
X100250Y128750D01*
X100133Y128741D01*
X100018Y128713D01*
X99910Y128668D01*
X99809Y128607D01*
X99720Y128530D01*
X99643Y128441D01*
X99582Y128340D01*
X99537Y128232D01*
X99509Y128117D01*
X99500Y128000D01*
Y125000D01*
X99509Y124883D01*
X99537Y124768D01*
X99582Y124660D01*
X99643Y124559D01*
X99720Y124470D01*
X99809Y124393D01*
X99910Y124332D01*
X100018Y124287D01*
X100133Y124259D01*
X100250Y124250D01*
X100367Y124259D01*
X100482Y124287D01*
X100590Y124332D01*
X100691Y124393D01*
X100780Y124470D01*
X100857Y124559D01*
X100918Y124660D01*
X100963Y124768D01*
X100991Y124883D01*
X101000Y125000D01*
Y116500D01*
X100979Y116932D01*
X100917Y117359D01*
X100814Y117779D01*
X100672Y118186D01*
X100618Y118291D01*
X100550Y118387D01*
X100468Y118471D01*
X100373Y118541D01*
X100269Y118595D01*
X100157Y118632D01*
X100041Y118652D01*
X99924Y118653D01*
X99807Y118635D01*
X99695Y118600D01*
X99590Y118547D01*
X99494Y118479D01*
X99410Y118397D01*
X99340Y118302D01*
X99286Y118198D01*
X99249Y118086D01*
X99229Y117970D01*
X99228Y117853D01*
X99246Y117736D01*
X99281Y117624D01*
X99376Y117353D01*
X99444Y117073D01*
X99486Y116788D01*
X99500Y116500D01*
X99486Y116213D01*
X99444Y115928D01*
X99376Y115648D01*
X99281Y115377D01*
X99245Y115265D01*
X99227Y115148D01*
X99228Y115030D01*
X99248Y114914D01*
X99285Y114803D01*
X99340Y114698D01*
X99410Y114603D01*
X99494Y114521D01*
X99590Y114453D01*
X99695Y114400D01*
X99807Y114365D01*
X99924Y114347D01*
X100042Y114348D01*
X100158Y114368D01*
X100269Y114405D01*
X100374Y114460D01*
X100469Y114530D01*
X100551Y114614D01*
X100619Y114710D01*
X100672Y114815D01*
X100814Y115222D01*
X100917Y115642D01*
X100979Y116069D01*
X101000Y116500D01*
Y106500D01*
X100979Y106932D01*
X100917Y107359D01*
X100814Y107779D01*
X100672Y108186D01*
X100618Y108291D01*
X100550Y108387D01*
X100468Y108471D01*
X100373Y108541D01*
X100269Y108595D01*
X100157Y108632D01*
X100041Y108652D01*
X99924Y108653D01*
X99807Y108635D01*
X99695Y108600D01*
X99590Y108547D01*
X99494Y108479D01*
X99410Y108397D01*
X99340Y108302D01*
X99286Y108198D01*
X99249Y108086D01*
X99229Y107970D01*
X99228Y107853D01*
X99246Y107736D01*
X99281Y107624D01*
X99376Y107353D01*
X99444Y107073D01*
X99486Y106788D01*
X99500Y106500D01*
X99486Y106213D01*
X99444Y105928D01*
X99376Y105648D01*
X99281Y105377D01*
X99245Y105265D01*
X99227Y105148D01*
X99228Y105030D01*
X99248Y104914D01*
X99285Y104803D01*
X99340Y104698D01*
X99410Y104603D01*
X99494Y104521D01*
X99590Y104453D01*
X99695Y104400D01*
X99807Y104365D01*
X99924Y104347D01*
X100042Y104348D01*
X100158Y104368D01*
X100269Y104405D01*
X100374Y104460D01*
X100469Y104530D01*
X100551Y104614D01*
X100619Y104710D01*
X100672Y104815D01*
X100814Y105222D01*
X100917Y105642D01*
X100979Y106069D01*
X101000Y106500D01*
Y96500D01*
X100979Y96932D01*
X100917Y97359D01*
X100814Y97779D01*
X100672Y98186D01*
X100618Y98291D01*
X100550Y98387D01*
X100468Y98471D01*
X100373Y98541D01*
X100269Y98595D01*
X100157Y98632D01*
X100041Y98652D01*
X99924Y98653D01*
X99807Y98635D01*
X99695Y98600D01*
X99590Y98547D01*
X99494Y98479D01*
X99410Y98397D01*
X99340Y98302D01*
X99286Y98198D01*
X99249Y98086D01*
X99229Y97970D01*
X99228Y97853D01*
X99246Y97736D01*
X99281Y97624D01*
X99376Y97353D01*
X99444Y97073D01*
X99486Y96788D01*
X99500Y96500D01*
X99486Y96213D01*
X99444Y95928D01*
X99376Y95648D01*
X99281Y95377D01*
X99245Y95265D01*
X99227Y95148D01*
X99228Y95030D01*
X99248Y94914D01*
X99285Y94803D01*
X99340Y94698D01*
X99410Y94603D01*
X99494Y94521D01*
X99590Y94453D01*
X99695Y94400D01*
X99807Y94365D01*
X99924Y94347D01*
X100042Y94348D01*
X100158Y94368D01*
X100269Y94405D01*
X100374Y94460D01*
X100469Y94530D01*
X100551Y94614D01*
X100619Y94710D01*
X100672Y94815D01*
X100814Y95222D01*
X100917Y95642D01*
X100979Y96069D01*
X101000Y96500D01*
Y86500D01*
X100979Y86932D01*
X100917Y87359D01*
X100814Y87779D01*
X100672Y88186D01*
X100618Y88291D01*
X100550Y88387D01*
X100468Y88471D01*
X100373Y88541D01*
X100269Y88595D01*
X100157Y88632D01*
X100041Y88652D01*
X99924Y88653D01*
X99807Y88635D01*
X99695Y88600D01*
X99590Y88547D01*
X99494Y88479D01*
X99410Y88397D01*
X99340Y88302D01*
X99286Y88198D01*
X99249Y88086D01*
X99229Y87970D01*
X99228Y87853D01*
X99246Y87736D01*
X99281Y87624D01*
X99376Y87353D01*
X99444Y87073D01*
X99486Y86788D01*
X99500Y86500D01*
X99486Y86213D01*
X99444Y85928D01*
X99376Y85648D01*
X99281Y85377D01*
X99245Y85265D01*
X99227Y85148D01*
X99228Y85030D01*
X99248Y84914D01*
X99285Y84803D01*
X99340Y84698D01*
X99410Y84603D01*
X99494Y84521D01*
X99590Y84453D01*
X99695Y84400D01*
X99807Y84365D01*
X99924Y84347D01*
X100042Y84348D01*
X100158Y84368D01*
X100269Y84405D01*
X100374Y84460D01*
X100469Y84530D01*
X100551Y84614D01*
X100619Y84710D01*
X100672Y84815D01*
X100814Y85222D01*
X100917Y85642D01*
X100979Y86069D01*
X101000Y86500D01*
Y76500D01*
X100979Y76932D01*
X100917Y77359D01*
X100814Y77779D01*
X100672Y78186D01*
X100618Y78291D01*
X100550Y78387D01*
X100468Y78471D01*
X100373Y78541D01*
X100269Y78595D01*
X100157Y78632D01*
X100041Y78652D01*
X99924Y78653D01*
X99807Y78635D01*
X99695Y78600D01*
X99590Y78547D01*
X99494Y78479D01*
X99410Y78397D01*
X99340Y78302D01*
X99286Y78198D01*
X99249Y78086D01*
X99229Y77970D01*
X99228Y77853D01*
X99246Y77736D01*
X99281Y77624D01*
X99376Y77353D01*
X99444Y77073D01*
X99486Y76788D01*
X99500Y76500D01*
X99486Y76213D01*
X99444Y75928D01*
X99376Y75648D01*
X99281Y75377D01*
X99245Y75265D01*
X99227Y75148D01*
X99228Y75030D01*
X99248Y74914D01*
X99285Y74803D01*
X99340Y74698D01*
X99410Y74603D01*
X99494Y74521D01*
X99590Y74453D01*
X99695Y74400D01*
X99807Y74365D01*
X99924Y74347D01*
X100042Y74348D01*
X100158Y74368D01*
X100269Y74405D01*
X100374Y74460D01*
X100469Y74530D01*
X100551Y74614D01*
X100619Y74710D01*
X100672Y74815D01*
X100814Y75222D01*
X100917Y75642D01*
X100979Y76069D01*
X101000Y76500D01*
Y66500D01*
X100979Y66932D01*
X100917Y67359D01*
X100814Y67779D01*
X100672Y68186D01*
X100618Y68291D01*
X100550Y68387D01*
X100468Y68471D01*
X100373Y68541D01*
X100269Y68595D01*
X100157Y68632D01*
X100041Y68652D01*
X99924Y68653D01*
X99807Y68635D01*
X99695Y68600D01*
X99590Y68547D01*
X99494Y68479D01*
X99410Y68397D01*
X99340Y68302D01*
X99286Y68198D01*
X99249Y68086D01*
X99229Y67970D01*
X99228Y67853D01*
X99246Y67736D01*
X99281Y67624D01*
X99376Y67353D01*
X99444Y67073D01*
X99486Y66788D01*
X99500Y66500D01*
X99486Y66213D01*
X99444Y65928D01*
X99376Y65648D01*
X99281Y65377D01*
X99245Y65265D01*
X99227Y65148D01*
X99228Y65030D01*
X99248Y64914D01*
X99285Y64803D01*
X99340Y64698D01*
X99410Y64603D01*
X99494Y64521D01*
X99590Y64453D01*
X99695Y64400D01*
X99807Y64365D01*
X99924Y64347D01*
X100042Y64348D01*
X100158Y64368D01*
X100269Y64405D01*
X100374Y64460D01*
X100469Y64530D01*
X100551Y64614D01*
X100619Y64710D01*
X100672Y64815D01*
X100814Y65222D01*
X100917Y65642D01*
X100979Y66069D01*
X101000Y66500D01*
Y56500D01*
X100979Y56932D01*
X100917Y57359D01*
X100814Y57779D01*
X100672Y58186D01*
X100618Y58291D01*
X100550Y58387D01*
X100468Y58471D01*
X100373Y58541D01*
X100269Y58595D01*
X100157Y58632D01*
X100041Y58652D01*
X99924Y58653D01*
X99807Y58635D01*
X99695Y58600D01*
X99590Y58547D01*
X99494Y58479D01*
X99410Y58397D01*
X99340Y58302D01*
X99286Y58198D01*
X99249Y58086D01*
X99229Y57970D01*
X99228Y57853D01*
X99246Y57736D01*
X99281Y57624D01*
X99376Y57353D01*
X99444Y57073D01*
X99486Y56788D01*
X99500Y56500D01*
X99486Y56213D01*
X99444Y55928D01*
X99376Y55648D01*
X99281Y55377D01*
X99245Y55265D01*
X99227Y55148D01*
X99228Y55030D01*
X99248Y54914D01*
X99285Y54803D01*
X99340Y54698D01*
X99410Y54603D01*
X99494Y54521D01*
X99590Y54453D01*
X99695Y54400D01*
X99807Y54365D01*
X99924Y54347D01*
X100042Y54348D01*
X100158Y54368D01*
X100269Y54405D01*
X100374Y54460D01*
X100469Y54530D01*
X100551Y54614D01*
X100619Y54710D01*
X100672Y54815D01*
X100814Y55222D01*
X100917Y55642D01*
X100979Y56069D01*
X101000Y56500D01*
Y46500D01*
X100979Y46932D01*
X100917Y47359D01*
X100814Y47779D01*
X100672Y48186D01*
X100618Y48291D01*
X100550Y48387D01*
X100468Y48471D01*
X100373Y48541D01*
X100269Y48595D01*
X100157Y48632D01*
X100041Y48652D01*
X99924Y48653D01*
X99807Y48635D01*
X99695Y48600D01*
X99590Y48547D01*
X99494Y48479D01*
X99410Y48397D01*
X99340Y48302D01*
X99286Y48198D01*
X99249Y48086D01*
X99229Y47970D01*
X99228Y47853D01*
X99246Y47736D01*
X99281Y47624D01*
X99376Y47353D01*
X99444Y47073D01*
X99486Y46788D01*
X99500Y46500D01*
X99486Y46213D01*
X99444Y45928D01*
X99376Y45648D01*
X99281Y45377D01*
X99245Y45265D01*
X99227Y45148D01*
X99228Y45030D01*
X99248Y44914D01*
X99285Y44803D01*
X99340Y44698D01*
X99410Y44603D01*
X99494Y44521D01*
X99590Y44453D01*
X99695Y44400D01*
X99807Y44365D01*
X99924Y44347D01*
X100042Y44348D01*
X100158Y44368D01*
X100269Y44405D01*
X100374Y44460D01*
X100469Y44530D01*
X100551Y44614D01*
X100619Y44710D01*
X100672Y44815D01*
X100814Y45222D01*
X100917Y45642D01*
X100979Y46069D01*
X101000Y46500D01*
Y36500D01*
X100979Y36932D01*
X100917Y37359D01*
X100814Y37779D01*
X100672Y38186D01*
X100618Y38291D01*
X100550Y38387D01*
X100468Y38471D01*
X100373Y38541D01*
X100269Y38595D01*
X100157Y38632D01*
X100041Y38652D01*
X99924Y38653D01*
X99807Y38635D01*
X99695Y38600D01*
X99590Y38547D01*
X99494Y38479D01*
X99410Y38397D01*
X99340Y38302D01*
X99286Y38198D01*
X99249Y38086D01*
X99229Y37970D01*
X99228Y37853D01*
X99246Y37736D01*
X99281Y37624D01*
X99376Y37353D01*
X99444Y37073D01*
X99486Y36788D01*
X99500Y36500D01*
X99486Y36213D01*
X99444Y35928D01*
X99376Y35648D01*
X99281Y35377D01*
X99245Y35265D01*
X99227Y35148D01*
X99228Y35030D01*
X99248Y34914D01*
X99285Y34803D01*
X99340Y34698D01*
X99410Y34603D01*
X99494Y34521D01*
X99590Y34453D01*
X99695Y34400D01*
X99807Y34365D01*
X99924Y34347D01*
X100042Y34348D01*
X100158Y34368D01*
X100269Y34405D01*
X100374Y34460D01*
X100469Y34530D01*
X100551Y34614D01*
X100619Y34710D01*
X100672Y34815D01*
X100814Y35222D01*
X100917Y35642D01*
X100979Y36069D01*
X101000Y36500D01*
Y26500D01*
X100979Y26932D01*
X100917Y27359D01*
X100814Y27779D01*
X100672Y28186D01*
X100618Y28291D01*
X100550Y28387D01*
X100468Y28471D01*
X100373Y28541D01*
X100269Y28595D01*
X100157Y28632D01*
X100041Y28652D01*
X99924Y28653D01*
X99807Y28635D01*
X99695Y28600D01*
X99590Y28547D01*
X99494Y28479D01*
X99410Y28397D01*
X99340Y28302D01*
X99286Y28198D01*
X99249Y28086D01*
X99229Y27970D01*
X99228Y27853D01*
X99246Y27736D01*
X99281Y27624D01*
X99376Y27353D01*
X99444Y27073D01*
X99486Y26788D01*
X99500Y26500D01*
X99486Y26213D01*
X99444Y25928D01*
X99376Y25648D01*
X99281Y25377D01*
X99245Y25265D01*
X99227Y25148D01*
X99228Y25030D01*
X99248Y24914D01*
X99285Y24803D01*
X99340Y24698D01*
X99410Y24603D01*
X99494Y24521D01*
X99590Y24453D01*
X99695Y24400D01*
X99807Y24365D01*
X99924Y24347D01*
X100042Y24348D01*
X100158Y24368D01*
X100269Y24405D01*
X100374Y24460D01*
X100469Y24530D01*
X100551Y24614D01*
X100619Y24710D01*
X100672Y24815D01*
X100814Y25222D01*
X100917Y25642D01*
X100979Y26069D01*
X101000Y26500D01*
Y16500D01*
X100979Y16932D01*
X100917Y17359D01*
X100814Y17779D01*
X100672Y18186D01*
X100618Y18291D01*
X100550Y18387D01*
X100468Y18471D01*
X100373Y18541D01*
X100269Y18595D01*
X100157Y18632D01*
X100041Y18652D01*
X99924Y18653D01*
X99807Y18635D01*
X99695Y18600D01*
X99590Y18547D01*
X99494Y18479D01*
X99410Y18397D01*
X99340Y18302D01*
X99286Y18198D01*
X99249Y18086D01*
X99229Y17970D01*
X99228Y17853D01*
X99246Y17736D01*
X99281Y17624D01*
X99376Y17353D01*
X99444Y17073D01*
X99486Y16788D01*
X99500Y16500D01*
X99486Y16213D01*
X99444Y15928D01*
X99376Y15648D01*
X99281Y15377D01*
X99245Y15265D01*
X99227Y15148D01*
X99228Y15030D01*
X99248Y14914D01*
X99285Y14803D01*
X99340Y14698D01*
X99410Y14603D01*
X99494Y14521D01*
X99590Y14453D01*
X99695Y14400D01*
X99807Y14365D01*
X99924Y14347D01*
X100042Y14348D01*
X100158Y14368D01*
X100269Y14405D01*
X100374Y14460D01*
X100469Y14530D01*
X100551Y14614D01*
X100619Y14710D01*
X100672Y14815D01*
X100814Y15222D01*
X100917Y15642D01*
X100979Y16069D01*
X101000Y16500D01*
Y1601D01*
X96499D01*
Y12000D01*
X96500D01*
X96931Y12021D01*
X97358Y12083D01*
X97778Y12186D01*
X98185Y12328D01*
X98290Y12382D01*
X98386Y12450D01*
X98470Y12532D01*
X98540Y12627D01*
X98594Y12731D01*
X98631Y12843D01*
X98651Y12959D01*
X98652Y13076D01*
X98634Y13193D01*
X98599Y13305D01*
X98546Y13410D01*
X98478Y13506D01*
X98396Y13590D01*
X98301Y13660D01*
X98197Y13714D01*
X98085Y13751D01*
X97969Y13771D01*
X97852Y13772D01*
X97735Y13754D01*
X97623Y13719D01*
X97352Y13624D01*
X97072Y13556D01*
X96787Y13514D01*
X96500Y13500D01*
X96499D01*
Y19500D01*
X96500D01*
X96787Y19487D01*
X97072Y19445D01*
X97352Y19377D01*
X97623Y19282D01*
X97735Y19246D01*
X97852Y19228D01*
X97970Y19229D01*
X98086Y19249D01*
X98197Y19286D01*
X98302Y19341D01*
X98397Y19411D01*
X98479Y19495D01*
X98547Y19591D01*
X98600Y19696D01*
X98635Y19808D01*
X98653Y19925D01*
X98652Y20043D01*
X98632Y20159D01*
X98595Y20270D01*
X98540Y20375D01*
X98470Y20470D01*
X98386Y20552D01*
X98290Y20620D01*
X98185Y20673D01*
X97778Y20815D01*
X97358Y20918D01*
X96931Y20980D01*
X96500Y21000D01*
X96499D01*
Y22000D01*
X96500D01*
X96931Y22021D01*
X97358Y22083D01*
X97778Y22186D01*
X98185Y22328D01*
X98290Y22382D01*
X98386Y22450D01*
X98470Y22532D01*
X98540Y22627D01*
X98594Y22731D01*
X98631Y22843D01*
X98651Y22959D01*
X98652Y23076D01*
X98634Y23193D01*
X98599Y23305D01*
X98546Y23410D01*
X98478Y23506D01*
X98396Y23590D01*
X98301Y23660D01*
X98197Y23714D01*
X98085Y23751D01*
X97969Y23771D01*
X97852Y23772D01*
X97735Y23754D01*
X97623Y23719D01*
X97352Y23624D01*
X97072Y23556D01*
X96787Y23514D01*
X96500Y23500D01*
X96499D01*
Y29500D01*
X96500D01*
X96787Y29487D01*
X97072Y29445D01*
X97352Y29377D01*
X97623Y29282D01*
X97735Y29246D01*
X97852Y29228D01*
X97970Y29229D01*
X98086Y29249D01*
X98197Y29286D01*
X98302Y29341D01*
X98397Y29411D01*
X98479Y29495D01*
X98547Y29591D01*
X98600Y29696D01*
X98635Y29808D01*
X98653Y29925D01*
X98652Y30043D01*
X98632Y30159D01*
X98595Y30270D01*
X98540Y30375D01*
X98470Y30470D01*
X98386Y30552D01*
X98290Y30620D01*
X98185Y30673D01*
X97778Y30815D01*
X97358Y30918D01*
X96931Y30980D01*
X96500Y31000D01*
X96499D01*
Y32000D01*
X96500D01*
X96931Y32021D01*
X97358Y32083D01*
X97778Y32186D01*
X98185Y32328D01*
X98290Y32382D01*
X98386Y32450D01*
X98470Y32532D01*
X98540Y32627D01*
X98594Y32731D01*
X98631Y32843D01*
X98651Y32959D01*
X98652Y33076D01*
X98634Y33193D01*
X98599Y33305D01*
X98546Y33410D01*
X98478Y33506D01*
X98396Y33590D01*
X98301Y33660D01*
X98197Y33714D01*
X98085Y33751D01*
X97969Y33771D01*
X97852Y33772D01*
X97735Y33754D01*
X97623Y33719D01*
X97352Y33624D01*
X97072Y33556D01*
X96787Y33514D01*
X96500Y33500D01*
X96499D01*
Y39500D01*
X96500D01*
X96787Y39487D01*
X97072Y39445D01*
X97352Y39377D01*
X97623Y39282D01*
X97735Y39246D01*
X97852Y39228D01*
X97970Y39229D01*
X98086Y39249D01*
X98197Y39286D01*
X98302Y39341D01*
X98397Y39411D01*
X98479Y39495D01*
X98547Y39591D01*
X98600Y39696D01*
X98635Y39808D01*
X98653Y39925D01*
X98652Y40043D01*
X98632Y40159D01*
X98595Y40270D01*
X98540Y40375D01*
X98470Y40470D01*
X98386Y40552D01*
X98290Y40620D01*
X98185Y40673D01*
X97778Y40815D01*
X97358Y40918D01*
X96931Y40980D01*
X96500Y41000D01*
X96499D01*
Y42000D01*
X96500D01*
X96931Y42021D01*
X97358Y42083D01*
X97778Y42186D01*
X98185Y42328D01*
X98290Y42382D01*
X98386Y42450D01*
X98470Y42532D01*
X98540Y42627D01*
X98594Y42731D01*
X98631Y42843D01*
X98651Y42959D01*
X98652Y43076D01*
X98634Y43193D01*
X98599Y43305D01*
X98546Y43410D01*
X98478Y43506D01*
X98396Y43590D01*
X98301Y43660D01*
X98197Y43714D01*
X98085Y43751D01*
X97969Y43771D01*
X97852Y43772D01*
X97735Y43754D01*
X97623Y43719D01*
X97352Y43624D01*
X97072Y43556D01*
X96787Y43514D01*
X96500Y43500D01*
X96499D01*
Y49500D01*
X96500D01*
X96787Y49487D01*
X97072Y49445D01*
X97352Y49377D01*
X97623Y49282D01*
X97735Y49246D01*
X97852Y49228D01*
X97970Y49229D01*
X98086Y49249D01*
X98197Y49286D01*
X98302Y49341D01*
X98397Y49411D01*
X98479Y49495D01*
X98547Y49591D01*
X98600Y49696D01*
X98635Y49808D01*
X98653Y49925D01*
X98652Y50043D01*
X98632Y50159D01*
X98595Y50270D01*
X98540Y50375D01*
X98470Y50470D01*
X98386Y50552D01*
X98290Y50620D01*
X98185Y50673D01*
X97778Y50815D01*
X97358Y50918D01*
X96931Y50980D01*
X96500Y51000D01*
X96499D01*
Y52000D01*
X96500D01*
X96931Y52021D01*
X97358Y52083D01*
X97778Y52186D01*
X98185Y52328D01*
X98290Y52382D01*
X98386Y52450D01*
X98470Y52532D01*
X98540Y52627D01*
X98594Y52731D01*
X98631Y52843D01*
X98651Y52959D01*
X98652Y53076D01*
X98634Y53193D01*
X98599Y53305D01*
X98546Y53410D01*
X98478Y53506D01*
X98396Y53590D01*
X98301Y53660D01*
X98197Y53714D01*
X98085Y53751D01*
X97969Y53771D01*
X97852Y53772D01*
X97735Y53754D01*
X97623Y53719D01*
X97352Y53624D01*
X97072Y53556D01*
X96787Y53514D01*
X96500Y53500D01*
X96499D01*
Y59500D01*
X96500D01*
X96787Y59487D01*
X97072Y59445D01*
X97352Y59377D01*
X97623Y59282D01*
X97735Y59246D01*
X97852Y59228D01*
X97970Y59229D01*
X98086Y59249D01*
X98197Y59286D01*
X98302Y59341D01*
X98397Y59411D01*
X98479Y59495D01*
X98547Y59591D01*
X98600Y59696D01*
X98635Y59808D01*
X98653Y59925D01*
X98652Y60043D01*
X98632Y60159D01*
X98595Y60270D01*
X98540Y60375D01*
X98470Y60470D01*
X98386Y60552D01*
X98290Y60620D01*
X98185Y60673D01*
X97778Y60815D01*
X97358Y60918D01*
X96931Y60980D01*
X96500Y61000D01*
X96499D01*
Y62000D01*
X96500D01*
X96931Y62021D01*
X97358Y62083D01*
X97778Y62186D01*
X98185Y62328D01*
X98290Y62382D01*
X98386Y62450D01*
X98470Y62532D01*
X98540Y62627D01*
X98594Y62731D01*
X98631Y62843D01*
X98651Y62959D01*
X98652Y63076D01*
X98634Y63193D01*
X98599Y63305D01*
X98546Y63410D01*
X98478Y63506D01*
X98396Y63590D01*
X98301Y63660D01*
X98197Y63714D01*
X98085Y63751D01*
X97969Y63771D01*
X97852Y63772D01*
X97735Y63754D01*
X97623Y63719D01*
X97352Y63624D01*
X97072Y63556D01*
X96787Y63514D01*
X96500Y63500D01*
X96499D01*
Y69500D01*
X96500D01*
X96787Y69487D01*
X97072Y69445D01*
X97352Y69377D01*
X97623Y69282D01*
X97735Y69246D01*
X97852Y69228D01*
X97970Y69229D01*
X98086Y69249D01*
X98197Y69286D01*
X98302Y69341D01*
X98397Y69411D01*
X98479Y69495D01*
X98547Y69591D01*
X98600Y69696D01*
X98635Y69808D01*
X98653Y69925D01*
X98652Y70043D01*
X98632Y70159D01*
X98595Y70270D01*
X98540Y70375D01*
X98470Y70470D01*
X98386Y70552D01*
X98290Y70620D01*
X98185Y70673D01*
X97778Y70815D01*
X97358Y70918D01*
X96931Y70980D01*
X96500Y71000D01*
X96499D01*
Y72000D01*
X96500D01*
X96931Y72021D01*
X97358Y72083D01*
X97778Y72186D01*
X98185Y72328D01*
X98290Y72382D01*
X98386Y72450D01*
X98470Y72532D01*
X98540Y72627D01*
X98594Y72731D01*
X98631Y72843D01*
X98651Y72959D01*
X98652Y73076D01*
X98634Y73193D01*
X98599Y73305D01*
X98546Y73410D01*
X98478Y73506D01*
X98396Y73590D01*
X98301Y73660D01*
X98197Y73714D01*
X98085Y73751D01*
X97969Y73771D01*
X97852Y73772D01*
X97735Y73754D01*
X97623Y73719D01*
X97352Y73624D01*
X97072Y73556D01*
X96787Y73514D01*
X96500Y73500D01*
X96499D01*
Y79500D01*
X96500D01*
X96787Y79487D01*
X97072Y79445D01*
X97352Y79377D01*
X97623Y79282D01*
X97735Y79246D01*
X97852Y79228D01*
X97970Y79229D01*
X98086Y79249D01*
X98197Y79286D01*
X98302Y79341D01*
X98397Y79411D01*
X98479Y79495D01*
X98547Y79591D01*
X98600Y79696D01*
X98635Y79808D01*
X98653Y79925D01*
X98652Y80043D01*
X98632Y80159D01*
X98595Y80270D01*
X98540Y80375D01*
X98470Y80470D01*
X98386Y80552D01*
X98290Y80620D01*
X98185Y80673D01*
X97778Y80815D01*
X97358Y80918D01*
X96931Y80980D01*
X96500Y81000D01*
X96499D01*
Y82000D01*
X96500D01*
X96931Y82021D01*
X97358Y82083D01*
X97778Y82186D01*
X98185Y82328D01*
X98290Y82382D01*
X98386Y82450D01*
X98470Y82532D01*
X98540Y82627D01*
X98594Y82731D01*
X98631Y82843D01*
X98651Y82959D01*
X98652Y83076D01*
X98634Y83193D01*
X98599Y83305D01*
X98546Y83410D01*
X98478Y83506D01*
X98396Y83590D01*
X98301Y83660D01*
X98197Y83714D01*
X98085Y83751D01*
X97969Y83771D01*
X97852Y83772D01*
X97735Y83754D01*
X97623Y83719D01*
X97352Y83624D01*
X97072Y83556D01*
X96787Y83514D01*
X96500Y83500D01*
X96499D01*
Y89500D01*
X96500D01*
X96787Y89487D01*
X97072Y89445D01*
X97352Y89377D01*
X97623Y89282D01*
X97735Y89246D01*
X97852Y89228D01*
X97970Y89229D01*
X98086Y89249D01*
X98197Y89286D01*
X98302Y89341D01*
X98397Y89411D01*
X98479Y89495D01*
X98547Y89591D01*
X98600Y89696D01*
X98635Y89808D01*
X98653Y89925D01*
X98652Y90043D01*
X98632Y90159D01*
X98595Y90270D01*
X98540Y90375D01*
X98470Y90470D01*
X98386Y90552D01*
X98290Y90620D01*
X98185Y90673D01*
X97778Y90815D01*
X97358Y90918D01*
X96931Y90980D01*
X96500Y91000D01*
X96499D01*
Y92000D01*
X96500D01*
X96931Y92021D01*
X97358Y92083D01*
X97778Y92186D01*
X98185Y92328D01*
X98290Y92382D01*
X98386Y92450D01*
X98470Y92532D01*
X98540Y92627D01*
X98594Y92731D01*
X98631Y92843D01*
X98651Y92959D01*
X98652Y93076D01*
X98634Y93193D01*
X98599Y93305D01*
X98546Y93410D01*
X98478Y93506D01*
X98396Y93590D01*
X98301Y93660D01*
X98197Y93714D01*
X98085Y93751D01*
X97969Y93771D01*
X97852Y93772D01*
X97735Y93754D01*
X97623Y93719D01*
X97352Y93624D01*
X97072Y93556D01*
X96787Y93514D01*
X96500Y93500D01*
X96499D01*
Y99500D01*
X96500D01*
X96787Y99487D01*
X97072Y99445D01*
X97352Y99377D01*
X97623Y99282D01*
X97735Y99246D01*
X97852Y99228D01*
X97970Y99229D01*
X98086Y99249D01*
X98197Y99286D01*
X98302Y99341D01*
X98397Y99411D01*
X98479Y99495D01*
X98547Y99591D01*
X98600Y99696D01*
X98635Y99808D01*
X98653Y99925D01*
X98652Y100043D01*
X98632Y100159D01*
X98595Y100270D01*
X98540Y100375D01*
X98470Y100470D01*
X98386Y100552D01*
X98290Y100620D01*
X98185Y100673D01*
X97778Y100815D01*
X97358Y100918D01*
X96931Y100980D01*
X96500Y101000D01*
X96499D01*
Y102000D01*
X96500D01*
X96931Y102021D01*
X97358Y102083D01*
X97778Y102186D01*
X98185Y102328D01*
X98290Y102382D01*
X98386Y102450D01*
X98470Y102532D01*
X98540Y102627D01*
X98594Y102731D01*
X98631Y102843D01*
X98651Y102959D01*
X98652Y103076D01*
X98634Y103193D01*
X98599Y103305D01*
X98546Y103410D01*
X98478Y103506D01*
X98396Y103590D01*
X98301Y103660D01*
X98197Y103714D01*
X98085Y103751D01*
X97969Y103771D01*
X97852Y103772D01*
X97735Y103754D01*
X97623Y103719D01*
X97352Y103624D01*
X97072Y103556D01*
X96787Y103514D01*
X96500Y103500D01*
X96499D01*
Y109500D01*
X96500D01*
X96787Y109487D01*
X97072Y109445D01*
X97352Y109377D01*
X97623Y109282D01*
X97735Y109246D01*
X97852Y109228D01*
X97970Y109229D01*
X98086Y109249D01*
X98197Y109286D01*
X98302Y109341D01*
X98397Y109411D01*
X98479Y109495D01*
X98547Y109591D01*
X98600Y109696D01*
X98635Y109808D01*
X98653Y109925D01*
X98652Y110043D01*
X98632Y110159D01*
X98595Y110270D01*
X98540Y110375D01*
X98470Y110470D01*
X98386Y110552D01*
X98290Y110620D01*
X98185Y110673D01*
X97778Y110815D01*
X97358Y110918D01*
X96931Y110980D01*
X96500Y111000D01*
X96499D01*
Y112000D01*
X96500D01*
X96931Y112021D01*
X97358Y112083D01*
X97778Y112186D01*
X98185Y112328D01*
X98290Y112382D01*
X98386Y112450D01*
X98470Y112532D01*
X98540Y112627D01*
X98594Y112731D01*
X98631Y112843D01*
X98651Y112959D01*
X98652Y113076D01*
X98634Y113193D01*
X98599Y113305D01*
X98546Y113410D01*
X98478Y113506D01*
X98396Y113590D01*
X98301Y113660D01*
X98197Y113714D01*
X98085Y113751D01*
X97969Y113771D01*
X97852Y113772D01*
X97735Y113754D01*
X97623Y113719D01*
X97352Y113624D01*
X97072Y113556D01*
X96787Y113514D01*
X96500Y113500D01*
X96499D01*
Y119500D01*
X96500D01*
X96787Y119487D01*
X97072Y119445D01*
X97352Y119377D01*
X97623Y119282D01*
X97735Y119246D01*
X97852Y119228D01*
X97970Y119229D01*
X98086Y119249D01*
X98197Y119286D01*
X98302Y119341D01*
X98397Y119411D01*
X98479Y119495D01*
X98547Y119591D01*
X98600Y119696D01*
X98635Y119808D01*
X98653Y119925D01*
X98652Y120043D01*
X98632Y120159D01*
X98595Y120270D01*
X98540Y120375D01*
X98470Y120470D01*
X98386Y120552D01*
X98290Y120620D01*
X98185Y120673D01*
X97778Y120815D01*
X97358Y120918D01*
X96931Y120980D01*
X96500Y121000D01*
X96499D01*
Y122000D01*
X98000D01*
X98117Y122009D01*
X98232Y122037D01*
X98340Y122082D01*
X98441Y122143D01*
X98530Y122220D01*
X98607Y122309D01*
X98668Y122410D01*
X98713Y122518D01*
X98741Y122633D01*
X98750Y122750D01*
X98741Y122867D01*
X98713Y122982D01*
X98668Y123090D01*
X98607Y123191D01*
X98530Y123280D01*
X98441Y123357D01*
X98340Y123418D01*
X98232Y123463D01*
X98117Y123491D01*
X98000Y123500D01*
X96499D01*
Y129500D01*
X98000D01*
X98117Y129509D01*
X98232Y129537D01*
X98340Y129582D01*
X98441Y129643D01*
X98530Y129720D01*
X98607Y129809D01*
X98668Y129910D01*
X98713Y130018D01*
X98741Y130133D01*
X98750Y130250D01*
X98741Y130367D01*
X98713Y130482D01*
X98668Y130590D01*
X98607Y130691D01*
X98530Y130780D01*
X98441Y130857D01*
X98340Y130918D01*
X98232Y130963D01*
X98117Y130991D01*
X98000Y131000D01*
X96499D01*
Y141000D01*
G37*
G36*
X92886D02*X96499D01*
Y131000D01*
X95000D01*
X94883Y130991D01*
X94768Y130963D01*
X94660Y130918D01*
X94559Y130857D01*
X94470Y130780D01*
X94393Y130691D01*
X94332Y130590D01*
X94287Y130482D01*
X94259Y130367D01*
X94250Y130250D01*
X94259Y130133D01*
X94287Y130018D01*
X94332Y129910D01*
X94393Y129809D01*
X94470Y129720D01*
X94559Y129643D01*
X94660Y129582D01*
X94768Y129537D01*
X94883Y129509D01*
X95000Y129500D01*
X96499D01*
Y123500D01*
X95000D01*
X94883Y123491D01*
X94768Y123463D01*
X94660Y123418D01*
X94559Y123357D01*
X94470Y123280D01*
X94393Y123191D01*
X94332Y123090D01*
X94287Y122982D01*
X94259Y122867D01*
X94250Y122750D01*
X94259Y122633D01*
X94287Y122518D01*
X94332Y122410D01*
X94393Y122309D01*
X94470Y122220D01*
X94559Y122143D01*
X94660Y122082D01*
X94768Y122037D01*
X94883Y122009D01*
X95000Y122000D01*
X96499D01*
Y121000D01*
X96068Y120980D01*
X95641Y120918D01*
X95221Y120815D01*
X94814Y120673D01*
X94709Y120619D01*
X94613Y120551D01*
X94529Y120469D01*
X94459Y120374D01*
X94405Y120270D01*
X94368Y120158D01*
X94348Y120042D01*
X94347Y119925D01*
X94365Y119808D01*
X94400Y119696D01*
X94453Y119591D01*
X94521Y119495D01*
X94603Y119411D01*
X94698Y119341D01*
X94802Y119287D01*
X94914Y119250D01*
X95030Y119230D01*
X95147Y119229D01*
X95264Y119247D01*
X95376Y119282D01*
X95647Y119377D01*
X95927Y119445D01*
X96212Y119487D01*
X96499Y119500D01*
Y113500D01*
X96212Y113514D01*
X95927Y113556D01*
X95647Y113624D01*
X95376Y113719D01*
X95264Y113755D01*
X95147Y113773D01*
X95029Y113772D01*
X94913Y113752D01*
X94802Y113715D01*
X94697Y113660D01*
X94602Y113590D01*
X94520Y113506D01*
X94452Y113410D01*
X94399Y113305D01*
X94364Y113193D01*
X94346Y113076D01*
X94347Y112958D01*
X94367Y112842D01*
X94404Y112731D01*
X94459Y112626D01*
X94529Y112531D01*
X94613Y112449D01*
X94709Y112381D01*
X94814Y112328D01*
X95221Y112186D01*
X95641Y112083D01*
X96068Y112021D01*
X96499Y112000D01*
Y111000D01*
X96068Y110980D01*
X95641Y110918D01*
X95221Y110815D01*
X94814Y110673D01*
X94709Y110619D01*
X94613Y110551D01*
X94529Y110469D01*
X94459Y110374D01*
X94405Y110270D01*
X94368Y110158D01*
X94348Y110042D01*
X94347Y109925D01*
X94365Y109808D01*
X94400Y109696D01*
X94453Y109591D01*
X94521Y109495D01*
X94603Y109411D01*
X94698Y109341D01*
X94802Y109287D01*
X94914Y109250D01*
X95030Y109230D01*
X95147Y109229D01*
X95264Y109247D01*
X95376Y109282D01*
X95647Y109377D01*
X95927Y109445D01*
X96212Y109487D01*
X96499Y109500D01*
Y103500D01*
X96212Y103514D01*
X95927Y103556D01*
X95647Y103624D01*
X95376Y103719D01*
X95264Y103755D01*
X95147Y103773D01*
X95029Y103772D01*
X94913Y103752D01*
X94802Y103715D01*
X94697Y103660D01*
X94602Y103590D01*
X94520Y103506D01*
X94452Y103410D01*
X94399Y103305D01*
X94364Y103193D01*
X94346Y103076D01*
X94347Y102958D01*
X94367Y102842D01*
X94404Y102731D01*
X94459Y102626D01*
X94529Y102531D01*
X94613Y102449D01*
X94709Y102381D01*
X94814Y102328D01*
X95221Y102186D01*
X95641Y102083D01*
X96068Y102021D01*
X96499Y102000D01*
Y101000D01*
X96068Y100980D01*
X95641Y100918D01*
X95221Y100815D01*
X94814Y100673D01*
X94709Y100619D01*
X94613Y100551D01*
X94529Y100469D01*
X94459Y100374D01*
X94405Y100270D01*
X94368Y100158D01*
X94348Y100042D01*
X94347Y99925D01*
X94365Y99808D01*
X94400Y99696D01*
X94453Y99591D01*
X94521Y99495D01*
X94603Y99411D01*
X94698Y99341D01*
X94802Y99287D01*
X94914Y99250D01*
X95030Y99230D01*
X95147Y99229D01*
X95264Y99247D01*
X95376Y99282D01*
X95647Y99377D01*
X95927Y99445D01*
X96212Y99487D01*
X96499Y99500D01*
Y93500D01*
X96212Y93514D01*
X95927Y93556D01*
X95647Y93624D01*
X95376Y93719D01*
X95264Y93755D01*
X95147Y93773D01*
X95029Y93772D01*
X94913Y93752D01*
X94802Y93715D01*
X94697Y93660D01*
X94602Y93590D01*
X94520Y93506D01*
X94452Y93410D01*
X94399Y93305D01*
X94364Y93193D01*
X94346Y93076D01*
X94347Y92958D01*
X94367Y92842D01*
X94404Y92731D01*
X94459Y92626D01*
X94529Y92531D01*
X94613Y92449D01*
X94709Y92381D01*
X94814Y92328D01*
X95221Y92186D01*
X95641Y92083D01*
X96068Y92021D01*
X96499Y92000D01*
Y91000D01*
X96068Y90980D01*
X95641Y90918D01*
X95221Y90815D01*
X94814Y90673D01*
X94709Y90619D01*
X94613Y90551D01*
X94529Y90469D01*
X94459Y90374D01*
X94405Y90270D01*
X94368Y90158D01*
X94348Y90042D01*
X94347Y89925D01*
X94365Y89808D01*
X94400Y89696D01*
X94453Y89591D01*
X94521Y89495D01*
X94603Y89411D01*
X94698Y89341D01*
X94802Y89287D01*
X94914Y89250D01*
X95030Y89230D01*
X95147Y89229D01*
X95264Y89247D01*
X95376Y89282D01*
X95647Y89377D01*
X95927Y89445D01*
X96212Y89487D01*
X96499Y89500D01*
Y83500D01*
X96212Y83514D01*
X95927Y83556D01*
X95647Y83624D01*
X95376Y83719D01*
X95264Y83755D01*
X95147Y83773D01*
X95029Y83772D01*
X94913Y83752D01*
X94802Y83715D01*
X94697Y83660D01*
X94602Y83590D01*
X94520Y83506D01*
X94452Y83410D01*
X94399Y83305D01*
X94364Y83193D01*
X94346Y83076D01*
X94347Y82958D01*
X94367Y82842D01*
X94404Y82731D01*
X94459Y82626D01*
X94529Y82531D01*
X94613Y82449D01*
X94709Y82381D01*
X94814Y82328D01*
X95221Y82186D01*
X95641Y82083D01*
X96068Y82021D01*
X96499Y82000D01*
Y81000D01*
X96068Y80980D01*
X95641Y80918D01*
X95221Y80815D01*
X94814Y80673D01*
X94709Y80619D01*
X94613Y80551D01*
X94529Y80469D01*
X94459Y80374D01*
X94405Y80270D01*
X94368Y80158D01*
X94348Y80042D01*
X94347Y79925D01*
X94365Y79808D01*
X94400Y79696D01*
X94453Y79591D01*
X94521Y79495D01*
X94603Y79411D01*
X94698Y79341D01*
X94802Y79287D01*
X94914Y79250D01*
X95030Y79230D01*
X95147Y79229D01*
X95264Y79247D01*
X95376Y79282D01*
X95647Y79377D01*
X95927Y79445D01*
X96212Y79487D01*
X96499Y79500D01*
Y73500D01*
X96212Y73514D01*
X95927Y73556D01*
X95647Y73624D01*
X95376Y73719D01*
X95264Y73755D01*
X95147Y73773D01*
X95029Y73772D01*
X94913Y73752D01*
X94802Y73715D01*
X94697Y73660D01*
X94602Y73590D01*
X94520Y73506D01*
X94452Y73410D01*
X94399Y73305D01*
X94364Y73193D01*
X94346Y73076D01*
X94347Y72958D01*
X94367Y72842D01*
X94404Y72731D01*
X94459Y72626D01*
X94529Y72531D01*
X94613Y72449D01*
X94709Y72381D01*
X94814Y72328D01*
X95221Y72186D01*
X95641Y72083D01*
X96068Y72021D01*
X96499Y72000D01*
Y71000D01*
X96068Y70980D01*
X95641Y70918D01*
X95221Y70815D01*
X94814Y70673D01*
X94709Y70619D01*
X94613Y70551D01*
X94529Y70469D01*
X94459Y70374D01*
X94405Y70270D01*
X94368Y70158D01*
X94348Y70042D01*
X94347Y69925D01*
X94365Y69808D01*
X94400Y69696D01*
X94453Y69591D01*
X94521Y69495D01*
X94603Y69411D01*
X94698Y69341D01*
X94802Y69287D01*
X94914Y69250D01*
X95030Y69230D01*
X95147Y69229D01*
X95264Y69247D01*
X95376Y69282D01*
X95647Y69377D01*
X95927Y69445D01*
X96212Y69487D01*
X96499Y69500D01*
Y63500D01*
X96212Y63514D01*
X95927Y63556D01*
X95647Y63624D01*
X95376Y63719D01*
X95264Y63755D01*
X95147Y63773D01*
X95029Y63772D01*
X94913Y63752D01*
X94802Y63715D01*
X94697Y63660D01*
X94602Y63590D01*
X94520Y63506D01*
X94452Y63410D01*
X94399Y63305D01*
X94364Y63193D01*
X94346Y63076D01*
X94347Y62958D01*
X94367Y62842D01*
X94404Y62731D01*
X94459Y62626D01*
X94529Y62531D01*
X94613Y62449D01*
X94709Y62381D01*
X94814Y62328D01*
X95221Y62186D01*
X95641Y62083D01*
X96068Y62021D01*
X96499Y62000D01*
Y61000D01*
X96068Y60980D01*
X95641Y60918D01*
X95221Y60815D01*
X94814Y60673D01*
X94709Y60619D01*
X94613Y60551D01*
X94529Y60469D01*
X94459Y60374D01*
X94405Y60270D01*
X94368Y60158D01*
X94348Y60042D01*
X94347Y59925D01*
X94365Y59808D01*
X94400Y59696D01*
X94453Y59591D01*
X94521Y59495D01*
X94603Y59411D01*
X94698Y59341D01*
X94802Y59287D01*
X94914Y59250D01*
X95030Y59230D01*
X95147Y59229D01*
X95264Y59247D01*
X95376Y59282D01*
X95647Y59377D01*
X95927Y59445D01*
X96212Y59487D01*
X96499Y59500D01*
Y53500D01*
X96212Y53514D01*
X95927Y53556D01*
X95647Y53624D01*
X95376Y53719D01*
X95264Y53755D01*
X95147Y53773D01*
X95029Y53772D01*
X94913Y53752D01*
X94802Y53715D01*
X94697Y53660D01*
X94602Y53590D01*
X94520Y53506D01*
X94452Y53410D01*
X94399Y53305D01*
X94364Y53193D01*
X94346Y53076D01*
X94347Y52958D01*
X94367Y52842D01*
X94404Y52731D01*
X94459Y52626D01*
X94529Y52531D01*
X94613Y52449D01*
X94709Y52381D01*
X94814Y52328D01*
X95221Y52186D01*
X95641Y52083D01*
X96068Y52021D01*
X96499Y52000D01*
Y51000D01*
X96068Y50980D01*
X95641Y50918D01*
X95221Y50815D01*
X94814Y50673D01*
X94709Y50619D01*
X94613Y50551D01*
X94529Y50469D01*
X94459Y50374D01*
X94405Y50270D01*
X94368Y50158D01*
X94348Y50042D01*
X94347Y49925D01*
X94365Y49808D01*
X94400Y49696D01*
X94453Y49591D01*
X94521Y49495D01*
X94603Y49411D01*
X94698Y49341D01*
X94802Y49287D01*
X94914Y49250D01*
X95030Y49230D01*
X95147Y49229D01*
X95264Y49247D01*
X95376Y49282D01*
X95647Y49377D01*
X95927Y49445D01*
X96212Y49487D01*
X96499Y49500D01*
Y43500D01*
X96212Y43514D01*
X95927Y43556D01*
X95647Y43624D01*
X95376Y43719D01*
X95264Y43755D01*
X95147Y43773D01*
X95029Y43772D01*
X94913Y43752D01*
X94802Y43715D01*
X94697Y43660D01*
X94602Y43590D01*
X94520Y43506D01*
X94452Y43410D01*
X94399Y43305D01*
X94364Y43193D01*
X94346Y43076D01*
X94347Y42958D01*
X94367Y42842D01*
X94404Y42731D01*
X94459Y42626D01*
X94529Y42531D01*
X94613Y42449D01*
X94709Y42381D01*
X94814Y42328D01*
X95221Y42186D01*
X95641Y42083D01*
X96068Y42021D01*
X96499Y42000D01*
Y41000D01*
X96068Y40980D01*
X95641Y40918D01*
X95221Y40815D01*
X94814Y40673D01*
X94709Y40619D01*
X94613Y40551D01*
X94529Y40469D01*
X94459Y40374D01*
X94405Y40270D01*
X94368Y40158D01*
X94348Y40042D01*
X94347Y39925D01*
X94365Y39808D01*
X94400Y39696D01*
X94453Y39591D01*
X94521Y39495D01*
X94603Y39411D01*
X94698Y39341D01*
X94802Y39287D01*
X94914Y39250D01*
X95030Y39230D01*
X95147Y39229D01*
X95264Y39247D01*
X95376Y39282D01*
X95647Y39377D01*
X95927Y39445D01*
X96212Y39487D01*
X96499Y39500D01*
Y33500D01*
X96212Y33514D01*
X95927Y33556D01*
X95647Y33624D01*
X95376Y33719D01*
X95264Y33755D01*
X95147Y33773D01*
X95029Y33772D01*
X94913Y33752D01*
X94802Y33715D01*
X94697Y33660D01*
X94602Y33590D01*
X94520Y33506D01*
X94452Y33410D01*
X94399Y33305D01*
X94364Y33193D01*
X94346Y33076D01*
X94347Y32958D01*
X94367Y32842D01*
X94404Y32731D01*
X94459Y32626D01*
X94529Y32531D01*
X94613Y32449D01*
X94709Y32381D01*
X94814Y32328D01*
X95221Y32186D01*
X95641Y32083D01*
X96068Y32021D01*
X96499Y32000D01*
Y31000D01*
X96068Y30980D01*
X95641Y30918D01*
X95221Y30815D01*
X94814Y30673D01*
X94709Y30619D01*
X94613Y30551D01*
X94529Y30469D01*
X94459Y30374D01*
X94405Y30270D01*
X94368Y30158D01*
X94348Y30042D01*
X94347Y29925D01*
X94365Y29808D01*
X94400Y29696D01*
X94453Y29591D01*
X94521Y29495D01*
X94603Y29411D01*
X94698Y29341D01*
X94802Y29287D01*
X94914Y29250D01*
X95030Y29230D01*
X95147Y29229D01*
X95264Y29247D01*
X95376Y29282D01*
X95647Y29377D01*
X95927Y29445D01*
X96212Y29487D01*
X96499Y29500D01*
Y23500D01*
X96212Y23514D01*
X95927Y23556D01*
X95647Y23624D01*
X95376Y23719D01*
X95264Y23755D01*
X95147Y23773D01*
X95029Y23772D01*
X94913Y23752D01*
X94802Y23715D01*
X94697Y23660D01*
X94602Y23590D01*
X94520Y23506D01*
X94452Y23410D01*
X94399Y23305D01*
X94364Y23193D01*
X94346Y23076D01*
X94347Y22958D01*
X94367Y22842D01*
X94404Y22731D01*
X94459Y22626D01*
X94529Y22531D01*
X94613Y22449D01*
X94709Y22381D01*
X94814Y22328D01*
X95221Y22186D01*
X95641Y22083D01*
X96068Y22021D01*
X96499Y22000D01*
Y21000D01*
X96068Y20980D01*
X95641Y20918D01*
X95221Y20815D01*
X94814Y20673D01*
X94709Y20619D01*
X94613Y20551D01*
X94529Y20469D01*
X94459Y20374D01*
X94405Y20270D01*
X94368Y20158D01*
X94348Y20042D01*
X94347Y19925D01*
X94365Y19808D01*
X94400Y19696D01*
X94453Y19591D01*
X94521Y19495D01*
X94603Y19411D01*
X94698Y19341D01*
X94802Y19287D01*
X94914Y19250D01*
X95030Y19230D01*
X95147Y19229D01*
X95264Y19247D01*
X95376Y19282D01*
X95647Y19377D01*
X95927Y19445D01*
X96212Y19487D01*
X96499Y19500D01*
Y13500D01*
X96212Y13514D01*
X95927Y13556D01*
X95647Y13624D01*
X95376Y13719D01*
X95264Y13755D01*
X95147Y13773D01*
X95029Y13772D01*
X94913Y13752D01*
X94802Y13715D01*
X94697Y13660D01*
X94602Y13590D01*
X94520Y13506D01*
X94452Y13410D01*
X94399Y13305D01*
X94364Y13193D01*
X94346Y13076D01*
X94347Y12958D01*
X94367Y12842D01*
X94404Y12731D01*
X94459Y12626D01*
X94529Y12531D01*
X94613Y12449D01*
X94709Y12381D01*
X94814Y12328D01*
X95221Y12186D01*
X95641Y12083D01*
X96068Y12021D01*
X96499Y12000D01*
Y1601D01*
X92886D01*
Y14361D01*
X92958Y14349D01*
X93075Y14348D01*
X93192Y14366D01*
X93304Y14401D01*
X93409Y14454D01*
X93505Y14522D01*
X93589Y14604D01*
X93659Y14699D01*
X93713Y14803D01*
X93750Y14915D01*
X93770Y15031D01*
X93771Y15148D01*
X93753Y15265D01*
X93718Y15377D01*
X93623Y15648D01*
X93555Y15928D01*
X93513Y16213D01*
X93500Y16500D01*
X93513Y16788D01*
X93555Y17073D01*
X93623Y17353D01*
X93718Y17624D01*
X93754Y17736D01*
X93772Y17853D01*
X93771Y17971D01*
X93751Y18087D01*
X93714Y18198D01*
X93659Y18303D01*
X93589Y18398D01*
X93505Y18480D01*
X93409Y18548D01*
X93304Y18601D01*
X93192Y18636D01*
X93075Y18654D01*
X92957Y18653D01*
X92886Y18641D01*
Y24361D01*
X92958Y24349D01*
X93075Y24348D01*
X93192Y24366D01*
X93304Y24401D01*
X93409Y24454D01*
X93505Y24522D01*
X93589Y24604D01*
X93659Y24699D01*
X93713Y24803D01*
X93750Y24915D01*
X93770Y25031D01*
X93771Y25148D01*
X93753Y25265D01*
X93718Y25377D01*
X93623Y25648D01*
X93555Y25928D01*
X93513Y26213D01*
X93500Y26500D01*
X93513Y26788D01*
X93555Y27073D01*
X93623Y27353D01*
X93718Y27624D01*
X93754Y27736D01*
X93772Y27853D01*
X93771Y27971D01*
X93751Y28087D01*
X93714Y28198D01*
X93659Y28303D01*
X93589Y28398D01*
X93505Y28480D01*
X93409Y28548D01*
X93304Y28601D01*
X93192Y28636D01*
X93075Y28654D01*
X92957Y28653D01*
X92886Y28641D01*
Y34361D01*
X92958Y34349D01*
X93075Y34348D01*
X93192Y34366D01*
X93304Y34401D01*
X93409Y34454D01*
X93505Y34522D01*
X93589Y34604D01*
X93659Y34699D01*
X93713Y34803D01*
X93750Y34915D01*
X93770Y35031D01*
X93771Y35148D01*
X93753Y35265D01*
X93718Y35377D01*
X93623Y35648D01*
X93555Y35928D01*
X93513Y36213D01*
X93500Y36500D01*
X93513Y36788D01*
X93555Y37073D01*
X93623Y37353D01*
X93718Y37624D01*
X93754Y37736D01*
X93772Y37853D01*
X93771Y37971D01*
X93751Y38087D01*
X93714Y38198D01*
X93659Y38303D01*
X93589Y38398D01*
X93505Y38480D01*
X93409Y38548D01*
X93304Y38601D01*
X93192Y38636D01*
X93075Y38654D01*
X92957Y38653D01*
X92886Y38641D01*
Y44361D01*
X92958Y44349D01*
X93075Y44348D01*
X93192Y44366D01*
X93304Y44401D01*
X93409Y44454D01*
X93505Y44522D01*
X93589Y44604D01*
X93659Y44699D01*
X93713Y44803D01*
X93750Y44915D01*
X93770Y45031D01*
X93771Y45148D01*
X93753Y45265D01*
X93718Y45377D01*
X93623Y45648D01*
X93555Y45928D01*
X93513Y46213D01*
X93500Y46500D01*
X93513Y46788D01*
X93555Y47073D01*
X93623Y47353D01*
X93718Y47624D01*
X93754Y47736D01*
X93772Y47853D01*
X93771Y47971D01*
X93751Y48087D01*
X93714Y48198D01*
X93659Y48303D01*
X93589Y48398D01*
X93505Y48480D01*
X93409Y48548D01*
X93304Y48601D01*
X93192Y48636D01*
X93075Y48654D01*
X92957Y48653D01*
X92886Y48641D01*
Y54361D01*
X92958Y54349D01*
X93075Y54348D01*
X93192Y54366D01*
X93304Y54401D01*
X93409Y54454D01*
X93505Y54522D01*
X93589Y54604D01*
X93659Y54699D01*
X93713Y54803D01*
X93750Y54915D01*
X93770Y55031D01*
X93771Y55148D01*
X93753Y55265D01*
X93718Y55377D01*
X93623Y55648D01*
X93555Y55928D01*
X93513Y56213D01*
X93500Y56500D01*
X93513Y56788D01*
X93555Y57073D01*
X93623Y57353D01*
X93718Y57624D01*
X93754Y57736D01*
X93772Y57853D01*
X93771Y57971D01*
X93751Y58087D01*
X93714Y58198D01*
X93659Y58303D01*
X93589Y58398D01*
X93505Y58480D01*
X93409Y58548D01*
X93304Y58601D01*
X93192Y58636D01*
X93075Y58654D01*
X92957Y58653D01*
X92886Y58641D01*
Y64361D01*
X92958Y64349D01*
X93075Y64348D01*
X93192Y64366D01*
X93304Y64401D01*
X93409Y64454D01*
X93505Y64522D01*
X93589Y64604D01*
X93659Y64699D01*
X93713Y64803D01*
X93750Y64915D01*
X93770Y65031D01*
X93771Y65148D01*
X93753Y65265D01*
X93718Y65377D01*
X93623Y65648D01*
X93555Y65928D01*
X93513Y66213D01*
X93500Y66500D01*
X93513Y66788D01*
X93555Y67073D01*
X93623Y67353D01*
X93718Y67624D01*
X93754Y67736D01*
X93772Y67853D01*
X93771Y67971D01*
X93751Y68087D01*
X93714Y68198D01*
X93659Y68303D01*
X93589Y68398D01*
X93505Y68480D01*
X93409Y68548D01*
X93304Y68601D01*
X93192Y68636D01*
X93075Y68654D01*
X92957Y68653D01*
X92886Y68641D01*
Y74361D01*
X92958Y74349D01*
X93075Y74348D01*
X93192Y74366D01*
X93304Y74401D01*
X93409Y74454D01*
X93505Y74522D01*
X93589Y74604D01*
X93659Y74699D01*
X93713Y74803D01*
X93750Y74915D01*
X93770Y75031D01*
X93771Y75148D01*
X93753Y75265D01*
X93718Y75377D01*
X93623Y75648D01*
X93555Y75928D01*
X93513Y76213D01*
X93500Y76500D01*
X93513Y76788D01*
X93555Y77073D01*
X93623Y77353D01*
X93718Y77624D01*
X93754Y77736D01*
X93772Y77853D01*
X93771Y77971D01*
X93751Y78087D01*
X93714Y78198D01*
X93659Y78303D01*
X93589Y78398D01*
X93505Y78480D01*
X93409Y78548D01*
X93304Y78601D01*
X93192Y78636D01*
X93075Y78654D01*
X92957Y78653D01*
X92886Y78641D01*
Y84361D01*
X92958Y84349D01*
X93075Y84348D01*
X93192Y84366D01*
X93304Y84401D01*
X93409Y84454D01*
X93505Y84522D01*
X93589Y84604D01*
X93659Y84699D01*
X93713Y84803D01*
X93750Y84915D01*
X93770Y85031D01*
X93771Y85148D01*
X93753Y85265D01*
X93718Y85377D01*
X93623Y85648D01*
X93555Y85928D01*
X93513Y86213D01*
X93500Y86500D01*
X93513Y86788D01*
X93555Y87073D01*
X93623Y87353D01*
X93718Y87624D01*
X93754Y87736D01*
X93772Y87853D01*
X93771Y87971D01*
X93751Y88087D01*
X93714Y88198D01*
X93659Y88303D01*
X93589Y88398D01*
X93505Y88480D01*
X93409Y88548D01*
X93304Y88601D01*
X93192Y88636D01*
X93075Y88654D01*
X92957Y88653D01*
X92886Y88641D01*
Y94361D01*
X92958Y94349D01*
X93075Y94348D01*
X93192Y94366D01*
X93304Y94401D01*
X93409Y94454D01*
X93505Y94522D01*
X93589Y94604D01*
X93659Y94699D01*
X93713Y94803D01*
X93750Y94915D01*
X93770Y95031D01*
X93771Y95148D01*
X93753Y95265D01*
X93718Y95377D01*
X93623Y95648D01*
X93555Y95928D01*
X93513Y96213D01*
X93500Y96500D01*
X93513Y96788D01*
X93555Y97073D01*
X93623Y97353D01*
X93718Y97624D01*
X93754Y97736D01*
X93772Y97853D01*
X93771Y97971D01*
X93751Y98087D01*
X93714Y98198D01*
X93659Y98303D01*
X93589Y98398D01*
X93505Y98480D01*
X93409Y98548D01*
X93304Y98601D01*
X93192Y98636D01*
X93075Y98654D01*
X92957Y98653D01*
X92886Y98641D01*
Y104361D01*
X92958Y104349D01*
X93075Y104348D01*
X93192Y104366D01*
X93304Y104401D01*
X93409Y104454D01*
X93505Y104522D01*
X93589Y104604D01*
X93659Y104699D01*
X93713Y104803D01*
X93750Y104915D01*
X93770Y105031D01*
X93771Y105148D01*
X93753Y105265D01*
X93718Y105377D01*
X93623Y105648D01*
X93555Y105928D01*
X93513Y106213D01*
X93500Y106500D01*
X93513Y106788D01*
X93555Y107073D01*
X93623Y107353D01*
X93718Y107624D01*
X93754Y107736D01*
X93772Y107853D01*
X93771Y107971D01*
X93751Y108087D01*
X93714Y108198D01*
X93659Y108303D01*
X93589Y108398D01*
X93505Y108480D01*
X93409Y108548D01*
X93304Y108601D01*
X93192Y108636D01*
X93075Y108654D01*
X92957Y108653D01*
X92886Y108641D01*
Y114361D01*
X92958Y114349D01*
X93075Y114348D01*
X93192Y114366D01*
X93304Y114401D01*
X93409Y114454D01*
X93505Y114522D01*
X93589Y114604D01*
X93659Y114699D01*
X93713Y114803D01*
X93750Y114915D01*
X93770Y115031D01*
X93771Y115148D01*
X93753Y115265D01*
X93718Y115377D01*
X93623Y115648D01*
X93555Y115928D01*
X93513Y116213D01*
X93500Y116500D01*
X93513Y116788D01*
X93555Y117073D01*
X93623Y117353D01*
X93718Y117624D01*
X93754Y117736D01*
X93772Y117853D01*
X93771Y117971D01*
X93751Y118087D01*
X93714Y118198D01*
X93659Y118303D01*
X93589Y118398D01*
X93505Y118480D01*
X93409Y118548D01*
X93304Y118601D01*
X93192Y118636D01*
X93075Y118654D01*
X92957Y118653D01*
X92886Y118641D01*
Y124264D01*
X92982Y124287D01*
X93090Y124332D01*
X93191Y124393D01*
X93280Y124470D01*
X93357Y124559D01*
X93418Y124660D01*
X93463Y124768D01*
X93491Y124883D01*
X93500Y125000D01*
Y128000D01*
X93491Y128117D01*
X93463Y128232D01*
X93418Y128340D01*
X93357Y128441D01*
X93280Y128530D01*
X93191Y128607D01*
X93090Y128668D01*
X92982Y128713D01*
X92886Y128736D01*
Y141000D01*
G37*
G36*
X90114D02*X92886D01*
Y128736D01*
X92867Y128741D01*
X92750Y128750D01*
X92633Y128741D01*
X92518Y128713D01*
X92410Y128668D01*
X92309Y128607D01*
X92220Y128530D01*
X92143Y128441D01*
X92082Y128340D01*
X92037Y128232D01*
X92009Y128117D01*
X92000Y128000D01*
Y125000D01*
X92009Y124883D01*
X92037Y124768D01*
X92082Y124660D01*
X92143Y124559D01*
X92220Y124470D01*
X92309Y124393D01*
X92410Y124332D01*
X92518Y124287D01*
X92633Y124259D01*
X92750Y124250D01*
X92867Y124259D01*
X92886Y124264D01*
Y118641D01*
X92841Y118633D01*
X92730Y118596D01*
X92625Y118541D01*
X92530Y118471D01*
X92448Y118387D01*
X92380Y118291D01*
X92327Y118186D01*
X92185Y117779D01*
X92082Y117359D01*
X92020Y116932D01*
X92000Y116500D01*
X92020Y116069D01*
X92082Y115642D01*
X92185Y115222D01*
X92327Y114815D01*
X92381Y114710D01*
X92449Y114614D01*
X92531Y114530D01*
X92626Y114460D01*
X92730Y114406D01*
X92842Y114369D01*
X92886Y114361D01*
Y108641D01*
X92841Y108633D01*
X92730Y108596D01*
X92625Y108541D01*
X92530Y108471D01*
X92448Y108387D01*
X92380Y108291D01*
X92327Y108186D01*
X92185Y107779D01*
X92082Y107359D01*
X92020Y106932D01*
X92000Y106500D01*
X92020Y106069D01*
X92082Y105642D01*
X92185Y105222D01*
X92327Y104815D01*
X92381Y104710D01*
X92449Y104614D01*
X92531Y104530D01*
X92626Y104460D01*
X92730Y104406D01*
X92842Y104369D01*
X92886Y104361D01*
Y98641D01*
X92841Y98633D01*
X92730Y98596D01*
X92625Y98541D01*
X92530Y98471D01*
X92448Y98387D01*
X92380Y98291D01*
X92327Y98186D01*
X92185Y97779D01*
X92082Y97359D01*
X92020Y96932D01*
X92000Y96500D01*
X92020Y96069D01*
X92082Y95642D01*
X92185Y95222D01*
X92327Y94815D01*
X92381Y94710D01*
X92449Y94614D01*
X92531Y94530D01*
X92626Y94460D01*
X92730Y94406D01*
X92842Y94369D01*
X92886Y94361D01*
Y88641D01*
X92841Y88633D01*
X92730Y88596D01*
X92625Y88541D01*
X92530Y88471D01*
X92448Y88387D01*
X92380Y88291D01*
X92327Y88186D01*
X92185Y87779D01*
X92082Y87359D01*
X92020Y86932D01*
X92000Y86500D01*
X92020Y86069D01*
X92082Y85642D01*
X92185Y85222D01*
X92327Y84815D01*
X92381Y84710D01*
X92449Y84614D01*
X92531Y84530D01*
X92626Y84460D01*
X92730Y84406D01*
X92842Y84369D01*
X92886Y84361D01*
Y78641D01*
X92841Y78633D01*
X92730Y78596D01*
X92625Y78541D01*
X92530Y78471D01*
X92448Y78387D01*
X92380Y78291D01*
X92327Y78186D01*
X92185Y77779D01*
X92082Y77359D01*
X92020Y76932D01*
X92000Y76500D01*
X92020Y76069D01*
X92082Y75642D01*
X92185Y75222D01*
X92327Y74815D01*
X92381Y74710D01*
X92449Y74614D01*
X92531Y74530D01*
X92626Y74460D01*
X92730Y74406D01*
X92842Y74369D01*
X92886Y74361D01*
Y68641D01*
X92841Y68633D01*
X92730Y68596D01*
X92625Y68541D01*
X92530Y68471D01*
X92448Y68387D01*
X92380Y68291D01*
X92327Y68186D01*
X92185Y67779D01*
X92082Y67359D01*
X92020Y66932D01*
X92000Y66500D01*
X92020Y66069D01*
X92082Y65642D01*
X92185Y65222D01*
X92327Y64815D01*
X92381Y64710D01*
X92449Y64614D01*
X92531Y64530D01*
X92626Y64460D01*
X92730Y64406D01*
X92842Y64369D01*
X92886Y64361D01*
Y58641D01*
X92841Y58633D01*
X92730Y58596D01*
X92625Y58541D01*
X92530Y58471D01*
X92448Y58387D01*
X92380Y58291D01*
X92327Y58186D01*
X92185Y57779D01*
X92082Y57359D01*
X92020Y56932D01*
X92000Y56500D01*
X92020Y56069D01*
X92082Y55642D01*
X92185Y55222D01*
X92327Y54815D01*
X92381Y54710D01*
X92449Y54614D01*
X92531Y54530D01*
X92626Y54460D01*
X92730Y54406D01*
X92842Y54369D01*
X92886Y54361D01*
Y48641D01*
X92841Y48633D01*
X92730Y48596D01*
X92625Y48541D01*
X92530Y48471D01*
X92448Y48387D01*
X92380Y48291D01*
X92327Y48186D01*
X92185Y47779D01*
X92082Y47359D01*
X92020Y46932D01*
X92000Y46500D01*
X92020Y46069D01*
X92082Y45642D01*
X92185Y45222D01*
X92327Y44815D01*
X92381Y44710D01*
X92449Y44614D01*
X92531Y44530D01*
X92626Y44460D01*
X92730Y44406D01*
X92842Y44369D01*
X92886Y44361D01*
Y38641D01*
X92841Y38633D01*
X92730Y38596D01*
X92625Y38541D01*
X92530Y38471D01*
X92448Y38387D01*
X92380Y38291D01*
X92327Y38186D01*
X92185Y37779D01*
X92082Y37359D01*
X92020Y36932D01*
X92000Y36500D01*
X92020Y36069D01*
X92082Y35642D01*
X92185Y35222D01*
X92327Y34815D01*
X92381Y34710D01*
X92449Y34614D01*
X92531Y34530D01*
X92626Y34460D01*
X92730Y34406D01*
X92842Y34369D01*
X92886Y34361D01*
Y28641D01*
X92841Y28633D01*
X92730Y28596D01*
X92625Y28541D01*
X92530Y28471D01*
X92448Y28387D01*
X92380Y28291D01*
X92327Y28186D01*
X92185Y27779D01*
X92082Y27359D01*
X92020Y26932D01*
X92000Y26500D01*
X92020Y26069D01*
X92082Y25642D01*
X92185Y25222D01*
X92327Y24815D01*
X92381Y24710D01*
X92449Y24614D01*
X92531Y24530D01*
X92626Y24460D01*
X92730Y24406D01*
X92842Y24369D01*
X92886Y24361D01*
Y18641D01*
X92841Y18633D01*
X92730Y18596D01*
X92625Y18541D01*
X92530Y18471D01*
X92448Y18387D01*
X92380Y18291D01*
X92327Y18186D01*
X92185Y17779D01*
X92082Y17359D01*
X92020Y16932D01*
X92000Y16500D01*
X92020Y16069D01*
X92082Y15642D01*
X92185Y15222D01*
X92327Y14815D01*
X92381Y14710D01*
X92449Y14614D01*
X92531Y14530D01*
X92626Y14460D01*
X92730Y14406D01*
X92842Y14369D01*
X92886Y14361D01*
Y1601D01*
X90114D01*
Y134360D01*
X90158Y134368D01*
X90269Y134405D01*
X90374Y134460D01*
X90469Y134530D01*
X90551Y134614D01*
X90619Y134710D01*
X90672Y134815D01*
X90814Y135222D01*
X90917Y135642D01*
X90979Y136069D01*
X91000Y136500D01*
X90979Y136932D01*
X90917Y137359D01*
X90814Y137779D01*
X90672Y138186D01*
X90618Y138291D01*
X90550Y138387D01*
X90468Y138471D01*
X90373Y138541D01*
X90269Y138595D01*
X90157Y138632D01*
X90114Y138639D01*
Y141000D01*
G37*
G36*
X86499Y139500D02*X86500D01*
X86787Y139487D01*
X87072Y139445D01*
X87352Y139377D01*
X87623Y139282D01*
X87735Y139246D01*
X87852Y139228D01*
X87970Y139229D01*
X88086Y139249D01*
X88197Y139286D01*
X88302Y139341D01*
X88397Y139411D01*
X88479Y139495D01*
X88547Y139591D01*
X88600Y139696D01*
X88635Y139808D01*
X88653Y139925D01*
X88652Y140043D01*
X88632Y140159D01*
X88595Y140270D01*
X88540Y140375D01*
X88470Y140470D01*
X88386Y140552D01*
X88290Y140620D01*
X88185Y140673D01*
X87778Y140815D01*
X87358Y140918D01*
X86931Y140980D01*
X86500Y141000D01*
X90114D01*
Y138639D01*
X90041Y138652D01*
X89924Y138653D01*
X89807Y138635D01*
X89695Y138600D01*
X89590Y138547D01*
X89494Y138479D01*
X89410Y138397D01*
X89340Y138302D01*
X89286Y138198D01*
X89249Y138086D01*
X89229Y137970D01*
X89228Y137853D01*
X89246Y137736D01*
X89281Y137624D01*
X89376Y137353D01*
X89444Y137073D01*
X89486Y136788D01*
X89500Y136500D01*
X89486Y136213D01*
X89444Y135928D01*
X89376Y135648D01*
X89281Y135377D01*
X89245Y135265D01*
X89227Y135148D01*
X89228Y135030D01*
X89248Y134914D01*
X89285Y134803D01*
X89340Y134698D01*
X89410Y134603D01*
X89494Y134521D01*
X89590Y134453D01*
X89695Y134400D01*
X89807Y134365D01*
X89924Y134347D01*
X90042Y134348D01*
X90114Y134360D01*
Y1601D01*
X86499D01*
Y132000D01*
X86500D01*
X86931Y132021D01*
X87358Y132083D01*
X87778Y132186D01*
X88185Y132328D01*
X88290Y132382D01*
X88386Y132450D01*
X88470Y132532D01*
X88540Y132627D01*
X88594Y132731D01*
X88631Y132843D01*
X88651Y132959D01*
X88652Y133076D01*
X88634Y133193D01*
X88599Y133305D01*
X88546Y133410D01*
X88478Y133506D01*
X88396Y133590D01*
X88301Y133660D01*
X88197Y133714D01*
X88085Y133751D01*
X87969Y133771D01*
X87852Y133772D01*
X87735Y133754D01*
X87623Y133719D01*
X87352Y133624D01*
X87072Y133556D01*
X86787Y133514D01*
X86500Y133500D01*
X86499D01*
Y139500D01*
G37*
G36*
X82886Y141000D02*X86499D01*
X86068Y140980D01*
X85641Y140918D01*
X85221Y140815D01*
X84814Y140673D01*
X84709Y140619D01*
X84613Y140551D01*
X84529Y140469D01*
X84459Y140374D01*
X84405Y140270D01*
X84368Y140158D01*
X84348Y140042D01*
X84347Y139925D01*
X84365Y139808D01*
X84400Y139696D01*
X84453Y139591D01*
X84521Y139495D01*
X84603Y139411D01*
X84698Y139341D01*
X84802Y139287D01*
X84914Y139250D01*
X85030Y139230D01*
X85147Y139229D01*
X85264Y139247D01*
X85376Y139282D01*
X85647Y139377D01*
X85927Y139445D01*
X86212Y139487D01*
X86499Y139500D01*
Y133500D01*
X86212Y133514D01*
X85927Y133556D01*
X85647Y133624D01*
X85376Y133719D01*
X85264Y133755D01*
X85147Y133773D01*
X85029Y133772D01*
X84913Y133752D01*
X84802Y133715D01*
X84697Y133660D01*
X84602Y133590D01*
X84520Y133506D01*
X84452Y133410D01*
X84399Y133305D01*
X84364Y133193D01*
X84346Y133076D01*
X84347Y132958D01*
X84367Y132842D01*
X84404Y132731D01*
X84459Y132626D01*
X84529Y132531D01*
X84613Y132449D01*
X84709Y132381D01*
X84814Y132328D01*
X85221Y132186D01*
X85641Y132083D01*
X86068Y132021D01*
X86499Y132000D01*
Y1601D01*
X82886D01*
Y134361D01*
X82958Y134349D01*
X83075Y134348D01*
X83192Y134366D01*
X83304Y134401D01*
X83409Y134454D01*
X83505Y134522D01*
X83589Y134604D01*
X83659Y134699D01*
X83713Y134803D01*
X83750Y134915D01*
X83770Y135031D01*
X83771Y135148D01*
X83753Y135265D01*
X83718Y135377D01*
X83623Y135648D01*
X83555Y135928D01*
X83513Y136213D01*
X83500Y136501D01*
X83513Y136788D01*
X83555Y137073D01*
X83623Y137353D01*
X83718Y137624D01*
X83754Y137736D01*
X83772Y137853D01*
X83771Y137971D01*
X83751Y138087D01*
X83714Y138198D01*
X83659Y138303D01*
X83589Y138398D01*
X83505Y138480D01*
X83409Y138548D01*
X83304Y138601D01*
X83192Y138636D01*
X83075Y138654D01*
X82957Y138653D01*
X82886Y138641D01*
Y141000D01*
G37*
G36*
X80114D02*X82886D01*
Y138641D01*
X82841Y138633D01*
X82730Y138596D01*
X82625Y138541D01*
X82530Y138471D01*
X82448Y138387D01*
X82380Y138291D01*
X82327Y138186D01*
X82185Y137779D01*
X82082Y137359D01*
X82020Y136932D01*
X82000Y136501D01*
X82020Y136069D01*
X82082Y135642D01*
X82185Y135222D01*
X82327Y134815D01*
X82381Y134710D01*
X82449Y134614D01*
X82531Y134530D01*
X82626Y134460D01*
X82730Y134406D01*
X82842Y134369D01*
X82886Y134361D01*
Y1601D01*
X80114D01*
Y3823D01*
X80141Y3855D01*
X80510Y4457D01*
X80780Y5109D01*
X80945Y5796D01*
X81000Y6500D01*
X80945Y7204D01*
X80780Y7891D01*
X80510Y8543D01*
X80141Y9145D01*
X80114Y9177D01*
Y134360D01*
X80158Y134368D01*
X80269Y134405D01*
X80374Y134460D01*
X80469Y134530D01*
X80551Y134614D01*
X80619Y134710D01*
X80672Y134815D01*
X80814Y135222D01*
X80917Y135642D01*
X80979Y136069D01*
X81000Y136500D01*
X80979Y136932D01*
X80917Y137359D01*
X80814Y137779D01*
X80672Y138186D01*
X80618Y138291D01*
X80550Y138387D01*
X80468Y138471D01*
X80373Y138541D01*
X80269Y138595D01*
X80157Y138632D01*
X80114Y138639D01*
Y141000D01*
G37*
G36*
Y1601D02*X76500D01*
Y2000D01*
X77204Y2055D01*
X77891Y2220D01*
X78543Y2490D01*
X79145Y2859D01*
X79682Y3318D01*
X80114Y3823D01*
Y1601D01*
G37*
G36*
X76500Y141000D02*X80114D01*
Y138639D01*
X80041Y138652D01*
X79924Y138653D01*
X79807Y138635D01*
X79695Y138600D01*
X79590Y138547D01*
X79494Y138479D01*
X79410Y138397D01*
X79340Y138302D01*
X79286Y138198D01*
X79249Y138086D01*
X79229Y137970D01*
X79228Y137853D01*
X79246Y137736D01*
X79281Y137624D01*
X79376Y137353D01*
X79444Y137073D01*
X79486Y136788D01*
X79500Y136500D01*
X79486Y136213D01*
X79444Y135928D01*
X79376Y135648D01*
X79281Y135377D01*
X79245Y135265D01*
X79227Y135148D01*
X79228Y135030D01*
X79248Y134914D01*
X79285Y134803D01*
X79340Y134698D01*
X79410Y134603D01*
X79494Y134521D01*
X79590Y134453D01*
X79695Y134400D01*
X79807Y134365D01*
X79924Y134347D01*
X80042Y134348D01*
X80114Y134360D01*
Y9177D01*
X79682Y9682D01*
X79145Y10141D01*
X78543Y10510D01*
X77891Y10780D01*
X77204Y10945D01*
X76500Y11000D01*
Y132000D01*
X76931Y132021D01*
X77358Y132083D01*
X77778Y132186D01*
X78185Y132328D01*
X78290Y132382D01*
X78386Y132450D01*
X78470Y132532D01*
X78540Y132627D01*
X78594Y132731D01*
X78631Y132843D01*
X78651Y132959D01*
X78652Y133076D01*
X78634Y133193D01*
X78599Y133305D01*
X78546Y133410D01*
X78478Y133506D01*
X78396Y133590D01*
X78301Y133660D01*
X78197Y133714D01*
X78085Y133751D01*
X77969Y133771D01*
X77852Y133772D01*
X77735Y133754D01*
X77623Y133719D01*
X77352Y133624D01*
X77072Y133556D01*
X76787Y133514D01*
X76500Y133500D01*
Y139500D01*
X76787Y139487D01*
X77072Y139445D01*
X77352Y139377D01*
X77623Y139282D01*
X77735Y139246D01*
X77852Y139228D01*
X77970Y139229D01*
X78086Y139249D01*
X78197Y139286D01*
X78302Y139341D01*
X78397Y139411D01*
X78479Y139495D01*
X78547Y139591D01*
X78600Y139696D01*
X78635Y139808D01*
X78653Y139925D01*
X78652Y140043D01*
X78632Y140159D01*
X78595Y140270D01*
X78540Y140375D01*
X78470Y140470D01*
X78386Y140552D01*
X78290Y140620D01*
X78185Y140673D01*
X77778Y140815D01*
X77358Y140918D01*
X76931Y140980D01*
X76500Y141000D01*
G37*
G36*
X72886Y3823D02*X73318Y3318D01*
X73855Y2859D01*
X74457Y2490D01*
X75109Y2220D01*
X75796Y2055D01*
X76500Y2000D01*
Y1601D01*
X72886D01*
Y3823D01*
G37*
G36*
Y141000D02*X76500D01*
X76068Y140980D01*
X75641Y140918D01*
X75221Y140815D01*
X74814Y140673D01*
X74709Y140619D01*
X74613Y140551D01*
X74529Y140469D01*
X74459Y140374D01*
X74405Y140270D01*
X74368Y140158D01*
X74348Y140042D01*
X74347Y139925D01*
X74365Y139808D01*
X74400Y139696D01*
X74453Y139591D01*
X74521Y139495D01*
X74603Y139411D01*
X74698Y139341D01*
X74802Y139287D01*
X74914Y139250D01*
X75030Y139230D01*
X75147Y139229D01*
X75264Y139247D01*
X75376Y139282D01*
X75647Y139377D01*
X75927Y139445D01*
X76212Y139487D01*
X76500Y139500D01*
Y133500D01*
X76212Y133514D01*
X75927Y133556D01*
X75647Y133624D01*
X75376Y133719D01*
X75264Y133755D01*
X75147Y133773D01*
X75029Y133772D01*
X74913Y133752D01*
X74802Y133715D01*
X74697Y133660D01*
X74602Y133590D01*
X74520Y133506D01*
X74452Y133410D01*
X74399Y133305D01*
X74364Y133193D01*
X74346Y133076D01*
X74347Y132958D01*
X74367Y132842D01*
X74404Y132731D01*
X74459Y132626D01*
X74529Y132531D01*
X74613Y132449D01*
X74709Y132381D01*
X74814Y132328D01*
X75221Y132186D01*
X75641Y132083D01*
X76068Y132021D01*
X76500Y132000D01*
Y11000D01*
X75796Y10945D01*
X75109Y10780D01*
X74457Y10510D01*
X73855Y10141D01*
X73318Y9682D01*
X72886Y9177D01*
Y134361D01*
X72958Y134349D01*
X73075Y134348D01*
X73192Y134366D01*
X73304Y134401D01*
X73409Y134454D01*
X73505Y134522D01*
X73589Y134604D01*
X73659Y134699D01*
X73713Y134803D01*
X73750Y134915D01*
X73770Y135031D01*
X73771Y135148D01*
X73753Y135265D01*
X73718Y135377D01*
X73623Y135648D01*
X73555Y135928D01*
X73513Y136213D01*
X73500Y136501D01*
X73513Y136788D01*
X73555Y137073D01*
X73623Y137353D01*
X73718Y137624D01*
X73754Y137736D01*
X73772Y137853D01*
X73771Y137971D01*
X73751Y138087D01*
X73714Y138198D01*
X73659Y138303D01*
X73589Y138398D01*
X73505Y138480D01*
X73409Y138548D01*
X73304Y138601D01*
X73192Y138636D01*
X73075Y138654D01*
X72957Y138653D01*
X72886Y138641D01*
Y141000D01*
G37*
G36*
X70114D02*X72886D01*
Y138641D01*
X72841Y138633D01*
X72730Y138596D01*
X72625Y138541D01*
X72530Y138471D01*
X72448Y138387D01*
X72380Y138291D01*
X72327Y138186D01*
X72185Y137779D01*
X72082Y137359D01*
X72020Y136932D01*
X72000Y136501D01*
X72020Y136069D01*
X72082Y135642D01*
X72185Y135222D01*
X72327Y134815D01*
X72381Y134710D01*
X72449Y134614D01*
X72531Y134530D01*
X72626Y134460D01*
X72730Y134406D01*
X72842Y134369D01*
X72886Y134361D01*
Y9177D01*
X72859Y9145D01*
X72490Y8543D01*
X72220Y7891D01*
X72055Y7204D01*
X72000Y6500D01*
X72055Y5796D01*
X72220Y5109D01*
X72490Y4457D01*
X72859Y3855D01*
X72886Y3823D01*
Y1601D01*
X70114D01*
Y3823D01*
X70141Y3855D01*
X70510Y4457D01*
X70780Y5109D01*
X70945Y5796D01*
X71000Y6500D01*
X70945Y7204D01*
X70780Y7891D01*
X70510Y8543D01*
X70141Y9145D01*
X70114Y9177D01*
Y134360D01*
X70158Y134368D01*
X70269Y134405D01*
X70374Y134460D01*
X70469Y134530D01*
X70551Y134614D01*
X70619Y134710D01*
X70672Y134815D01*
X70814Y135222D01*
X70917Y135642D01*
X70979Y136069D01*
X71000Y136500D01*
X70979Y136932D01*
X70917Y137359D01*
X70814Y137779D01*
X70672Y138186D01*
X70618Y138291D01*
X70550Y138387D01*
X70468Y138471D01*
X70373Y138541D01*
X70269Y138595D01*
X70157Y138632D01*
X70114Y138639D01*
Y141000D01*
G37*
G36*
Y1601D02*X66500D01*
Y2000D01*
X67204Y2055D01*
X67891Y2220D01*
X68543Y2490D01*
X69145Y2859D01*
X69682Y3318D01*
X70114Y3823D01*
Y1601D01*
G37*
G36*
X66500Y141000D02*X70114D01*
Y138639D01*
X70041Y138652D01*
X69924Y138653D01*
X69807Y138635D01*
X69695Y138600D01*
X69590Y138547D01*
X69494Y138479D01*
X69410Y138397D01*
X69340Y138302D01*
X69286Y138198D01*
X69249Y138086D01*
X69229Y137970D01*
X69228Y137853D01*
X69246Y137736D01*
X69281Y137624D01*
X69376Y137353D01*
X69444Y137073D01*
X69486Y136788D01*
X69500Y136500D01*
X69486Y136213D01*
X69444Y135928D01*
X69376Y135648D01*
X69281Y135377D01*
X69245Y135265D01*
X69227Y135148D01*
X69228Y135030D01*
X69248Y134914D01*
X69285Y134803D01*
X69340Y134698D01*
X69410Y134603D01*
X69494Y134521D01*
X69590Y134453D01*
X69695Y134400D01*
X69807Y134365D01*
X69924Y134347D01*
X70042Y134348D01*
X70114Y134360D01*
Y9177D01*
X69682Y9682D01*
X69145Y10141D01*
X68543Y10510D01*
X67891Y10780D01*
X67204Y10945D01*
X66500Y11000D01*
Y132000D01*
X66931Y132021D01*
X67358Y132083D01*
X67778Y132186D01*
X68185Y132328D01*
X68290Y132382D01*
X68386Y132450D01*
X68470Y132532D01*
X68540Y132627D01*
X68594Y132731D01*
X68631Y132843D01*
X68651Y132959D01*
X68652Y133076D01*
X68634Y133193D01*
X68599Y133305D01*
X68546Y133410D01*
X68478Y133506D01*
X68396Y133590D01*
X68301Y133660D01*
X68197Y133714D01*
X68085Y133751D01*
X67969Y133771D01*
X67852Y133772D01*
X67735Y133754D01*
X67623Y133719D01*
X67352Y133624D01*
X67072Y133556D01*
X66787Y133514D01*
X66500Y133500D01*
Y139500D01*
X66787Y139487D01*
X67072Y139445D01*
X67352Y139377D01*
X67623Y139282D01*
X67735Y139246D01*
X67852Y139228D01*
X67970Y139229D01*
X68086Y139249D01*
X68197Y139286D01*
X68302Y139341D01*
X68397Y139411D01*
X68479Y139495D01*
X68547Y139591D01*
X68600Y139696D01*
X68635Y139808D01*
X68653Y139925D01*
X68652Y140043D01*
X68632Y140159D01*
X68595Y140270D01*
X68540Y140375D01*
X68470Y140470D01*
X68386Y140552D01*
X68290Y140620D01*
X68185Y140673D01*
X67778Y140815D01*
X67358Y140918D01*
X66931Y140980D01*
X66500Y141000D01*
G37*
G36*
X62886Y3823D02*X63318Y3318D01*
X63855Y2859D01*
X64457Y2490D01*
X65109Y2220D01*
X65796Y2055D01*
X66500Y2000D01*
Y1601D01*
X62886D01*
Y3823D01*
G37*
G36*
Y141000D02*X66500D01*
X66068Y140980D01*
X65641Y140918D01*
X65221Y140815D01*
X64814Y140673D01*
X64709Y140619D01*
X64613Y140551D01*
X64529Y140469D01*
X64459Y140374D01*
X64405Y140270D01*
X64368Y140158D01*
X64348Y140042D01*
X64347Y139925D01*
X64365Y139808D01*
X64400Y139696D01*
X64453Y139591D01*
X64521Y139495D01*
X64603Y139411D01*
X64698Y139341D01*
X64802Y139287D01*
X64914Y139250D01*
X65030Y139230D01*
X65147Y139229D01*
X65264Y139247D01*
X65376Y139282D01*
X65647Y139377D01*
X65927Y139445D01*
X66212Y139487D01*
X66500Y139500D01*
Y133500D01*
X66212Y133514D01*
X65927Y133556D01*
X65647Y133624D01*
X65376Y133719D01*
X65264Y133755D01*
X65147Y133773D01*
X65029Y133772D01*
X64913Y133752D01*
X64802Y133715D01*
X64697Y133660D01*
X64602Y133590D01*
X64520Y133506D01*
X64452Y133410D01*
X64399Y133305D01*
X64364Y133193D01*
X64346Y133076D01*
X64347Y132958D01*
X64367Y132842D01*
X64404Y132731D01*
X64459Y132626D01*
X64529Y132531D01*
X64613Y132449D01*
X64709Y132381D01*
X64814Y132328D01*
X65221Y132186D01*
X65641Y132083D01*
X66068Y132021D01*
X66500Y132000D01*
Y11000D01*
X65796Y10945D01*
X65109Y10780D01*
X64457Y10510D01*
X63855Y10141D01*
X63318Y9682D01*
X62886Y9177D01*
Y134361D01*
X62958Y134349D01*
X63075Y134348D01*
X63192Y134366D01*
X63304Y134401D01*
X63409Y134454D01*
X63505Y134522D01*
X63589Y134604D01*
X63659Y134699D01*
X63713Y134803D01*
X63750Y134915D01*
X63770Y135031D01*
X63771Y135148D01*
X63753Y135265D01*
X63718Y135377D01*
X63623Y135648D01*
X63555Y135928D01*
X63513Y136213D01*
X63500Y136501D01*
X63513Y136788D01*
X63555Y137073D01*
X63623Y137353D01*
X63718Y137624D01*
X63754Y137736D01*
X63772Y137853D01*
X63771Y137971D01*
X63751Y138087D01*
X63714Y138198D01*
X63659Y138303D01*
X63589Y138398D01*
X63505Y138480D01*
X63409Y138548D01*
X63304Y138601D01*
X63192Y138636D01*
X63075Y138654D01*
X62957Y138653D01*
X62886Y138641D01*
Y141000D01*
G37*
G36*
X60114D02*X62886D01*
Y138641D01*
X62841Y138633D01*
X62730Y138596D01*
X62625Y138541D01*
X62530Y138471D01*
X62448Y138387D01*
X62380Y138291D01*
X62327Y138186D01*
X62185Y137779D01*
X62082Y137359D01*
X62020Y136932D01*
X62000Y136501D01*
X62020Y136069D01*
X62082Y135642D01*
X62185Y135222D01*
X62327Y134815D01*
X62381Y134710D01*
X62449Y134614D01*
X62531Y134530D01*
X62626Y134460D01*
X62730Y134406D01*
X62842Y134369D01*
X62886Y134361D01*
Y9177D01*
X62859Y9145D01*
X62490Y8543D01*
X62220Y7891D01*
X62055Y7204D01*
X62000Y6500D01*
X62055Y5796D01*
X62220Y5109D01*
X62490Y4457D01*
X62859Y3855D01*
X62886Y3823D01*
Y1601D01*
X60114D01*
Y3823D01*
X60141Y3855D01*
X60510Y4457D01*
X60780Y5109D01*
X60945Y5796D01*
X61000Y6500D01*
X60945Y7204D01*
X60780Y7891D01*
X60510Y8543D01*
X60141Y9145D01*
X60114Y9177D01*
Y134360D01*
X60158Y134368D01*
X60269Y134405D01*
X60374Y134460D01*
X60469Y134530D01*
X60551Y134614D01*
X60619Y134710D01*
X60672Y134815D01*
X60814Y135222D01*
X60917Y135642D01*
X60979Y136069D01*
X61000Y136500D01*
X60979Y136932D01*
X60917Y137359D01*
X60814Y137779D01*
X60672Y138186D01*
X60618Y138291D01*
X60550Y138387D01*
X60468Y138471D01*
X60373Y138541D01*
X60269Y138595D01*
X60157Y138632D01*
X60114Y138639D01*
Y141000D01*
G37*
G36*
Y1601D02*X56500D01*
Y2000D01*
X57204Y2055D01*
X57891Y2220D01*
X58543Y2490D01*
X59145Y2859D01*
X59682Y3318D01*
X60114Y3823D01*
Y1601D01*
G37*
G36*
X56500Y141000D02*X60114D01*
Y138639D01*
X60041Y138652D01*
X59924Y138653D01*
X59807Y138635D01*
X59695Y138600D01*
X59590Y138547D01*
X59494Y138479D01*
X59410Y138397D01*
X59340Y138302D01*
X59286Y138198D01*
X59249Y138086D01*
X59229Y137970D01*
X59228Y137853D01*
X59246Y137736D01*
X59281Y137624D01*
X59376Y137353D01*
X59444Y137073D01*
X59486Y136788D01*
X59500Y136500D01*
X59486Y136213D01*
X59444Y135928D01*
X59376Y135648D01*
X59281Y135377D01*
X59245Y135265D01*
X59227Y135148D01*
X59228Y135030D01*
X59248Y134914D01*
X59285Y134803D01*
X59340Y134698D01*
X59410Y134603D01*
X59494Y134521D01*
X59590Y134453D01*
X59695Y134400D01*
X59807Y134365D01*
X59924Y134347D01*
X60042Y134348D01*
X60114Y134360D01*
Y9177D01*
X59682Y9682D01*
X59145Y10141D01*
X58543Y10510D01*
X57891Y10780D01*
X57204Y10945D01*
X56500Y11000D01*
Y132000D01*
X56931Y132021D01*
X57358Y132083D01*
X57778Y132186D01*
X58185Y132328D01*
X58290Y132382D01*
X58386Y132450D01*
X58470Y132532D01*
X58540Y132627D01*
X58594Y132731D01*
X58631Y132843D01*
X58651Y132959D01*
X58652Y133076D01*
X58634Y133193D01*
X58599Y133305D01*
X58546Y133410D01*
X58478Y133506D01*
X58396Y133590D01*
X58301Y133660D01*
X58197Y133714D01*
X58085Y133751D01*
X57969Y133771D01*
X57852Y133772D01*
X57735Y133754D01*
X57623Y133719D01*
X57352Y133624D01*
X57072Y133556D01*
X56787Y133514D01*
X56500Y133500D01*
Y139500D01*
X56787Y139487D01*
X57072Y139445D01*
X57352Y139377D01*
X57623Y139282D01*
X57735Y139246D01*
X57852Y139228D01*
X57970Y139229D01*
X58086Y139249D01*
X58197Y139286D01*
X58302Y139341D01*
X58397Y139411D01*
X58479Y139495D01*
X58547Y139591D01*
X58600Y139696D01*
X58635Y139808D01*
X58653Y139925D01*
X58652Y140043D01*
X58632Y140159D01*
X58595Y140270D01*
X58540Y140375D01*
X58470Y140470D01*
X58386Y140552D01*
X58290Y140620D01*
X58185Y140673D01*
X57778Y140815D01*
X57358Y140918D01*
X56931Y140980D01*
X56500Y141000D01*
G37*
G36*
X52886Y3823D02*X53318Y3318D01*
X53855Y2859D01*
X54457Y2490D01*
X55109Y2220D01*
X55796Y2055D01*
X56500Y2000D01*
Y1601D01*
X52886D01*
Y3823D01*
G37*
G36*
Y141000D02*X56500D01*
X56068Y140980D01*
X55641Y140918D01*
X55221Y140815D01*
X54814Y140673D01*
X54709Y140619D01*
X54613Y140551D01*
X54529Y140469D01*
X54459Y140374D01*
X54405Y140270D01*
X54368Y140158D01*
X54348Y140042D01*
X54347Y139925D01*
X54365Y139808D01*
X54400Y139696D01*
X54453Y139591D01*
X54521Y139495D01*
X54603Y139411D01*
X54698Y139341D01*
X54802Y139287D01*
X54914Y139250D01*
X55030Y139230D01*
X55147Y139229D01*
X55264Y139247D01*
X55376Y139282D01*
X55647Y139377D01*
X55927Y139445D01*
X56212Y139487D01*
X56500Y139500D01*
Y133500D01*
X56212Y133514D01*
X55927Y133556D01*
X55647Y133624D01*
X55376Y133719D01*
X55264Y133755D01*
X55147Y133773D01*
X55029Y133772D01*
X54913Y133752D01*
X54802Y133715D01*
X54697Y133660D01*
X54602Y133590D01*
X54520Y133506D01*
X54452Y133410D01*
X54399Y133305D01*
X54364Y133193D01*
X54346Y133076D01*
X54347Y132958D01*
X54367Y132842D01*
X54404Y132731D01*
X54459Y132626D01*
X54529Y132531D01*
X54613Y132449D01*
X54709Y132381D01*
X54814Y132328D01*
X55221Y132186D01*
X55641Y132083D01*
X56068Y132021D01*
X56500Y132000D01*
Y11000D01*
X55796Y10945D01*
X55109Y10780D01*
X54457Y10510D01*
X53855Y10141D01*
X53318Y9682D01*
X52886Y9177D01*
Y134361D01*
X52958Y134349D01*
X53075Y134348D01*
X53192Y134366D01*
X53304Y134401D01*
X53409Y134454D01*
X53505Y134522D01*
X53589Y134604D01*
X53659Y134699D01*
X53713Y134803D01*
X53750Y134915D01*
X53770Y135031D01*
X53771Y135148D01*
X53753Y135265D01*
X53718Y135377D01*
X53623Y135648D01*
X53555Y135928D01*
X53513Y136213D01*
X53500Y136501D01*
X53513Y136788D01*
X53555Y137073D01*
X53623Y137353D01*
X53718Y137624D01*
X53754Y137736D01*
X53772Y137853D01*
X53771Y137971D01*
X53751Y138087D01*
X53714Y138198D01*
X53659Y138303D01*
X53589Y138398D01*
X53505Y138480D01*
X53409Y138548D01*
X53304Y138601D01*
X53192Y138636D01*
X53075Y138654D01*
X52957Y138653D01*
X52886Y138641D01*
Y141000D01*
G37*
G36*
X50114D02*X52886D01*
Y138641D01*
X52841Y138633D01*
X52730Y138596D01*
X52625Y138541D01*
X52530Y138471D01*
X52448Y138387D01*
X52380Y138291D01*
X52327Y138186D01*
X52185Y137779D01*
X52082Y137359D01*
X52020Y136932D01*
X52000Y136501D01*
X52020Y136069D01*
X52082Y135642D01*
X52185Y135222D01*
X52327Y134815D01*
X52381Y134710D01*
X52449Y134614D01*
X52531Y134530D01*
X52626Y134460D01*
X52730Y134406D01*
X52842Y134369D01*
X52886Y134361D01*
Y9177D01*
X52859Y9145D01*
X52490Y8543D01*
X52220Y7891D01*
X52055Y7204D01*
X52000Y6500D01*
X52055Y5796D01*
X52220Y5109D01*
X52490Y4457D01*
X52859Y3855D01*
X52886Y3823D01*
Y1601D01*
X50114D01*
Y3823D01*
X50141Y3855D01*
X50510Y4457D01*
X50780Y5109D01*
X50945Y5796D01*
X51000Y6500D01*
X50945Y7204D01*
X50780Y7891D01*
X50510Y8543D01*
X50141Y9145D01*
X50114Y9177D01*
Y134360D01*
X50158Y134368D01*
X50269Y134405D01*
X50374Y134460D01*
X50469Y134530D01*
X50551Y134614D01*
X50619Y134710D01*
X50672Y134815D01*
X50814Y135222D01*
X50917Y135642D01*
X50979Y136069D01*
X51000Y136500D01*
X50979Y136932D01*
X50917Y137359D01*
X50814Y137779D01*
X50672Y138186D01*
X50618Y138291D01*
X50550Y138387D01*
X50468Y138471D01*
X50373Y138541D01*
X50269Y138595D01*
X50157Y138632D01*
X50114Y138639D01*
Y141000D01*
G37*
G36*
Y1601D02*X46500D01*
Y2000D01*
X47204Y2055D01*
X47891Y2220D01*
X48543Y2490D01*
X49145Y2859D01*
X49682Y3318D01*
X50114Y3823D01*
Y1601D01*
G37*
G36*
X46500Y141000D02*X50114D01*
Y138639D01*
X50041Y138652D01*
X49924Y138653D01*
X49807Y138635D01*
X49695Y138600D01*
X49590Y138547D01*
X49494Y138479D01*
X49410Y138397D01*
X49340Y138302D01*
X49286Y138198D01*
X49249Y138086D01*
X49229Y137970D01*
X49228Y137853D01*
X49246Y137736D01*
X49281Y137624D01*
X49376Y137353D01*
X49444Y137073D01*
X49486Y136788D01*
X49500Y136500D01*
X49486Y136213D01*
X49444Y135928D01*
X49376Y135648D01*
X49281Y135377D01*
X49245Y135265D01*
X49227Y135148D01*
X49228Y135030D01*
X49248Y134914D01*
X49285Y134803D01*
X49340Y134698D01*
X49410Y134603D01*
X49494Y134521D01*
X49590Y134453D01*
X49695Y134400D01*
X49807Y134365D01*
X49924Y134347D01*
X50042Y134348D01*
X50114Y134360D01*
Y9177D01*
X49682Y9682D01*
X49145Y10141D01*
X48543Y10510D01*
X47891Y10780D01*
X47204Y10945D01*
X46500Y11000D01*
Y132000D01*
X46931Y132021D01*
X47358Y132083D01*
X47778Y132186D01*
X48185Y132328D01*
X48290Y132382D01*
X48386Y132450D01*
X48470Y132532D01*
X48540Y132627D01*
X48594Y132731D01*
X48631Y132843D01*
X48651Y132959D01*
X48652Y133076D01*
X48634Y133193D01*
X48599Y133305D01*
X48546Y133410D01*
X48478Y133506D01*
X48396Y133590D01*
X48301Y133660D01*
X48197Y133714D01*
X48085Y133751D01*
X47969Y133771D01*
X47852Y133772D01*
X47735Y133754D01*
X47623Y133719D01*
X47352Y133624D01*
X47072Y133556D01*
X46787Y133514D01*
X46500Y133500D01*
Y139500D01*
X46787Y139487D01*
X47072Y139445D01*
X47352Y139377D01*
X47623Y139282D01*
X47735Y139246D01*
X47852Y139228D01*
X47970Y139229D01*
X48086Y139249D01*
X48197Y139286D01*
X48302Y139341D01*
X48397Y139411D01*
X48479Y139495D01*
X48547Y139591D01*
X48600Y139696D01*
X48635Y139808D01*
X48653Y139925D01*
X48652Y140043D01*
X48632Y140159D01*
X48595Y140270D01*
X48540Y140375D01*
X48470Y140470D01*
X48386Y140552D01*
X48290Y140620D01*
X48185Y140673D01*
X47778Y140815D01*
X47358Y140918D01*
X46931Y140980D01*
X46500Y141000D01*
G37*
G36*
X42886Y3823D02*X43318Y3318D01*
X43855Y2859D01*
X44457Y2490D01*
X45109Y2220D01*
X45796Y2055D01*
X46500Y2000D01*
Y1601D01*
X42886D01*
Y3823D01*
G37*
G36*
Y141000D02*X46500D01*
X46068Y140980D01*
X45641Y140918D01*
X45221Y140815D01*
X44814Y140673D01*
X44709Y140619D01*
X44613Y140551D01*
X44529Y140469D01*
X44459Y140374D01*
X44405Y140270D01*
X44368Y140158D01*
X44348Y140042D01*
X44347Y139925D01*
X44365Y139808D01*
X44400Y139696D01*
X44453Y139591D01*
X44521Y139495D01*
X44603Y139411D01*
X44698Y139341D01*
X44802Y139287D01*
X44914Y139250D01*
X45030Y139230D01*
X45147Y139229D01*
X45264Y139247D01*
X45376Y139282D01*
X45647Y139377D01*
X45927Y139445D01*
X46212Y139487D01*
X46500Y139500D01*
Y133500D01*
X46212Y133514D01*
X45927Y133556D01*
X45647Y133624D01*
X45376Y133719D01*
X45264Y133755D01*
X45147Y133773D01*
X45029Y133772D01*
X44913Y133752D01*
X44802Y133715D01*
X44697Y133660D01*
X44602Y133590D01*
X44520Y133506D01*
X44452Y133410D01*
X44399Y133305D01*
X44364Y133193D01*
X44346Y133076D01*
X44347Y132958D01*
X44367Y132842D01*
X44404Y132731D01*
X44459Y132626D01*
X44529Y132531D01*
X44613Y132449D01*
X44709Y132381D01*
X44814Y132328D01*
X45221Y132186D01*
X45641Y132083D01*
X46068Y132021D01*
X46500Y132000D01*
Y11000D01*
X45796Y10945D01*
X45109Y10780D01*
X44457Y10510D01*
X43855Y10141D01*
X43318Y9682D01*
X42886Y9177D01*
Y134361D01*
X42958Y134349D01*
X43075Y134348D01*
X43192Y134366D01*
X43304Y134401D01*
X43409Y134454D01*
X43505Y134522D01*
X43589Y134604D01*
X43659Y134699D01*
X43713Y134803D01*
X43750Y134915D01*
X43770Y135031D01*
X43771Y135148D01*
X43753Y135265D01*
X43718Y135377D01*
X43623Y135648D01*
X43555Y135928D01*
X43513Y136213D01*
X43500Y136501D01*
X43513Y136788D01*
X43555Y137073D01*
X43623Y137353D01*
X43718Y137624D01*
X43754Y137736D01*
X43772Y137853D01*
X43771Y137971D01*
X43751Y138087D01*
X43714Y138198D01*
X43659Y138303D01*
X43589Y138398D01*
X43505Y138480D01*
X43409Y138548D01*
X43304Y138601D01*
X43192Y138636D01*
X43075Y138654D01*
X42957Y138653D01*
X42886Y138641D01*
Y141000D01*
G37*
G36*
X40114D02*X42886D01*
Y138641D01*
X42841Y138633D01*
X42730Y138596D01*
X42625Y138541D01*
X42530Y138471D01*
X42448Y138387D01*
X42380Y138291D01*
X42327Y138186D01*
X42185Y137779D01*
X42082Y137359D01*
X42020Y136932D01*
X42000Y136501D01*
X42020Y136069D01*
X42082Y135642D01*
X42185Y135222D01*
X42327Y134815D01*
X42381Y134710D01*
X42449Y134614D01*
X42531Y134530D01*
X42626Y134460D01*
X42730Y134406D01*
X42842Y134369D01*
X42886Y134361D01*
Y9177D01*
X42859Y9145D01*
X42490Y8543D01*
X42220Y7891D01*
X42055Y7204D01*
X42000Y6500D01*
X42055Y5796D01*
X42220Y5109D01*
X42490Y4457D01*
X42859Y3855D01*
X42886Y3823D01*
Y1601D01*
X40114D01*
Y3823D01*
X40141Y3855D01*
X40510Y4457D01*
X40780Y5109D01*
X40945Y5796D01*
X41000Y6500D01*
X40945Y7204D01*
X40780Y7891D01*
X40510Y8543D01*
X40141Y9145D01*
X40114Y9177D01*
Y134360D01*
X40158Y134368D01*
X40269Y134405D01*
X40374Y134460D01*
X40469Y134530D01*
X40551Y134614D01*
X40619Y134710D01*
X40672Y134815D01*
X40814Y135222D01*
X40917Y135642D01*
X40979Y136069D01*
X41000Y136500D01*
X40979Y136932D01*
X40917Y137359D01*
X40814Y137779D01*
X40672Y138186D01*
X40618Y138291D01*
X40550Y138387D01*
X40468Y138471D01*
X40373Y138541D01*
X40269Y138595D01*
X40157Y138632D01*
X40114Y138639D01*
Y141000D01*
G37*
G36*
Y1601D02*X36500D01*
Y2000D01*
X37204Y2055D01*
X37891Y2220D01*
X38543Y2490D01*
X39145Y2859D01*
X39682Y3318D01*
X40114Y3823D01*
Y1601D01*
G37*
G36*
X36500Y141000D02*X40114D01*
Y138639D01*
X40041Y138652D01*
X39924Y138653D01*
X39807Y138635D01*
X39695Y138600D01*
X39590Y138547D01*
X39494Y138479D01*
X39410Y138397D01*
X39340Y138302D01*
X39286Y138198D01*
X39249Y138086D01*
X39229Y137970D01*
X39228Y137853D01*
X39246Y137736D01*
X39281Y137624D01*
X39376Y137353D01*
X39444Y137073D01*
X39486Y136788D01*
X39500Y136500D01*
X39486Y136213D01*
X39444Y135928D01*
X39376Y135648D01*
X39281Y135377D01*
X39245Y135265D01*
X39227Y135148D01*
X39228Y135030D01*
X39248Y134914D01*
X39285Y134803D01*
X39340Y134698D01*
X39410Y134603D01*
X39494Y134521D01*
X39590Y134453D01*
X39695Y134400D01*
X39807Y134365D01*
X39924Y134347D01*
X40042Y134348D01*
X40114Y134360D01*
Y9177D01*
X39682Y9682D01*
X39145Y10141D01*
X38543Y10510D01*
X37891Y10780D01*
X37204Y10945D01*
X36500Y11000D01*
Y132000D01*
X36931Y132021D01*
X37358Y132083D01*
X37778Y132186D01*
X38185Y132328D01*
X38290Y132382D01*
X38386Y132450D01*
X38470Y132532D01*
X38540Y132627D01*
X38594Y132731D01*
X38631Y132843D01*
X38651Y132959D01*
X38652Y133076D01*
X38634Y133193D01*
X38599Y133305D01*
X38546Y133410D01*
X38478Y133506D01*
X38396Y133590D01*
X38301Y133660D01*
X38197Y133714D01*
X38085Y133751D01*
X37969Y133771D01*
X37852Y133772D01*
X37735Y133754D01*
X37623Y133719D01*
X37352Y133624D01*
X37072Y133556D01*
X36787Y133514D01*
X36500Y133500D01*
Y139500D01*
X36787Y139487D01*
X37072Y139445D01*
X37352Y139377D01*
X37623Y139282D01*
X37735Y139246D01*
X37852Y139228D01*
X37970Y139229D01*
X38086Y139249D01*
X38197Y139286D01*
X38302Y139341D01*
X38397Y139411D01*
X38479Y139495D01*
X38547Y139591D01*
X38600Y139696D01*
X38635Y139808D01*
X38653Y139925D01*
X38652Y140043D01*
X38632Y140159D01*
X38595Y140270D01*
X38540Y140375D01*
X38470Y140470D01*
X38386Y140552D01*
X38290Y140620D01*
X38185Y140673D01*
X37778Y140815D01*
X37358Y140918D01*
X36931Y140980D01*
X36500Y141000D01*
G37*
G36*
X32886Y3823D02*X33318Y3318D01*
X33855Y2859D01*
X34457Y2490D01*
X35109Y2220D01*
X35796Y2055D01*
X36500Y2000D01*
Y1601D01*
X32886D01*
Y3823D01*
G37*
G36*
Y141000D02*X36500D01*
X36068Y140980D01*
X35641Y140918D01*
X35221Y140815D01*
X34814Y140673D01*
X34709Y140619D01*
X34613Y140551D01*
X34529Y140469D01*
X34459Y140374D01*
X34405Y140270D01*
X34368Y140158D01*
X34348Y140042D01*
X34347Y139925D01*
X34365Y139808D01*
X34400Y139696D01*
X34453Y139591D01*
X34521Y139495D01*
X34603Y139411D01*
X34698Y139341D01*
X34802Y139287D01*
X34914Y139250D01*
X35030Y139230D01*
X35147Y139229D01*
X35264Y139247D01*
X35376Y139282D01*
X35647Y139377D01*
X35927Y139445D01*
X36212Y139487D01*
X36500Y139500D01*
Y133500D01*
X36212Y133514D01*
X35927Y133556D01*
X35647Y133624D01*
X35376Y133719D01*
X35264Y133755D01*
X35147Y133773D01*
X35029Y133772D01*
X34913Y133752D01*
X34802Y133715D01*
X34697Y133660D01*
X34602Y133590D01*
X34520Y133506D01*
X34452Y133410D01*
X34399Y133305D01*
X34364Y133193D01*
X34346Y133076D01*
X34347Y132958D01*
X34367Y132842D01*
X34404Y132731D01*
X34459Y132626D01*
X34529Y132531D01*
X34613Y132449D01*
X34709Y132381D01*
X34814Y132328D01*
X35221Y132186D01*
X35641Y132083D01*
X36068Y132021D01*
X36500Y132000D01*
Y11000D01*
X35796Y10945D01*
X35109Y10780D01*
X34457Y10510D01*
X33855Y10141D01*
X33318Y9682D01*
X32886Y9177D01*
Y134361D01*
X32958Y134349D01*
X33075Y134348D01*
X33192Y134366D01*
X33304Y134401D01*
X33409Y134454D01*
X33505Y134522D01*
X33589Y134604D01*
X33659Y134699D01*
X33713Y134803D01*
X33750Y134915D01*
X33770Y135031D01*
X33771Y135148D01*
X33753Y135265D01*
X33718Y135377D01*
X33623Y135648D01*
X33555Y135928D01*
X33513Y136213D01*
X33500Y136501D01*
X33513Y136788D01*
X33555Y137073D01*
X33623Y137353D01*
X33718Y137624D01*
X33754Y137736D01*
X33772Y137853D01*
X33771Y137971D01*
X33751Y138087D01*
X33714Y138198D01*
X33659Y138303D01*
X33589Y138398D01*
X33505Y138480D01*
X33409Y138548D01*
X33304Y138601D01*
X33192Y138636D01*
X33075Y138654D01*
X32957Y138653D01*
X32886Y138641D01*
Y141000D01*
G37*
G36*
X30250D02*X32886D01*
Y138641D01*
X32841Y138633D01*
X32730Y138596D01*
X32625Y138541D01*
X32530Y138471D01*
X32448Y138387D01*
X32380Y138291D01*
X32327Y138186D01*
X32185Y137779D01*
X32082Y137359D01*
X32020Y136932D01*
X32000Y136501D01*
X32020Y136069D01*
X32082Y135642D01*
X32185Y135222D01*
X32327Y134815D01*
X32381Y134710D01*
X32449Y134614D01*
X32531Y134530D01*
X32626Y134460D01*
X32730Y134406D01*
X32842Y134369D01*
X32886Y134361D01*
Y9177D01*
X32859Y9145D01*
X32490Y8543D01*
X32220Y7891D01*
X32055Y7204D01*
X32000Y6500D01*
X32055Y5796D01*
X32220Y5109D01*
X32490Y4457D01*
X32859Y3855D01*
X32886Y3823D01*
Y1601D01*
X30250D01*
Y4250D01*
X30367Y4259D01*
X30482Y4287D01*
X30590Y4332D01*
X30691Y4393D01*
X30780Y4470D01*
X30857Y4559D01*
X30918Y4660D01*
X30963Y4768D01*
X30991Y4883D01*
X31000Y5000D01*
Y8000D01*
X30991Y8117D01*
X30963Y8232D01*
X30918Y8340D01*
X30857Y8441D01*
X30780Y8530D01*
X30691Y8607D01*
X30590Y8668D01*
X30482Y8713D01*
X30367Y8741D01*
X30250Y8750D01*
Y134399D01*
X30269Y134405D01*
X30374Y134460D01*
X30469Y134530D01*
X30551Y134614D01*
X30619Y134710D01*
X30672Y134815D01*
X30814Y135222D01*
X30917Y135642D01*
X30979Y136069D01*
X31000Y136500D01*
X30979Y136932D01*
X30917Y137359D01*
X30814Y137779D01*
X30672Y138186D01*
X30618Y138291D01*
X30550Y138387D01*
X30468Y138471D01*
X30373Y138541D01*
X30269Y138595D01*
X30250Y138601D01*
Y141000D01*
G37*
G36*
X26500D02*X30250D01*
Y138601D01*
X30157Y138632D01*
X30041Y138652D01*
X29924Y138653D01*
X29807Y138635D01*
X29695Y138600D01*
X29590Y138547D01*
X29494Y138479D01*
X29410Y138397D01*
X29340Y138302D01*
X29286Y138198D01*
X29249Y138086D01*
X29229Y137970D01*
X29228Y137853D01*
X29246Y137736D01*
X29281Y137624D01*
X29376Y137353D01*
X29444Y137073D01*
X29486Y136788D01*
X29500Y136500D01*
X29486Y136213D01*
X29444Y135928D01*
X29376Y135648D01*
X29281Y135377D01*
X29245Y135265D01*
X29227Y135148D01*
X29228Y135030D01*
X29248Y134914D01*
X29285Y134803D01*
X29340Y134698D01*
X29410Y134603D01*
X29494Y134521D01*
X29590Y134453D01*
X29695Y134400D01*
X29807Y134365D01*
X29924Y134347D01*
X30042Y134348D01*
X30158Y134368D01*
X30250Y134399D01*
Y8750D01*
X30133Y8741D01*
X30018Y8713D01*
X29910Y8668D01*
X29809Y8607D01*
X29720Y8530D01*
X29643Y8441D01*
X29582Y8340D01*
X29537Y8232D01*
X29509Y8117D01*
X29500Y8000D01*
Y5000D01*
X29509Y4883D01*
X29537Y4768D01*
X29582Y4660D01*
X29643Y4559D01*
X29720Y4470D01*
X29809Y4393D01*
X29910Y4332D01*
X30018Y4287D01*
X30133Y4259D01*
X30250Y4250D01*
Y1601D01*
X26500D01*
Y2000D01*
X28000D01*
X28117Y2009D01*
X28232Y2037D01*
X28340Y2082D01*
X28441Y2143D01*
X28530Y2220D01*
X28607Y2309D01*
X28668Y2410D01*
X28713Y2518D01*
X28741Y2633D01*
X28750Y2750D01*
X28741Y2867D01*
X28713Y2982D01*
X28668Y3090D01*
X28607Y3191D01*
X28530Y3280D01*
X28441Y3357D01*
X28340Y3418D01*
X28232Y3463D01*
X28117Y3491D01*
X28000Y3500D01*
X26500D01*
Y9500D01*
X28000D01*
X28117Y9509D01*
X28232Y9537D01*
X28340Y9582D01*
X28441Y9643D01*
X28530Y9720D01*
X28607Y9809D01*
X28668Y9910D01*
X28713Y10018D01*
X28741Y10133D01*
X28750Y10250D01*
X28741Y10367D01*
X28713Y10482D01*
X28668Y10590D01*
X28607Y10691D01*
X28530Y10780D01*
X28441Y10857D01*
X28340Y10918D01*
X28232Y10963D01*
X28117Y10991D01*
X28000Y11000D01*
X26500D01*
Y132000D01*
X26931Y132021D01*
X27358Y132083D01*
X27778Y132186D01*
X28185Y132328D01*
X28290Y132382D01*
X28386Y132450D01*
X28470Y132532D01*
X28540Y132627D01*
X28594Y132731D01*
X28631Y132843D01*
X28651Y132959D01*
X28652Y133076D01*
X28634Y133193D01*
X28599Y133305D01*
X28546Y133410D01*
X28478Y133506D01*
X28396Y133590D01*
X28301Y133660D01*
X28197Y133714D01*
X28085Y133751D01*
X27969Y133771D01*
X27852Y133772D01*
X27735Y133754D01*
X27623Y133719D01*
X27352Y133624D01*
X27072Y133556D01*
X26787Y133514D01*
X26500Y133500D01*
Y139500D01*
X26787Y139487D01*
X27072Y139445D01*
X27352Y139377D01*
X27623Y139282D01*
X27735Y139246D01*
X27852Y139228D01*
X27970Y139229D01*
X28086Y139249D01*
X28197Y139286D01*
X28302Y139341D01*
X28397Y139411D01*
X28479Y139495D01*
X28547Y139591D01*
X28600Y139696D01*
X28635Y139808D01*
X28653Y139925D01*
X28652Y140043D01*
X28632Y140159D01*
X28595Y140270D01*
X28540Y140375D01*
X28470Y140470D01*
X28386Y140552D01*
X28290Y140620D01*
X28185Y140673D01*
X27778Y140815D01*
X27358Y140918D01*
X26931Y140980D01*
X26500Y141000D01*
G37*
G36*
X22750D02*X26500D01*
X26068Y140980D01*
X25641Y140918D01*
X25221Y140815D01*
X24814Y140673D01*
X24709Y140619D01*
X24613Y140551D01*
X24529Y140469D01*
X24459Y140374D01*
X24405Y140270D01*
X24368Y140158D01*
X24348Y140042D01*
X24347Y139925D01*
X24365Y139808D01*
X24400Y139696D01*
X24453Y139591D01*
X24521Y139495D01*
X24603Y139411D01*
X24698Y139341D01*
X24802Y139287D01*
X24914Y139250D01*
X25030Y139230D01*
X25147Y139229D01*
X25264Y139247D01*
X25376Y139282D01*
X25647Y139377D01*
X25927Y139445D01*
X26212Y139487D01*
X26500Y139500D01*
Y133500D01*
X26212Y133514D01*
X25927Y133556D01*
X25647Y133624D01*
X25376Y133719D01*
X25264Y133755D01*
X25147Y133773D01*
X25029Y133772D01*
X24913Y133752D01*
X24802Y133715D01*
X24697Y133660D01*
X24602Y133590D01*
X24520Y133506D01*
X24452Y133410D01*
X24399Y133305D01*
X24364Y133193D01*
X24346Y133076D01*
X24347Y132958D01*
X24367Y132842D01*
X24404Y132731D01*
X24459Y132626D01*
X24529Y132531D01*
X24613Y132449D01*
X24709Y132381D01*
X24814Y132328D01*
X25221Y132186D01*
X25641Y132083D01*
X26068Y132021D01*
X26500Y132000D01*
Y11000D01*
X25000D01*
X24883Y10991D01*
X24768Y10963D01*
X24660Y10918D01*
X24559Y10857D01*
X24470Y10780D01*
X24393Y10691D01*
X24332Y10590D01*
X24287Y10482D01*
X24259Y10367D01*
X24250Y10250D01*
X24259Y10133D01*
X24287Y10018D01*
X24332Y9910D01*
X24393Y9809D01*
X24470Y9720D01*
X24559Y9643D01*
X24660Y9582D01*
X24768Y9537D01*
X24883Y9509D01*
X25000Y9500D01*
X26500D01*
Y3500D01*
X25000D01*
X24883Y3491D01*
X24768Y3463D01*
X24660Y3418D01*
X24559Y3357D01*
X24470Y3280D01*
X24393Y3191D01*
X24332Y3090D01*
X24287Y2982D01*
X24259Y2867D01*
X24250Y2750D01*
X24259Y2633D01*
X24287Y2518D01*
X24332Y2410D01*
X24393Y2309D01*
X24470Y2220D01*
X24559Y2143D01*
X24660Y2082D01*
X24768Y2037D01*
X24883Y2009D01*
X25000Y2000D01*
X26500D01*
Y1601D01*
X22750D01*
Y4250D01*
X22867Y4259D01*
X22982Y4287D01*
X23090Y4332D01*
X23191Y4393D01*
X23280Y4470D01*
X23357Y4559D01*
X23418Y4660D01*
X23463Y4768D01*
X23491Y4883D01*
X23500Y5000D01*
Y8000D01*
X23491Y8117D01*
X23463Y8232D01*
X23418Y8340D01*
X23357Y8441D01*
X23280Y8530D01*
X23191Y8607D01*
X23090Y8668D01*
X22982Y8713D01*
X22867Y8741D01*
X22750Y8750D01*
Y134399D01*
X22842Y134369D01*
X22958Y134349D01*
X23075Y134348D01*
X23192Y134366D01*
X23304Y134401D01*
X23409Y134454D01*
X23505Y134522D01*
X23589Y134604D01*
X23659Y134699D01*
X23713Y134803D01*
X23750Y134915D01*
X23770Y135031D01*
X23771Y135148D01*
X23753Y135265D01*
X23718Y135377D01*
X23623Y135648D01*
X23555Y135928D01*
X23513Y136213D01*
X23500Y136501D01*
X23513Y136788D01*
X23555Y137073D01*
X23623Y137353D01*
X23718Y137624D01*
X23754Y137736D01*
X23772Y137853D01*
X23771Y137971D01*
X23751Y138087D01*
X23714Y138198D01*
X23659Y138303D01*
X23589Y138398D01*
X23505Y138480D01*
X23409Y138548D01*
X23304Y138601D01*
X23192Y138636D01*
X23075Y138654D01*
X22957Y138653D01*
X22841Y138633D01*
X22750Y138603D01*
Y141000D01*
G37*
G36*
X20250D02*X22750D01*
Y138603D01*
X22730Y138596D01*
X22625Y138541D01*
X22530Y138471D01*
X22448Y138387D01*
X22380Y138291D01*
X22327Y138186D01*
X22185Y137779D01*
X22082Y137359D01*
X22020Y136932D01*
X22000Y136501D01*
X22020Y136069D01*
X22082Y135642D01*
X22185Y135222D01*
X22327Y134815D01*
X22381Y134710D01*
X22449Y134614D01*
X22531Y134530D01*
X22626Y134460D01*
X22730Y134406D01*
X22750Y134399D01*
Y8750D01*
X22633Y8741D01*
X22518Y8713D01*
X22410Y8668D01*
X22309Y8607D01*
X22220Y8530D01*
X22143Y8441D01*
X22082Y8340D01*
X22037Y8232D01*
X22009Y8117D01*
X22000Y8000D01*
Y5000D01*
X22009Y4883D01*
X22037Y4768D01*
X22082Y4660D01*
X22143Y4559D01*
X22220Y4470D01*
X22309Y4393D01*
X22410Y4332D01*
X22518Y4287D01*
X22633Y4259D01*
X22750Y4250D01*
Y1601D01*
X20250D01*
Y134250D01*
X20367Y134259D01*
X20482Y134287D01*
X20590Y134332D01*
X20691Y134393D01*
X20780Y134470D01*
X20857Y134559D01*
X20918Y134660D01*
X20963Y134768D01*
X20991Y134883D01*
X21000Y135000D01*
Y138000D01*
X20991Y138117D01*
X20963Y138232D01*
X20918Y138340D01*
X20857Y138441D01*
X20780Y138530D01*
X20691Y138607D01*
X20590Y138668D01*
X20482Y138713D01*
X20367Y138741D01*
X20250Y138750D01*
Y141000D01*
G37*
G36*
X16500Y139500D02*X18000D01*
X18117Y139509D01*
X18232Y139537D01*
X18340Y139582D01*
X18441Y139643D01*
X18530Y139720D01*
X18607Y139809D01*
X18668Y139910D01*
X18713Y140018D01*
X18741Y140133D01*
X18750Y140250D01*
X18741Y140367D01*
X18713Y140482D01*
X18668Y140590D01*
X18607Y140691D01*
X18530Y140780D01*
X18441Y140857D01*
X18340Y140918D01*
X18232Y140963D01*
X18117Y140991D01*
X18000Y141000D01*
X20250D01*
Y138750D01*
X20133Y138741D01*
X20018Y138713D01*
X19910Y138668D01*
X19809Y138607D01*
X19720Y138530D01*
X19643Y138441D01*
X19582Y138340D01*
X19537Y138232D01*
X19509Y138117D01*
X19500Y138000D01*
Y135000D01*
X19509Y134883D01*
X19537Y134768D01*
X19582Y134660D01*
X19643Y134559D01*
X19720Y134470D01*
X19809Y134393D01*
X19910Y134332D01*
X20018Y134287D01*
X20133Y134259D01*
X20250Y134250D01*
Y1601D01*
X16500D01*
Y132000D01*
X18000D01*
X18117Y132009D01*
X18232Y132037D01*
X18340Y132082D01*
X18441Y132143D01*
X18530Y132220D01*
X18607Y132309D01*
X18668Y132410D01*
X18713Y132518D01*
X18741Y132633D01*
X18750Y132750D01*
X18741Y132867D01*
X18713Y132982D01*
X18668Y133090D01*
X18607Y133191D01*
X18530Y133280D01*
X18441Y133357D01*
X18340Y133418D01*
X18232Y133463D01*
X18117Y133491D01*
X18000Y133500D01*
X16500D01*
Y139500D01*
G37*
G36*
X12750Y141000D02*X15000D01*
X14883Y140991D01*
X14768Y140963D01*
X14660Y140918D01*
X14559Y140857D01*
X14470Y140780D01*
X14393Y140691D01*
X14332Y140590D01*
X14287Y140482D01*
X14259Y140367D01*
X14250Y140250D01*
X14259Y140133D01*
X14287Y140018D01*
X14332Y139910D01*
X14393Y139809D01*
X14470Y139720D01*
X14559Y139643D01*
X14660Y139582D01*
X14768Y139537D01*
X14883Y139509D01*
X15000Y139500D01*
X16500D01*
Y133500D01*
X15000D01*
X14883Y133491D01*
X14768Y133463D01*
X14660Y133418D01*
X14559Y133357D01*
X14470Y133280D01*
X14393Y133191D01*
X14332Y133090D01*
X14287Y132982D01*
X14259Y132867D01*
X14250Y132750D01*
X14259Y132633D01*
X14287Y132518D01*
X14332Y132410D01*
X14393Y132309D01*
X14470Y132220D01*
X14559Y132143D01*
X14660Y132082D01*
X14768Y132037D01*
X14883Y132009D01*
X15000Y132000D01*
X16500D01*
Y1601D01*
X12750D01*
Y134250D01*
X12867Y134259D01*
X12982Y134287D01*
X13090Y134332D01*
X13191Y134393D01*
X13280Y134470D01*
X13357Y134559D01*
X13418Y134660D01*
X13463Y134768D01*
X13491Y134883D01*
X13500Y135000D01*
Y138000D01*
X13491Y138117D01*
X13463Y138232D01*
X13418Y138340D01*
X13357Y138441D01*
X13280Y138530D01*
X13191Y138607D01*
X13090Y138668D01*
X12982Y138713D01*
X12867Y138741D01*
X12750Y138750D01*
Y141000D01*
G37*
G36*
X10114D02*X12750D01*
Y138750D01*
X12633Y138741D01*
X12518Y138713D01*
X12410Y138668D01*
X12309Y138607D01*
X12220Y138530D01*
X12143Y138441D01*
X12082Y138340D01*
X12037Y138232D01*
X12009Y138117D01*
X12000Y138000D01*
Y135000D01*
X12009Y134883D01*
X12037Y134768D01*
X12082Y134660D01*
X12143Y134559D01*
X12220Y134470D01*
X12309Y134393D01*
X12410Y134332D01*
X12518Y134287D01*
X12633Y134259D01*
X12750Y134250D01*
Y1601D01*
X10114D01*
Y14360D01*
X10158Y14368D01*
X10269Y14405D01*
X10374Y14460D01*
X10469Y14530D01*
X10551Y14614D01*
X10619Y14710D01*
X10672Y14815D01*
X10814Y15222D01*
X10917Y15642D01*
X10979Y16069D01*
X11000Y16500D01*
X10979Y16932D01*
X10917Y17359D01*
X10814Y17779D01*
X10672Y18186D01*
X10618Y18291D01*
X10550Y18387D01*
X10468Y18471D01*
X10373Y18541D01*
X10269Y18595D01*
X10157Y18632D01*
X10114Y18639D01*
Y24360D01*
X10158Y24368D01*
X10269Y24405D01*
X10374Y24460D01*
X10469Y24530D01*
X10551Y24614D01*
X10619Y24710D01*
X10672Y24815D01*
X10814Y25222D01*
X10917Y25642D01*
X10979Y26069D01*
X11000Y26500D01*
X10979Y26932D01*
X10917Y27359D01*
X10814Y27779D01*
X10672Y28186D01*
X10618Y28291D01*
X10550Y28387D01*
X10468Y28471D01*
X10373Y28541D01*
X10269Y28595D01*
X10157Y28632D01*
X10114Y28639D01*
Y34360D01*
X10158Y34368D01*
X10269Y34405D01*
X10374Y34460D01*
X10469Y34530D01*
X10551Y34614D01*
X10619Y34710D01*
X10672Y34815D01*
X10814Y35222D01*
X10917Y35642D01*
X10979Y36069D01*
X11000Y36500D01*
X10979Y36932D01*
X10917Y37359D01*
X10814Y37779D01*
X10672Y38186D01*
X10618Y38291D01*
X10550Y38387D01*
X10468Y38471D01*
X10373Y38541D01*
X10269Y38595D01*
X10157Y38632D01*
X10114Y38639D01*
Y44360D01*
X10158Y44368D01*
X10269Y44405D01*
X10374Y44460D01*
X10469Y44530D01*
X10551Y44614D01*
X10619Y44710D01*
X10672Y44815D01*
X10814Y45222D01*
X10917Y45642D01*
X10979Y46069D01*
X11000Y46500D01*
X10979Y46932D01*
X10917Y47359D01*
X10814Y47779D01*
X10672Y48186D01*
X10618Y48291D01*
X10550Y48387D01*
X10468Y48471D01*
X10373Y48541D01*
X10269Y48595D01*
X10157Y48632D01*
X10114Y48639D01*
Y54360D01*
X10158Y54368D01*
X10269Y54405D01*
X10374Y54460D01*
X10469Y54530D01*
X10551Y54614D01*
X10619Y54710D01*
X10672Y54815D01*
X10814Y55222D01*
X10917Y55642D01*
X10979Y56069D01*
X11000Y56500D01*
X10979Y56932D01*
X10917Y57359D01*
X10814Y57779D01*
X10672Y58186D01*
X10618Y58291D01*
X10550Y58387D01*
X10468Y58471D01*
X10373Y58541D01*
X10269Y58595D01*
X10157Y58632D01*
X10114Y58639D01*
Y64360D01*
X10158Y64368D01*
X10269Y64405D01*
X10374Y64460D01*
X10469Y64530D01*
X10551Y64614D01*
X10619Y64710D01*
X10672Y64815D01*
X10814Y65222D01*
X10917Y65642D01*
X10979Y66069D01*
X11000Y66500D01*
X10979Y66932D01*
X10917Y67359D01*
X10814Y67779D01*
X10672Y68186D01*
X10618Y68291D01*
X10550Y68387D01*
X10468Y68471D01*
X10373Y68541D01*
X10269Y68595D01*
X10157Y68632D01*
X10114Y68639D01*
Y74360D01*
X10158Y74368D01*
X10269Y74405D01*
X10374Y74460D01*
X10469Y74530D01*
X10551Y74614D01*
X10619Y74710D01*
X10672Y74815D01*
X10814Y75222D01*
X10917Y75642D01*
X10979Y76069D01*
X11000Y76500D01*
X10979Y76932D01*
X10917Y77359D01*
X10814Y77779D01*
X10672Y78186D01*
X10618Y78291D01*
X10550Y78387D01*
X10468Y78471D01*
X10373Y78541D01*
X10269Y78595D01*
X10157Y78632D01*
X10114Y78639D01*
Y84360D01*
X10158Y84368D01*
X10269Y84405D01*
X10374Y84460D01*
X10469Y84530D01*
X10551Y84614D01*
X10619Y84710D01*
X10672Y84815D01*
X10814Y85222D01*
X10917Y85642D01*
X10979Y86069D01*
X11000Y86500D01*
X10979Y86932D01*
X10917Y87359D01*
X10814Y87779D01*
X10672Y88186D01*
X10618Y88291D01*
X10550Y88387D01*
X10468Y88471D01*
X10373Y88541D01*
X10269Y88595D01*
X10157Y88632D01*
X10114Y88639D01*
Y94360D01*
X10158Y94368D01*
X10269Y94405D01*
X10374Y94460D01*
X10469Y94530D01*
X10551Y94614D01*
X10619Y94710D01*
X10672Y94815D01*
X10814Y95222D01*
X10917Y95642D01*
X10979Y96069D01*
X11000Y96500D01*
X10979Y96932D01*
X10917Y97359D01*
X10814Y97779D01*
X10672Y98186D01*
X10618Y98291D01*
X10550Y98387D01*
X10468Y98471D01*
X10373Y98541D01*
X10269Y98595D01*
X10157Y98632D01*
X10114Y98639D01*
Y104360D01*
X10158Y104368D01*
X10269Y104405D01*
X10374Y104460D01*
X10469Y104530D01*
X10551Y104614D01*
X10619Y104710D01*
X10672Y104815D01*
X10814Y105222D01*
X10917Y105642D01*
X10979Y106069D01*
X11000Y106500D01*
X10979Y106932D01*
X10917Y107359D01*
X10814Y107779D01*
X10672Y108186D01*
X10618Y108291D01*
X10550Y108387D01*
X10468Y108471D01*
X10373Y108541D01*
X10269Y108595D01*
X10157Y108632D01*
X10114Y108639D01*
Y114360D01*
X10158Y114368D01*
X10269Y114405D01*
X10374Y114460D01*
X10469Y114530D01*
X10551Y114614D01*
X10619Y114710D01*
X10672Y114815D01*
X10814Y115222D01*
X10917Y115642D01*
X10979Y116069D01*
X11000Y116500D01*
X10979Y116932D01*
X10917Y117359D01*
X10814Y117779D01*
X10672Y118186D01*
X10618Y118291D01*
X10550Y118387D01*
X10468Y118471D01*
X10373Y118541D01*
X10269Y118595D01*
X10157Y118632D01*
X10114Y118639D01*
Y124264D01*
X10133Y124259D01*
X10250Y124250D01*
X10367Y124259D01*
X10482Y124287D01*
X10590Y124332D01*
X10691Y124393D01*
X10780Y124470D01*
X10857Y124559D01*
X10918Y124660D01*
X10963Y124768D01*
X10991Y124883D01*
X11000Y125000D01*
Y128000D01*
X10991Y128117D01*
X10963Y128232D01*
X10918Y128340D01*
X10857Y128441D01*
X10780Y128530D01*
X10691Y128607D01*
X10590Y128668D01*
X10482Y128713D01*
X10367Y128741D01*
X10250Y128750D01*
X10133Y128741D01*
X10114Y128736D01*
Y141000D01*
G37*
G36*
X6500D02*X10114D01*
Y128736D01*
X10018Y128713D01*
X9910Y128668D01*
X9809Y128607D01*
X9720Y128530D01*
X9643Y128441D01*
X9582Y128340D01*
X9537Y128232D01*
X9509Y128117D01*
X9500Y128000D01*
Y125000D01*
X9509Y124883D01*
X9537Y124768D01*
X9582Y124660D01*
X9643Y124559D01*
X9720Y124470D01*
X9809Y124393D01*
X9910Y124332D01*
X10018Y124287D01*
X10114Y124264D01*
Y118639D01*
X10041Y118652D01*
X9924Y118653D01*
X9807Y118635D01*
X9695Y118600D01*
X9590Y118547D01*
X9494Y118479D01*
X9410Y118397D01*
X9340Y118302D01*
X9286Y118198D01*
X9249Y118086D01*
X9229Y117970D01*
X9228Y117853D01*
X9246Y117736D01*
X9281Y117624D01*
X9376Y117353D01*
X9444Y117073D01*
X9486Y116788D01*
X9500Y116500D01*
X9486Y116213D01*
X9444Y115928D01*
X9376Y115648D01*
X9281Y115377D01*
X9245Y115265D01*
X9227Y115148D01*
X9228Y115030D01*
X9248Y114914D01*
X9285Y114803D01*
X9340Y114698D01*
X9410Y114603D01*
X9494Y114521D01*
X9590Y114453D01*
X9695Y114400D01*
X9807Y114365D01*
X9924Y114347D01*
X10042Y114348D01*
X10114Y114360D01*
Y108639D01*
X10041Y108652D01*
X9924Y108653D01*
X9807Y108635D01*
X9695Y108600D01*
X9590Y108547D01*
X9494Y108479D01*
X9410Y108397D01*
X9340Y108302D01*
X9286Y108198D01*
X9249Y108086D01*
X9229Y107970D01*
X9228Y107853D01*
X9246Y107736D01*
X9281Y107624D01*
X9376Y107353D01*
X9444Y107073D01*
X9486Y106788D01*
X9500Y106500D01*
X9486Y106213D01*
X9444Y105928D01*
X9376Y105648D01*
X9281Y105377D01*
X9245Y105265D01*
X9227Y105148D01*
X9228Y105030D01*
X9248Y104914D01*
X9285Y104803D01*
X9340Y104698D01*
X9410Y104603D01*
X9494Y104521D01*
X9590Y104453D01*
X9695Y104400D01*
X9807Y104365D01*
X9924Y104347D01*
X10042Y104348D01*
X10114Y104360D01*
Y98639D01*
X10041Y98652D01*
X9924Y98653D01*
X9807Y98635D01*
X9695Y98600D01*
X9590Y98547D01*
X9494Y98479D01*
X9410Y98397D01*
X9340Y98302D01*
X9286Y98198D01*
X9249Y98086D01*
X9229Y97970D01*
X9228Y97853D01*
X9246Y97736D01*
X9281Y97624D01*
X9376Y97353D01*
X9444Y97073D01*
X9486Y96788D01*
X9500Y96500D01*
X9486Y96213D01*
X9444Y95928D01*
X9376Y95648D01*
X9281Y95377D01*
X9245Y95265D01*
X9227Y95148D01*
X9228Y95030D01*
X9248Y94914D01*
X9285Y94803D01*
X9340Y94698D01*
X9410Y94603D01*
X9494Y94521D01*
X9590Y94453D01*
X9695Y94400D01*
X9807Y94365D01*
X9924Y94347D01*
X10042Y94348D01*
X10114Y94360D01*
Y88639D01*
X10041Y88652D01*
X9924Y88653D01*
X9807Y88635D01*
X9695Y88600D01*
X9590Y88547D01*
X9494Y88479D01*
X9410Y88397D01*
X9340Y88302D01*
X9286Y88198D01*
X9249Y88086D01*
X9229Y87970D01*
X9228Y87853D01*
X9246Y87736D01*
X9281Y87624D01*
X9376Y87353D01*
X9444Y87073D01*
X9486Y86788D01*
X9500Y86500D01*
X9486Y86213D01*
X9444Y85928D01*
X9376Y85648D01*
X9281Y85377D01*
X9245Y85265D01*
X9227Y85148D01*
X9228Y85030D01*
X9248Y84914D01*
X9285Y84803D01*
X9340Y84698D01*
X9410Y84603D01*
X9494Y84521D01*
X9590Y84453D01*
X9695Y84400D01*
X9807Y84365D01*
X9924Y84347D01*
X10042Y84348D01*
X10114Y84360D01*
Y78639D01*
X10041Y78652D01*
X9924Y78653D01*
X9807Y78635D01*
X9695Y78600D01*
X9590Y78547D01*
X9494Y78479D01*
X9410Y78397D01*
X9340Y78302D01*
X9286Y78198D01*
X9249Y78086D01*
X9229Y77970D01*
X9228Y77853D01*
X9246Y77736D01*
X9281Y77624D01*
X9376Y77353D01*
X9444Y77073D01*
X9486Y76788D01*
X9500Y76500D01*
X9486Y76213D01*
X9444Y75928D01*
X9376Y75648D01*
X9281Y75377D01*
X9245Y75265D01*
X9227Y75148D01*
X9228Y75030D01*
X9248Y74914D01*
X9285Y74803D01*
X9340Y74698D01*
X9410Y74603D01*
X9494Y74521D01*
X9590Y74453D01*
X9695Y74400D01*
X9807Y74365D01*
X9924Y74347D01*
X10042Y74348D01*
X10114Y74360D01*
Y68639D01*
X10041Y68652D01*
X9924Y68653D01*
X9807Y68635D01*
X9695Y68600D01*
X9590Y68547D01*
X9494Y68479D01*
X9410Y68397D01*
X9340Y68302D01*
X9286Y68198D01*
X9249Y68086D01*
X9229Y67970D01*
X9228Y67853D01*
X9246Y67736D01*
X9281Y67624D01*
X9376Y67353D01*
X9444Y67073D01*
X9486Y66788D01*
X9500Y66500D01*
X9486Y66213D01*
X9444Y65928D01*
X9376Y65648D01*
X9281Y65377D01*
X9245Y65265D01*
X9227Y65148D01*
X9228Y65030D01*
X9248Y64914D01*
X9285Y64803D01*
X9340Y64698D01*
X9410Y64603D01*
X9494Y64521D01*
X9590Y64453D01*
X9695Y64400D01*
X9807Y64365D01*
X9924Y64347D01*
X10042Y64348D01*
X10114Y64360D01*
Y58639D01*
X10041Y58652D01*
X9924Y58653D01*
X9807Y58635D01*
X9695Y58600D01*
X9590Y58547D01*
X9494Y58479D01*
X9410Y58397D01*
X9340Y58302D01*
X9286Y58198D01*
X9249Y58086D01*
X9229Y57970D01*
X9228Y57853D01*
X9246Y57736D01*
X9281Y57624D01*
X9376Y57353D01*
X9444Y57073D01*
X9486Y56788D01*
X9500Y56500D01*
X9486Y56213D01*
X9444Y55928D01*
X9376Y55648D01*
X9281Y55377D01*
X9245Y55265D01*
X9227Y55148D01*
X9228Y55030D01*
X9248Y54914D01*
X9285Y54803D01*
X9340Y54698D01*
X9410Y54603D01*
X9494Y54521D01*
X9590Y54453D01*
X9695Y54400D01*
X9807Y54365D01*
X9924Y54347D01*
X10042Y54348D01*
X10114Y54360D01*
Y48639D01*
X10041Y48652D01*
X9924Y48653D01*
X9807Y48635D01*
X9695Y48600D01*
X9590Y48547D01*
X9494Y48479D01*
X9410Y48397D01*
X9340Y48302D01*
X9286Y48198D01*
X9249Y48086D01*
X9229Y47970D01*
X9228Y47853D01*
X9246Y47736D01*
X9281Y47624D01*
X9376Y47353D01*
X9444Y47073D01*
X9486Y46788D01*
X9500Y46500D01*
X9486Y46213D01*
X9444Y45928D01*
X9376Y45648D01*
X9281Y45377D01*
X9245Y45265D01*
X9227Y45148D01*
X9228Y45030D01*
X9248Y44914D01*
X9285Y44803D01*
X9340Y44698D01*
X9410Y44603D01*
X9494Y44521D01*
X9590Y44453D01*
X9695Y44400D01*
X9807Y44365D01*
X9924Y44347D01*
X10042Y44348D01*
X10114Y44360D01*
Y38639D01*
X10041Y38652D01*
X9924Y38653D01*
X9807Y38635D01*
X9695Y38600D01*
X9590Y38547D01*
X9494Y38479D01*
X9410Y38397D01*
X9340Y38302D01*
X9286Y38198D01*
X9249Y38086D01*
X9229Y37970D01*
X9228Y37853D01*
X9246Y37736D01*
X9281Y37624D01*
X9376Y37353D01*
X9444Y37073D01*
X9486Y36788D01*
X9500Y36500D01*
X9486Y36213D01*
X9444Y35928D01*
X9376Y35648D01*
X9281Y35377D01*
X9245Y35265D01*
X9227Y35148D01*
X9228Y35030D01*
X9248Y34914D01*
X9285Y34803D01*
X9340Y34698D01*
X9410Y34603D01*
X9494Y34521D01*
X9590Y34453D01*
X9695Y34400D01*
X9807Y34365D01*
X9924Y34347D01*
X10042Y34348D01*
X10114Y34360D01*
Y28639D01*
X10041Y28652D01*
X9924Y28653D01*
X9807Y28635D01*
X9695Y28600D01*
X9590Y28547D01*
X9494Y28479D01*
X9410Y28397D01*
X9340Y28302D01*
X9286Y28198D01*
X9249Y28086D01*
X9229Y27970D01*
X9228Y27853D01*
X9246Y27736D01*
X9281Y27624D01*
X9376Y27353D01*
X9444Y27073D01*
X9486Y26788D01*
X9500Y26500D01*
X9486Y26213D01*
X9444Y25928D01*
X9376Y25648D01*
X9281Y25377D01*
X9245Y25265D01*
X9227Y25148D01*
X9228Y25030D01*
X9248Y24914D01*
X9285Y24803D01*
X9340Y24698D01*
X9410Y24603D01*
X9494Y24521D01*
X9590Y24453D01*
X9695Y24400D01*
X9807Y24365D01*
X9924Y24347D01*
X10042Y24348D01*
X10114Y24360D01*
Y18639D01*
X10041Y18652D01*
X9924Y18653D01*
X9807Y18635D01*
X9695Y18600D01*
X9590Y18547D01*
X9494Y18479D01*
X9410Y18397D01*
X9340Y18302D01*
X9286Y18198D01*
X9249Y18086D01*
X9229Y17970D01*
X9228Y17853D01*
X9246Y17736D01*
X9281Y17624D01*
X9376Y17353D01*
X9444Y17073D01*
X9486Y16788D01*
X9500Y16500D01*
X9486Y16213D01*
X9444Y15928D01*
X9376Y15648D01*
X9281Y15377D01*
X9245Y15265D01*
X9227Y15148D01*
X9228Y15030D01*
X9248Y14914D01*
X9285Y14803D01*
X9340Y14698D01*
X9410Y14603D01*
X9494Y14521D01*
X9590Y14453D01*
X9695Y14400D01*
X9807Y14365D01*
X9924Y14347D01*
X10042Y14348D01*
X10114Y14360D01*
Y1601D01*
X6500D01*
Y12000D01*
X6931Y12021D01*
X7358Y12083D01*
X7778Y12186D01*
X8185Y12328D01*
X8290Y12382D01*
X8386Y12450D01*
X8470Y12532D01*
X8540Y12627D01*
X8594Y12731D01*
X8631Y12843D01*
X8651Y12959D01*
X8652Y13076D01*
X8634Y13193D01*
X8599Y13305D01*
X8546Y13410D01*
X8478Y13506D01*
X8396Y13590D01*
X8301Y13660D01*
X8197Y13714D01*
X8085Y13751D01*
X7969Y13771D01*
X7852Y13772D01*
X7735Y13754D01*
X7623Y13719D01*
X7352Y13624D01*
X7072Y13556D01*
X6787Y13514D01*
X6500Y13500D01*
Y19500D01*
X6787Y19487D01*
X7072Y19445D01*
X7352Y19377D01*
X7623Y19282D01*
X7735Y19246D01*
X7852Y19228D01*
X7970Y19229D01*
X8086Y19249D01*
X8197Y19286D01*
X8302Y19341D01*
X8397Y19411D01*
X8479Y19495D01*
X8547Y19591D01*
X8600Y19696D01*
X8635Y19808D01*
X8653Y19925D01*
X8652Y20043D01*
X8632Y20159D01*
X8595Y20270D01*
X8540Y20375D01*
X8470Y20470D01*
X8386Y20552D01*
X8290Y20620D01*
X8185Y20673D01*
X7778Y20815D01*
X7358Y20918D01*
X6931Y20980D01*
X6500Y21000D01*
Y22000D01*
X6931Y22021D01*
X7358Y22083D01*
X7778Y22186D01*
X8185Y22328D01*
X8290Y22382D01*
X8386Y22450D01*
X8470Y22532D01*
X8540Y22627D01*
X8594Y22731D01*
X8631Y22843D01*
X8651Y22959D01*
X8652Y23076D01*
X8634Y23193D01*
X8599Y23305D01*
X8546Y23410D01*
X8478Y23506D01*
X8396Y23590D01*
X8301Y23660D01*
X8197Y23714D01*
X8085Y23751D01*
X7969Y23771D01*
X7852Y23772D01*
X7735Y23754D01*
X7623Y23719D01*
X7352Y23624D01*
X7072Y23556D01*
X6787Y23514D01*
X6500Y23500D01*
Y29500D01*
X6787Y29487D01*
X7072Y29445D01*
X7352Y29377D01*
X7623Y29282D01*
X7735Y29246D01*
X7852Y29228D01*
X7970Y29229D01*
X8086Y29249D01*
X8197Y29286D01*
X8302Y29341D01*
X8397Y29411D01*
X8479Y29495D01*
X8547Y29591D01*
X8600Y29696D01*
X8635Y29808D01*
X8653Y29925D01*
X8652Y30043D01*
X8632Y30159D01*
X8595Y30270D01*
X8540Y30375D01*
X8470Y30470D01*
X8386Y30552D01*
X8290Y30620D01*
X8185Y30673D01*
X7778Y30815D01*
X7358Y30918D01*
X6931Y30980D01*
X6500Y31000D01*
Y32000D01*
X6931Y32021D01*
X7358Y32083D01*
X7778Y32186D01*
X8185Y32328D01*
X8290Y32382D01*
X8386Y32450D01*
X8470Y32532D01*
X8540Y32627D01*
X8594Y32731D01*
X8631Y32843D01*
X8651Y32959D01*
X8652Y33076D01*
X8634Y33193D01*
X8599Y33305D01*
X8546Y33410D01*
X8478Y33506D01*
X8396Y33590D01*
X8301Y33660D01*
X8197Y33714D01*
X8085Y33751D01*
X7969Y33771D01*
X7852Y33772D01*
X7735Y33754D01*
X7623Y33719D01*
X7352Y33624D01*
X7072Y33556D01*
X6787Y33514D01*
X6500Y33500D01*
Y39500D01*
X6787Y39487D01*
X7072Y39445D01*
X7352Y39377D01*
X7623Y39282D01*
X7735Y39246D01*
X7852Y39228D01*
X7970Y39229D01*
X8086Y39249D01*
X8197Y39286D01*
X8302Y39341D01*
X8397Y39411D01*
X8479Y39495D01*
X8547Y39591D01*
X8600Y39696D01*
X8635Y39808D01*
X8653Y39925D01*
X8652Y40043D01*
X8632Y40159D01*
X8595Y40270D01*
X8540Y40375D01*
X8470Y40470D01*
X8386Y40552D01*
X8290Y40620D01*
X8185Y40673D01*
X7778Y40815D01*
X7358Y40918D01*
X6931Y40980D01*
X6500Y41000D01*
Y42000D01*
X6931Y42021D01*
X7358Y42083D01*
X7778Y42186D01*
X8185Y42328D01*
X8290Y42382D01*
X8386Y42450D01*
X8470Y42532D01*
X8540Y42627D01*
X8594Y42731D01*
X8631Y42843D01*
X8651Y42959D01*
X8652Y43076D01*
X8634Y43193D01*
X8599Y43305D01*
X8546Y43410D01*
X8478Y43506D01*
X8396Y43590D01*
X8301Y43660D01*
X8197Y43714D01*
X8085Y43751D01*
X7969Y43771D01*
X7852Y43772D01*
X7735Y43754D01*
X7623Y43719D01*
X7352Y43624D01*
X7072Y43556D01*
X6787Y43514D01*
X6500Y43500D01*
Y49500D01*
X6787Y49487D01*
X7072Y49445D01*
X7352Y49377D01*
X7623Y49282D01*
X7735Y49246D01*
X7852Y49228D01*
X7970Y49229D01*
X8086Y49249D01*
X8197Y49286D01*
X8302Y49341D01*
X8397Y49411D01*
X8479Y49495D01*
X8547Y49591D01*
X8600Y49696D01*
X8635Y49808D01*
X8653Y49925D01*
X8652Y50043D01*
X8632Y50159D01*
X8595Y50270D01*
X8540Y50375D01*
X8470Y50470D01*
X8386Y50552D01*
X8290Y50620D01*
X8185Y50673D01*
X7778Y50815D01*
X7358Y50918D01*
X6931Y50980D01*
X6500Y51000D01*
Y52000D01*
X6931Y52021D01*
X7358Y52083D01*
X7778Y52186D01*
X8185Y52328D01*
X8290Y52382D01*
X8386Y52450D01*
X8470Y52532D01*
X8540Y52627D01*
X8594Y52731D01*
X8631Y52843D01*
X8651Y52959D01*
X8652Y53076D01*
X8634Y53193D01*
X8599Y53305D01*
X8546Y53410D01*
X8478Y53506D01*
X8396Y53590D01*
X8301Y53660D01*
X8197Y53714D01*
X8085Y53751D01*
X7969Y53771D01*
X7852Y53772D01*
X7735Y53754D01*
X7623Y53719D01*
X7352Y53624D01*
X7072Y53556D01*
X6787Y53514D01*
X6500Y53500D01*
Y59500D01*
X6787Y59487D01*
X7072Y59445D01*
X7352Y59377D01*
X7623Y59282D01*
X7735Y59246D01*
X7852Y59228D01*
X7970Y59229D01*
X8086Y59249D01*
X8197Y59286D01*
X8302Y59341D01*
X8397Y59411D01*
X8479Y59495D01*
X8547Y59591D01*
X8600Y59696D01*
X8635Y59808D01*
X8653Y59925D01*
X8652Y60043D01*
X8632Y60159D01*
X8595Y60270D01*
X8540Y60375D01*
X8470Y60470D01*
X8386Y60552D01*
X8290Y60620D01*
X8185Y60673D01*
X7778Y60815D01*
X7358Y60918D01*
X6931Y60980D01*
X6500Y61000D01*
Y62000D01*
X6931Y62021D01*
X7358Y62083D01*
X7778Y62186D01*
X8185Y62328D01*
X8290Y62382D01*
X8386Y62450D01*
X8470Y62532D01*
X8540Y62627D01*
X8594Y62731D01*
X8631Y62843D01*
X8651Y62959D01*
X8652Y63076D01*
X8634Y63193D01*
X8599Y63305D01*
X8546Y63410D01*
X8478Y63506D01*
X8396Y63590D01*
X8301Y63660D01*
X8197Y63714D01*
X8085Y63751D01*
X7969Y63771D01*
X7852Y63772D01*
X7735Y63754D01*
X7623Y63719D01*
X7352Y63624D01*
X7072Y63556D01*
X6787Y63514D01*
X6500Y63500D01*
Y69500D01*
X6787Y69487D01*
X7072Y69445D01*
X7352Y69377D01*
X7623Y69282D01*
X7735Y69246D01*
X7852Y69228D01*
X7970Y69229D01*
X8086Y69249D01*
X8197Y69286D01*
X8302Y69341D01*
X8397Y69411D01*
X8479Y69495D01*
X8547Y69591D01*
X8600Y69696D01*
X8635Y69808D01*
X8653Y69925D01*
X8652Y70043D01*
X8632Y70159D01*
X8595Y70270D01*
X8540Y70375D01*
X8470Y70470D01*
X8386Y70552D01*
X8290Y70620D01*
X8185Y70673D01*
X7778Y70815D01*
X7358Y70918D01*
X6931Y70980D01*
X6500Y71000D01*
Y72000D01*
X6931Y72021D01*
X7358Y72083D01*
X7778Y72186D01*
X8185Y72328D01*
X8290Y72382D01*
X8386Y72450D01*
X8470Y72532D01*
X8540Y72627D01*
X8594Y72731D01*
X8631Y72843D01*
X8651Y72959D01*
X8652Y73076D01*
X8634Y73193D01*
X8599Y73305D01*
X8546Y73410D01*
X8478Y73506D01*
X8396Y73590D01*
X8301Y73660D01*
X8197Y73714D01*
X8085Y73751D01*
X7969Y73771D01*
X7852Y73772D01*
X7735Y73754D01*
X7623Y73719D01*
X7352Y73624D01*
X7072Y73556D01*
X6787Y73514D01*
X6500Y73500D01*
Y79500D01*
X6787Y79487D01*
X7072Y79445D01*
X7352Y79377D01*
X7623Y79282D01*
X7735Y79246D01*
X7852Y79228D01*
X7970Y79229D01*
X8086Y79249D01*
X8197Y79286D01*
X8302Y79341D01*
X8397Y79411D01*
X8479Y79495D01*
X8547Y79591D01*
X8600Y79696D01*
X8635Y79808D01*
X8653Y79925D01*
X8652Y80043D01*
X8632Y80159D01*
X8595Y80270D01*
X8540Y80375D01*
X8470Y80470D01*
X8386Y80552D01*
X8290Y80620D01*
X8185Y80673D01*
X7778Y80815D01*
X7358Y80918D01*
X6931Y80980D01*
X6500Y81000D01*
Y82000D01*
X6931Y82021D01*
X7358Y82083D01*
X7778Y82186D01*
X8185Y82328D01*
X8290Y82382D01*
X8386Y82450D01*
X8470Y82532D01*
X8540Y82627D01*
X8594Y82731D01*
X8631Y82843D01*
X8651Y82959D01*
X8652Y83076D01*
X8634Y83193D01*
X8599Y83305D01*
X8546Y83410D01*
X8478Y83506D01*
X8396Y83590D01*
X8301Y83660D01*
X8197Y83714D01*
X8085Y83751D01*
X7969Y83771D01*
X7852Y83772D01*
X7735Y83754D01*
X7623Y83719D01*
X7352Y83624D01*
X7072Y83556D01*
X6787Y83514D01*
X6500Y83500D01*
Y89500D01*
X6787Y89487D01*
X7072Y89445D01*
X7352Y89377D01*
X7623Y89282D01*
X7735Y89246D01*
X7852Y89228D01*
X7970Y89229D01*
X8086Y89249D01*
X8197Y89286D01*
X8302Y89341D01*
X8397Y89411D01*
X8479Y89495D01*
X8547Y89591D01*
X8600Y89696D01*
X8635Y89808D01*
X8653Y89925D01*
X8652Y90043D01*
X8632Y90159D01*
X8595Y90270D01*
X8540Y90375D01*
X8470Y90470D01*
X8386Y90552D01*
X8290Y90620D01*
X8185Y90673D01*
X7778Y90815D01*
X7358Y90918D01*
X6931Y90980D01*
X6500Y91000D01*
Y92000D01*
X6931Y92021D01*
X7358Y92083D01*
X7778Y92186D01*
X8185Y92328D01*
X8290Y92382D01*
X8386Y92450D01*
X8470Y92532D01*
X8540Y92627D01*
X8594Y92731D01*
X8631Y92843D01*
X8651Y92959D01*
X8652Y93076D01*
X8634Y93193D01*
X8599Y93305D01*
X8546Y93410D01*
X8478Y93506D01*
X8396Y93590D01*
X8301Y93660D01*
X8197Y93714D01*
X8085Y93751D01*
X7969Y93771D01*
X7852Y93772D01*
X7735Y93754D01*
X7623Y93719D01*
X7352Y93624D01*
X7072Y93556D01*
X6787Y93514D01*
X6500Y93500D01*
Y99500D01*
X6787Y99487D01*
X7072Y99445D01*
X7352Y99377D01*
X7623Y99282D01*
X7735Y99246D01*
X7852Y99228D01*
X7970Y99229D01*
X8086Y99249D01*
X8197Y99286D01*
X8302Y99341D01*
X8397Y99411D01*
X8479Y99495D01*
X8547Y99591D01*
X8600Y99696D01*
X8635Y99808D01*
X8653Y99925D01*
X8652Y100043D01*
X8632Y100159D01*
X8595Y100270D01*
X8540Y100375D01*
X8470Y100470D01*
X8386Y100552D01*
X8290Y100620D01*
X8185Y100673D01*
X7778Y100815D01*
X7358Y100918D01*
X6931Y100980D01*
X6500Y101000D01*
Y102000D01*
X6931Y102021D01*
X7358Y102083D01*
X7778Y102186D01*
X8185Y102328D01*
X8290Y102382D01*
X8386Y102450D01*
X8470Y102532D01*
X8540Y102627D01*
X8594Y102731D01*
X8631Y102843D01*
X8651Y102959D01*
X8652Y103076D01*
X8634Y103193D01*
X8599Y103305D01*
X8546Y103410D01*
X8478Y103506D01*
X8396Y103590D01*
X8301Y103660D01*
X8197Y103714D01*
X8085Y103751D01*
X7969Y103771D01*
X7852Y103772D01*
X7735Y103754D01*
X7623Y103719D01*
X7352Y103624D01*
X7072Y103556D01*
X6787Y103514D01*
X6500Y103500D01*
Y109500D01*
X6787Y109487D01*
X7072Y109445D01*
X7352Y109377D01*
X7623Y109282D01*
X7735Y109246D01*
X7852Y109228D01*
X7970Y109229D01*
X8086Y109249D01*
X8197Y109286D01*
X8302Y109341D01*
X8397Y109411D01*
X8479Y109495D01*
X8547Y109591D01*
X8600Y109696D01*
X8635Y109808D01*
X8653Y109925D01*
X8652Y110043D01*
X8632Y110159D01*
X8595Y110270D01*
X8540Y110375D01*
X8470Y110470D01*
X8386Y110552D01*
X8290Y110620D01*
X8185Y110673D01*
X7778Y110815D01*
X7358Y110918D01*
X6931Y110980D01*
X6500Y111000D01*
Y112000D01*
X6931Y112021D01*
X7358Y112083D01*
X7778Y112186D01*
X8185Y112328D01*
X8290Y112382D01*
X8386Y112450D01*
X8470Y112532D01*
X8540Y112627D01*
X8594Y112731D01*
X8631Y112843D01*
X8651Y112959D01*
X8652Y113076D01*
X8634Y113193D01*
X8599Y113305D01*
X8546Y113410D01*
X8478Y113506D01*
X8396Y113590D01*
X8301Y113660D01*
X8197Y113714D01*
X8085Y113751D01*
X7969Y113771D01*
X7852Y113772D01*
X7735Y113754D01*
X7623Y113719D01*
X7352Y113624D01*
X7072Y113556D01*
X6787Y113514D01*
X6500Y113500D01*
Y119500D01*
X6787Y119487D01*
X7072Y119445D01*
X7352Y119377D01*
X7623Y119282D01*
X7735Y119246D01*
X7852Y119228D01*
X7970Y119229D01*
X8086Y119249D01*
X8197Y119286D01*
X8302Y119341D01*
X8397Y119411D01*
X8479Y119495D01*
X8547Y119591D01*
X8600Y119696D01*
X8635Y119808D01*
X8653Y119925D01*
X8652Y120043D01*
X8632Y120159D01*
X8595Y120270D01*
X8540Y120375D01*
X8470Y120470D01*
X8386Y120552D01*
X8290Y120620D01*
X8185Y120673D01*
X7778Y120815D01*
X7358Y120918D01*
X6931Y120980D01*
X6500Y121000D01*
Y122000D01*
X8000D01*
X8117Y122009D01*
X8232Y122037D01*
X8340Y122082D01*
X8441Y122143D01*
X8530Y122220D01*
X8607Y122309D01*
X8668Y122410D01*
X8713Y122518D01*
X8741Y122633D01*
X8750Y122750D01*
X8741Y122867D01*
X8713Y122982D01*
X8668Y123090D01*
X8607Y123191D01*
X8530Y123280D01*
X8441Y123357D01*
X8340Y123418D01*
X8232Y123463D01*
X8117Y123491D01*
X8000Y123500D01*
X6500D01*
Y129500D01*
X8000D01*
X8117Y129509D01*
X8232Y129537D01*
X8340Y129582D01*
X8441Y129643D01*
X8530Y129720D01*
X8607Y129809D01*
X8668Y129910D01*
X8713Y130018D01*
X8741Y130133D01*
X8750Y130250D01*
X8741Y130367D01*
X8713Y130482D01*
X8668Y130590D01*
X8607Y130691D01*
X8530Y130780D01*
X8441Y130857D01*
X8340Y130918D01*
X8232Y130963D01*
X8117Y130991D01*
X8000Y131000D01*
X6500D01*
Y141000D01*
G37*
G36*
X2000Y1601D02*Y16500D01*
X2020Y16069D01*
X2082Y15642D01*
X2185Y15222D01*
X2327Y14815D01*
X2381Y14710D01*
X2449Y14614D01*
X2531Y14530D01*
X2626Y14460D01*
X2730Y14406D01*
X2842Y14369D01*
X2958Y14349D01*
X3075Y14348D01*
X3192Y14366D01*
X3304Y14401D01*
X3409Y14454D01*
X3505Y14522D01*
X3589Y14604D01*
X3659Y14699D01*
X3713Y14803D01*
X3750Y14915D01*
X3770Y15031D01*
X3771Y15148D01*
X3753Y15265D01*
X3718Y15377D01*
X3623Y15648D01*
X3555Y15928D01*
X3513Y16213D01*
X3500Y16500D01*
X3513Y16788D01*
X3555Y17073D01*
X3623Y17353D01*
X3718Y17624D01*
X3754Y17736D01*
X3772Y17853D01*
X3771Y17971D01*
X3751Y18087D01*
X3714Y18198D01*
X3659Y18303D01*
X3589Y18398D01*
X3505Y18480D01*
X3409Y18548D01*
X3304Y18601D01*
X3192Y18636D01*
X3075Y18654D01*
X2957Y18653D01*
X2841Y18633D01*
X2730Y18596D01*
X2625Y18541D01*
X2530Y18471D01*
X2448Y18387D01*
X2380Y18291D01*
X2327Y18186D01*
X2185Y17779D01*
X2082Y17359D01*
X2020Y16932D01*
X2000Y16500D01*
Y26500D01*
X2020Y26069D01*
X2082Y25642D01*
X2185Y25222D01*
X2327Y24815D01*
X2381Y24710D01*
X2449Y24614D01*
X2531Y24530D01*
X2626Y24460D01*
X2730Y24406D01*
X2842Y24369D01*
X2958Y24349D01*
X3075Y24348D01*
X3192Y24366D01*
X3304Y24401D01*
X3409Y24454D01*
X3505Y24522D01*
X3589Y24604D01*
X3659Y24699D01*
X3713Y24803D01*
X3750Y24915D01*
X3770Y25031D01*
X3771Y25148D01*
X3753Y25265D01*
X3718Y25377D01*
X3623Y25648D01*
X3555Y25928D01*
X3513Y26213D01*
X3500Y26500D01*
X3513Y26788D01*
X3555Y27073D01*
X3623Y27353D01*
X3718Y27624D01*
X3754Y27736D01*
X3772Y27853D01*
X3771Y27971D01*
X3751Y28087D01*
X3714Y28198D01*
X3659Y28303D01*
X3589Y28398D01*
X3505Y28480D01*
X3409Y28548D01*
X3304Y28601D01*
X3192Y28636D01*
X3075Y28654D01*
X2957Y28653D01*
X2841Y28633D01*
X2730Y28596D01*
X2625Y28541D01*
X2530Y28471D01*
X2448Y28387D01*
X2380Y28291D01*
X2327Y28186D01*
X2185Y27779D01*
X2082Y27359D01*
X2020Y26932D01*
X2000Y26500D01*
Y36500D01*
X2020Y36069D01*
X2082Y35642D01*
X2185Y35222D01*
X2327Y34815D01*
X2381Y34710D01*
X2449Y34614D01*
X2531Y34530D01*
X2626Y34460D01*
X2730Y34406D01*
X2842Y34369D01*
X2958Y34349D01*
X3075Y34348D01*
X3192Y34366D01*
X3304Y34401D01*
X3409Y34454D01*
X3505Y34522D01*
X3589Y34604D01*
X3659Y34699D01*
X3713Y34803D01*
X3750Y34915D01*
X3770Y35031D01*
X3771Y35148D01*
X3753Y35265D01*
X3718Y35377D01*
X3623Y35648D01*
X3555Y35928D01*
X3513Y36213D01*
X3500Y36500D01*
X3513Y36788D01*
X3555Y37073D01*
X3623Y37353D01*
X3718Y37624D01*
X3754Y37736D01*
X3772Y37853D01*
X3771Y37971D01*
X3751Y38087D01*
X3714Y38198D01*
X3659Y38303D01*
X3589Y38398D01*
X3505Y38480D01*
X3409Y38548D01*
X3304Y38601D01*
X3192Y38636D01*
X3075Y38654D01*
X2957Y38653D01*
X2841Y38633D01*
X2730Y38596D01*
X2625Y38541D01*
X2530Y38471D01*
X2448Y38387D01*
X2380Y38291D01*
X2327Y38186D01*
X2185Y37779D01*
X2082Y37359D01*
X2020Y36932D01*
X2000Y36500D01*
Y46500D01*
X2020Y46069D01*
X2082Y45642D01*
X2185Y45222D01*
X2327Y44815D01*
X2381Y44710D01*
X2449Y44614D01*
X2531Y44530D01*
X2626Y44460D01*
X2730Y44406D01*
X2842Y44369D01*
X2958Y44349D01*
X3075Y44348D01*
X3192Y44366D01*
X3304Y44401D01*
X3409Y44454D01*
X3505Y44522D01*
X3589Y44604D01*
X3659Y44699D01*
X3713Y44803D01*
X3750Y44915D01*
X3770Y45031D01*
X3771Y45148D01*
X3753Y45265D01*
X3718Y45377D01*
X3623Y45648D01*
X3555Y45928D01*
X3513Y46213D01*
X3500Y46500D01*
X3513Y46788D01*
X3555Y47073D01*
X3623Y47353D01*
X3718Y47624D01*
X3754Y47736D01*
X3772Y47853D01*
X3771Y47971D01*
X3751Y48087D01*
X3714Y48198D01*
X3659Y48303D01*
X3589Y48398D01*
X3505Y48480D01*
X3409Y48548D01*
X3304Y48601D01*
X3192Y48636D01*
X3075Y48654D01*
X2957Y48653D01*
X2841Y48633D01*
X2730Y48596D01*
X2625Y48541D01*
X2530Y48471D01*
X2448Y48387D01*
X2380Y48291D01*
X2327Y48186D01*
X2185Y47779D01*
X2082Y47359D01*
X2020Y46932D01*
X2000Y46500D01*
Y56500D01*
X2020Y56069D01*
X2082Y55642D01*
X2185Y55222D01*
X2327Y54815D01*
X2381Y54710D01*
X2449Y54614D01*
X2531Y54530D01*
X2626Y54460D01*
X2730Y54406D01*
X2842Y54369D01*
X2958Y54349D01*
X3075Y54348D01*
X3192Y54366D01*
X3304Y54401D01*
X3409Y54454D01*
X3505Y54522D01*
X3589Y54604D01*
X3659Y54699D01*
X3713Y54803D01*
X3750Y54915D01*
X3770Y55031D01*
X3771Y55148D01*
X3753Y55265D01*
X3718Y55377D01*
X3623Y55648D01*
X3555Y55928D01*
X3513Y56213D01*
X3500Y56500D01*
X3513Y56788D01*
X3555Y57073D01*
X3623Y57353D01*
X3718Y57624D01*
X3754Y57736D01*
X3772Y57853D01*
X3771Y57971D01*
X3751Y58087D01*
X3714Y58198D01*
X3659Y58303D01*
X3589Y58398D01*
X3505Y58480D01*
X3409Y58548D01*
X3304Y58601D01*
X3192Y58636D01*
X3075Y58654D01*
X2957Y58653D01*
X2841Y58633D01*
X2730Y58596D01*
X2625Y58541D01*
X2530Y58471D01*
X2448Y58387D01*
X2380Y58291D01*
X2327Y58186D01*
X2185Y57779D01*
X2082Y57359D01*
X2020Y56932D01*
X2000Y56500D01*
Y66500D01*
X2020Y66069D01*
X2082Y65642D01*
X2185Y65222D01*
X2327Y64815D01*
X2381Y64710D01*
X2449Y64614D01*
X2531Y64530D01*
X2626Y64460D01*
X2730Y64406D01*
X2842Y64369D01*
X2958Y64349D01*
X3075Y64348D01*
X3192Y64366D01*
X3304Y64401D01*
X3409Y64454D01*
X3505Y64522D01*
X3589Y64604D01*
X3659Y64699D01*
X3713Y64803D01*
X3750Y64915D01*
X3770Y65031D01*
X3771Y65148D01*
X3753Y65265D01*
X3718Y65377D01*
X3623Y65648D01*
X3555Y65928D01*
X3513Y66213D01*
X3500Y66500D01*
X3513Y66788D01*
X3555Y67073D01*
X3623Y67353D01*
X3718Y67624D01*
X3754Y67736D01*
X3772Y67853D01*
X3771Y67971D01*
X3751Y68087D01*
X3714Y68198D01*
X3659Y68303D01*
X3589Y68398D01*
X3505Y68480D01*
X3409Y68548D01*
X3304Y68601D01*
X3192Y68636D01*
X3075Y68654D01*
X2957Y68653D01*
X2841Y68633D01*
X2730Y68596D01*
X2625Y68541D01*
X2530Y68471D01*
X2448Y68387D01*
X2380Y68291D01*
X2327Y68186D01*
X2185Y67779D01*
X2082Y67359D01*
X2020Y66932D01*
X2000Y66500D01*
Y76500D01*
X2020Y76069D01*
X2082Y75642D01*
X2185Y75222D01*
X2327Y74815D01*
X2381Y74710D01*
X2449Y74614D01*
X2531Y74530D01*
X2626Y74460D01*
X2730Y74406D01*
X2842Y74369D01*
X2958Y74349D01*
X3075Y74348D01*
X3192Y74366D01*
X3304Y74401D01*
X3409Y74454D01*
X3505Y74522D01*
X3589Y74604D01*
X3659Y74699D01*
X3713Y74803D01*
X3750Y74915D01*
X3770Y75031D01*
X3771Y75148D01*
X3753Y75265D01*
X3718Y75377D01*
X3623Y75648D01*
X3555Y75928D01*
X3513Y76213D01*
X3500Y76500D01*
X3513Y76788D01*
X3555Y77073D01*
X3623Y77353D01*
X3718Y77624D01*
X3754Y77736D01*
X3772Y77853D01*
X3771Y77971D01*
X3751Y78087D01*
X3714Y78198D01*
X3659Y78303D01*
X3589Y78398D01*
X3505Y78480D01*
X3409Y78548D01*
X3304Y78601D01*
X3192Y78636D01*
X3075Y78654D01*
X2957Y78653D01*
X2841Y78633D01*
X2730Y78596D01*
X2625Y78541D01*
X2530Y78471D01*
X2448Y78387D01*
X2380Y78291D01*
X2327Y78186D01*
X2185Y77779D01*
X2082Y77359D01*
X2020Y76932D01*
X2000Y76500D01*
Y86500D01*
X2020Y86069D01*
X2082Y85642D01*
X2185Y85222D01*
X2327Y84815D01*
X2381Y84710D01*
X2449Y84614D01*
X2531Y84530D01*
X2626Y84460D01*
X2730Y84406D01*
X2842Y84369D01*
X2958Y84349D01*
X3075Y84348D01*
X3192Y84366D01*
X3304Y84401D01*
X3409Y84454D01*
X3505Y84522D01*
X3589Y84604D01*
X3659Y84699D01*
X3713Y84803D01*
X3750Y84915D01*
X3770Y85031D01*
X3771Y85148D01*
X3753Y85265D01*
X3718Y85377D01*
X3623Y85648D01*
X3555Y85928D01*
X3513Y86213D01*
X3500Y86500D01*
X3513Y86788D01*
X3555Y87073D01*
X3623Y87353D01*
X3718Y87624D01*
X3754Y87736D01*
X3772Y87853D01*
X3771Y87971D01*
X3751Y88087D01*
X3714Y88198D01*
X3659Y88303D01*
X3589Y88398D01*
X3505Y88480D01*
X3409Y88548D01*
X3304Y88601D01*
X3192Y88636D01*
X3075Y88654D01*
X2957Y88653D01*
X2841Y88633D01*
X2730Y88596D01*
X2625Y88541D01*
X2530Y88471D01*
X2448Y88387D01*
X2380Y88291D01*
X2327Y88186D01*
X2185Y87779D01*
X2082Y87359D01*
X2020Y86932D01*
X2000Y86500D01*
Y96500D01*
X2020Y96069D01*
X2082Y95642D01*
X2185Y95222D01*
X2327Y94815D01*
X2381Y94710D01*
X2449Y94614D01*
X2531Y94530D01*
X2626Y94460D01*
X2730Y94406D01*
X2842Y94369D01*
X2958Y94349D01*
X3075Y94348D01*
X3192Y94366D01*
X3304Y94401D01*
X3409Y94454D01*
X3505Y94522D01*
X3589Y94604D01*
X3659Y94699D01*
X3713Y94803D01*
X3750Y94915D01*
X3770Y95031D01*
X3771Y95148D01*
X3753Y95265D01*
X3718Y95377D01*
X3623Y95648D01*
X3555Y95928D01*
X3513Y96213D01*
X3500Y96500D01*
X3513Y96788D01*
X3555Y97073D01*
X3623Y97353D01*
X3718Y97624D01*
X3754Y97736D01*
X3772Y97853D01*
X3771Y97971D01*
X3751Y98087D01*
X3714Y98198D01*
X3659Y98303D01*
X3589Y98398D01*
X3505Y98480D01*
X3409Y98548D01*
X3304Y98601D01*
X3192Y98636D01*
X3075Y98654D01*
X2957Y98653D01*
X2841Y98633D01*
X2730Y98596D01*
X2625Y98541D01*
X2530Y98471D01*
X2448Y98387D01*
X2380Y98291D01*
X2327Y98186D01*
X2185Y97779D01*
X2082Y97359D01*
X2020Y96932D01*
X2000Y96500D01*
Y106500D01*
X2020Y106069D01*
X2082Y105642D01*
X2185Y105222D01*
X2327Y104815D01*
X2381Y104710D01*
X2449Y104614D01*
X2531Y104530D01*
X2626Y104460D01*
X2730Y104406D01*
X2842Y104369D01*
X2958Y104349D01*
X3075Y104348D01*
X3192Y104366D01*
X3304Y104401D01*
X3409Y104454D01*
X3505Y104522D01*
X3589Y104604D01*
X3659Y104699D01*
X3713Y104803D01*
X3750Y104915D01*
X3770Y105031D01*
X3771Y105148D01*
X3753Y105265D01*
X3718Y105377D01*
X3623Y105648D01*
X3555Y105928D01*
X3513Y106213D01*
X3500Y106500D01*
X3513Y106788D01*
X3555Y107073D01*
X3623Y107353D01*
X3718Y107624D01*
X3754Y107736D01*
X3772Y107853D01*
X3771Y107971D01*
X3751Y108087D01*
X3714Y108198D01*
X3659Y108303D01*
X3589Y108398D01*
X3505Y108480D01*
X3409Y108548D01*
X3304Y108601D01*
X3192Y108636D01*
X3075Y108654D01*
X2957Y108653D01*
X2841Y108633D01*
X2730Y108596D01*
X2625Y108541D01*
X2530Y108471D01*
X2448Y108387D01*
X2380Y108291D01*
X2327Y108186D01*
X2185Y107779D01*
X2082Y107359D01*
X2020Y106932D01*
X2000Y106500D01*
Y116500D01*
X2020Y116069D01*
X2082Y115642D01*
X2185Y115222D01*
X2327Y114815D01*
X2381Y114710D01*
X2449Y114614D01*
X2531Y114530D01*
X2626Y114460D01*
X2730Y114406D01*
X2842Y114369D01*
X2958Y114349D01*
X3075Y114348D01*
X3192Y114366D01*
X3304Y114401D01*
X3409Y114454D01*
X3505Y114522D01*
X3589Y114604D01*
X3659Y114699D01*
X3713Y114803D01*
X3750Y114915D01*
X3770Y115031D01*
X3771Y115148D01*
X3753Y115265D01*
X3718Y115377D01*
X3623Y115648D01*
X3555Y115928D01*
X3513Y116213D01*
X3500Y116500D01*
X3513Y116788D01*
X3555Y117073D01*
X3623Y117353D01*
X3718Y117624D01*
X3754Y117736D01*
X3772Y117853D01*
X3771Y117971D01*
X3751Y118087D01*
X3714Y118198D01*
X3659Y118303D01*
X3589Y118398D01*
X3505Y118480D01*
X3409Y118548D01*
X3304Y118601D01*
X3192Y118636D01*
X3075Y118654D01*
X2957Y118653D01*
X2841Y118633D01*
X2730Y118596D01*
X2625Y118541D01*
X2530Y118471D01*
X2448Y118387D01*
X2380Y118291D01*
X2327Y118186D01*
X2185Y117779D01*
X2082Y117359D01*
X2020Y116932D01*
X2000Y116500D01*
Y125000D01*
X2009Y124883D01*
X2037Y124768D01*
X2082Y124660D01*
X2143Y124559D01*
X2220Y124470D01*
X2309Y124393D01*
X2410Y124332D01*
X2518Y124287D01*
X2633Y124259D01*
X2750Y124250D01*
X2867Y124259D01*
X2982Y124287D01*
X3090Y124332D01*
X3191Y124393D01*
X3280Y124470D01*
X3357Y124559D01*
X3418Y124660D01*
X3463Y124768D01*
X3491Y124883D01*
X3500Y125000D01*
Y128000D01*
X3491Y128117D01*
X3463Y128232D01*
X3418Y128340D01*
X3357Y128441D01*
X3280Y128530D01*
X3191Y128607D01*
X3090Y128668D01*
X2982Y128713D01*
X2867Y128741D01*
X2750Y128750D01*
X2633Y128741D01*
X2518Y128713D01*
X2410Y128668D01*
X2309Y128607D01*
X2220Y128530D01*
X2143Y128441D01*
X2082Y128340D01*
X2037Y128232D01*
X2009Y128117D01*
X2000Y128000D01*
Y141000D01*
X6500D01*
Y131000D01*
X5000D01*
X4883Y130991D01*
X4768Y130963D01*
X4660Y130918D01*
X4559Y130857D01*
X4470Y130780D01*
X4393Y130691D01*
X4332Y130590D01*
X4287Y130482D01*
X4259Y130367D01*
X4250Y130250D01*
X4259Y130133D01*
X4287Y130018D01*
X4332Y129910D01*
X4393Y129809D01*
X4470Y129720D01*
X4559Y129643D01*
X4660Y129582D01*
X4768Y129537D01*
X4883Y129509D01*
X5000Y129500D01*
X6500D01*
Y123500D01*
X5000D01*
X4883Y123491D01*
X4768Y123463D01*
X4660Y123418D01*
X4559Y123357D01*
X4470Y123280D01*
X4393Y123191D01*
X4332Y123090D01*
X4287Y122982D01*
X4259Y122867D01*
X4250Y122750D01*
X4259Y122633D01*
X4287Y122518D01*
X4332Y122410D01*
X4393Y122309D01*
X4470Y122220D01*
X4559Y122143D01*
X4660Y122082D01*
X4768Y122037D01*
X4883Y122009D01*
X5000Y122000D01*
X6500D01*
Y121000D01*
X6068Y120980D01*
X5641Y120918D01*
X5221Y120815D01*
X4814Y120673D01*
X4709Y120619D01*
X4613Y120551D01*
X4529Y120469D01*
X4459Y120374D01*
X4405Y120270D01*
X4368Y120158D01*
X4348Y120042D01*
X4347Y119925D01*
X4365Y119808D01*
X4400Y119696D01*
X4453Y119591D01*
X4521Y119495D01*
X4603Y119411D01*
X4698Y119341D01*
X4802Y119287D01*
X4914Y119250D01*
X5030Y119230D01*
X5147Y119229D01*
X5264Y119247D01*
X5376Y119282D01*
X5647Y119377D01*
X5927Y119445D01*
X6212Y119487D01*
X6500Y119500D01*
Y113500D01*
X6212Y113514D01*
X5927Y113556D01*
X5647Y113624D01*
X5376Y113719D01*
X5264Y113755D01*
X5147Y113773D01*
X5029Y113772D01*
X4913Y113752D01*
X4802Y113715D01*
X4697Y113660D01*
X4602Y113590D01*
X4520Y113506D01*
X4452Y113410D01*
X4399Y113305D01*
X4364Y113193D01*
X4346Y113076D01*
X4347Y112958D01*
X4367Y112842D01*
X4404Y112731D01*
X4459Y112626D01*
X4529Y112531D01*
X4613Y112449D01*
X4709Y112381D01*
X4814Y112328D01*
X5221Y112186D01*
X5641Y112083D01*
X6068Y112021D01*
X6500Y112000D01*
Y111000D01*
X6068Y110980D01*
X5641Y110918D01*
X5221Y110815D01*
X4814Y110673D01*
X4709Y110619D01*
X4613Y110551D01*
X4529Y110469D01*
X4459Y110374D01*
X4405Y110270D01*
X4368Y110158D01*
X4348Y110042D01*
X4347Y109925D01*
X4365Y109808D01*
X4400Y109696D01*
X4453Y109591D01*
X4521Y109495D01*
X4603Y109411D01*
X4698Y109341D01*
X4802Y109287D01*
X4914Y109250D01*
X5030Y109230D01*
X5147Y109229D01*
X5264Y109247D01*
X5376Y109282D01*
X5647Y109377D01*
X5927Y109445D01*
X6212Y109487D01*
X6500Y109500D01*
Y103500D01*
X6212Y103514D01*
X5927Y103556D01*
X5647Y103624D01*
X5376Y103719D01*
X5264Y103755D01*
X5147Y103773D01*
X5029Y103772D01*
X4913Y103752D01*
X4802Y103715D01*
X4697Y103660D01*
X4602Y103590D01*
X4520Y103506D01*
X4452Y103410D01*
X4399Y103305D01*
X4364Y103193D01*
X4346Y103076D01*
X4347Y102958D01*
X4367Y102842D01*
X4404Y102731D01*
X4459Y102626D01*
X4529Y102531D01*
X4613Y102449D01*
X4709Y102381D01*
X4814Y102328D01*
X5221Y102186D01*
X5641Y102083D01*
X6068Y102021D01*
X6500Y102000D01*
Y101000D01*
X6068Y100980D01*
X5641Y100918D01*
X5221Y100815D01*
X4814Y100673D01*
X4709Y100619D01*
X4613Y100551D01*
X4529Y100469D01*
X4459Y100374D01*
X4405Y100270D01*
X4368Y100158D01*
X4348Y100042D01*
X4347Y99925D01*
X4365Y99808D01*
X4400Y99696D01*
X4453Y99591D01*
X4521Y99495D01*
X4603Y99411D01*
X4698Y99341D01*
X4802Y99287D01*
X4914Y99250D01*
X5030Y99230D01*
X5147Y99229D01*
X5264Y99247D01*
X5376Y99282D01*
X5647Y99377D01*
X5927Y99445D01*
X6212Y99487D01*
X6500Y99500D01*
Y93500D01*
X6212Y93514D01*
X5927Y93556D01*
X5647Y93624D01*
X5376Y93719D01*
X5264Y93755D01*
X5147Y93773D01*
X5029Y93772D01*
X4913Y93752D01*
X4802Y93715D01*
X4697Y93660D01*
X4602Y93590D01*
X4520Y93506D01*
X4452Y93410D01*
X4399Y93305D01*
X4364Y93193D01*
X4346Y93076D01*
X4347Y92958D01*
X4367Y92842D01*
X4404Y92731D01*
X4459Y92626D01*
X4529Y92531D01*
X4613Y92449D01*
X4709Y92381D01*
X4814Y92328D01*
X5221Y92186D01*
X5641Y92083D01*
X6068Y92021D01*
X6500Y92000D01*
Y91000D01*
X6068Y90980D01*
X5641Y90918D01*
X5221Y90815D01*
X4814Y90673D01*
X4709Y90619D01*
X4613Y90551D01*
X4529Y90469D01*
X4459Y90374D01*
X4405Y90270D01*
X4368Y90158D01*
X4348Y90042D01*
X4347Y89925D01*
X4365Y89808D01*
X4400Y89696D01*
X4453Y89591D01*
X4521Y89495D01*
X4603Y89411D01*
X4698Y89341D01*
X4802Y89287D01*
X4914Y89250D01*
X5030Y89230D01*
X5147Y89229D01*
X5264Y89247D01*
X5376Y89282D01*
X5647Y89377D01*
X5927Y89445D01*
X6212Y89487D01*
X6500Y89500D01*
Y83500D01*
X6212Y83514D01*
X5927Y83556D01*
X5647Y83624D01*
X5376Y83719D01*
X5264Y83755D01*
X5147Y83773D01*
X5029Y83772D01*
X4913Y83752D01*
X4802Y83715D01*
X4697Y83660D01*
X4602Y83590D01*
X4520Y83506D01*
X4452Y83410D01*
X4399Y83305D01*
X4364Y83193D01*
X4346Y83076D01*
X4347Y82958D01*
X4367Y82842D01*
X4404Y82731D01*
X4459Y82626D01*
X4529Y82531D01*
X4613Y82449D01*
X4709Y82381D01*
X4814Y82328D01*
X5221Y82186D01*
X5641Y82083D01*
X6068Y82021D01*
X6500Y82000D01*
Y81000D01*
X6068Y80980D01*
X5641Y80918D01*
X5221Y80815D01*
X4814Y80673D01*
X4709Y80619D01*
X4613Y80551D01*
X4529Y80469D01*
X4459Y80374D01*
X4405Y80270D01*
X4368Y80158D01*
X4348Y80042D01*
X4347Y79925D01*
X4365Y79808D01*
X4400Y79696D01*
X4453Y79591D01*
X4521Y79495D01*
X4603Y79411D01*
X4698Y79341D01*
X4802Y79287D01*
X4914Y79250D01*
X5030Y79230D01*
X5147Y79229D01*
X5264Y79247D01*
X5376Y79282D01*
X5647Y79377D01*
X5927Y79445D01*
X6212Y79487D01*
X6500Y79500D01*
Y73500D01*
X6212Y73514D01*
X5927Y73556D01*
X5647Y73624D01*
X5376Y73719D01*
X5264Y73755D01*
X5147Y73773D01*
X5029Y73772D01*
X4913Y73752D01*
X4802Y73715D01*
X4697Y73660D01*
X4602Y73590D01*
X4520Y73506D01*
X4452Y73410D01*
X4399Y73305D01*
X4364Y73193D01*
X4346Y73076D01*
X4347Y72958D01*
X4367Y72842D01*
X4404Y72731D01*
X4459Y72626D01*
X4529Y72531D01*
X4613Y72449D01*
X4709Y72381D01*
X4814Y72328D01*
X5221Y72186D01*
X5641Y72083D01*
X6068Y72021D01*
X6500Y72000D01*
Y71000D01*
X6068Y70980D01*
X5641Y70918D01*
X5221Y70815D01*
X4814Y70673D01*
X4709Y70619D01*
X4613Y70551D01*
X4529Y70469D01*
X4459Y70374D01*
X4405Y70270D01*
X4368Y70158D01*
X4348Y70042D01*
X4347Y69925D01*
X4365Y69808D01*
X4400Y69696D01*
X4453Y69591D01*
X4521Y69495D01*
X4603Y69411D01*
X4698Y69341D01*
X4802Y69287D01*
X4914Y69250D01*
X5030Y69230D01*
X5147Y69229D01*
X5264Y69247D01*
X5376Y69282D01*
X5647Y69377D01*
X5927Y69445D01*
X6212Y69487D01*
X6500Y69500D01*
Y63500D01*
X6212Y63514D01*
X5927Y63556D01*
X5647Y63624D01*
X5376Y63719D01*
X5264Y63755D01*
X5147Y63773D01*
X5029Y63772D01*
X4913Y63752D01*
X4802Y63715D01*
X4697Y63660D01*
X4602Y63590D01*
X4520Y63506D01*
X4452Y63410D01*
X4399Y63305D01*
X4364Y63193D01*
X4346Y63076D01*
X4347Y62958D01*
X4367Y62842D01*
X4404Y62731D01*
X4459Y62626D01*
X4529Y62531D01*
X4613Y62449D01*
X4709Y62381D01*
X4814Y62328D01*
X5221Y62186D01*
X5641Y62083D01*
X6068Y62021D01*
X6500Y62000D01*
Y61000D01*
X6068Y60980D01*
X5641Y60918D01*
X5221Y60815D01*
X4814Y60673D01*
X4709Y60619D01*
X4613Y60551D01*
X4529Y60469D01*
X4459Y60374D01*
X4405Y60270D01*
X4368Y60158D01*
X4348Y60042D01*
X4347Y59925D01*
X4365Y59808D01*
X4400Y59696D01*
X4453Y59591D01*
X4521Y59495D01*
X4603Y59411D01*
X4698Y59341D01*
X4802Y59287D01*
X4914Y59250D01*
X5030Y59230D01*
X5147Y59229D01*
X5264Y59247D01*
X5376Y59282D01*
X5647Y59377D01*
X5927Y59445D01*
X6212Y59487D01*
X6500Y59500D01*
Y53500D01*
X6212Y53514D01*
X5927Y53556D01*
X5647Y53624D01*
X5376Y53719D01*
X5264Y53755D01*
X5147Y53773D01*
X5029Y53772D01*
X4913Y53752D01*
X4802Y53715D01*
X4697Y53660D01*
X4602Y53590D01*
X4520Y53506D01*
X4452Y53410D01*
X4399Y53305D01*
X4364Y53193D01*
X4346Y53076D01*
X4347Y52958D01*
X4367Y52842D01*
X4404Y52731D01*
X4459Y52626D01*
X4529Y52531D01*
X4613Y52449D01*
X4709Y52381D01*
X4814Y52328D01*
X5221Y52186D01*
X5641Y52083D01*
X6068Y52021D01*
X6500Y52000D01*
Y51000D01*
X6068Y50980D01*
X5641Y50918D01*
X5221Y50815D01*
X4814Y50673D01*
X4709Y50619D01*
X4613Y50551D01*
X4529Y50469D01*
X4459Y50374D01*
X4405Y50270D01*
X4368Y50158D01*
X4348Y50042D01*
X4347Y49925D01*
X4365Y49808D01*
X4400Y49696D01*
X4453Y49591D01*
X4521Y49495D01*
X4603Y49411D01*
X4698Y49341D01*
X4802Y49287D01*
X4914Y49250D01*
X5030Y49230D01*
X5147Y49229D01*
X5264Y49247D01*
X5376Y49282D01*
X5647Y49377D01*
X5927Y49445D01*
X6212Y49487D01*
X6500Y49500D01*
Y43500D01*
X6212Y43514D01*
X5927Y43556D01*
X5647Y43624D01*
X5376Y43719D01*
X5264Y43755D01*
X5147Y43773D01*
X5029Y43772D01*
X4913Y43752D01*
X4802Y43715D01*
X4697Y43660D01*
X4602Y43590D01*
X4520Y43506D01*
X4452Y43410D01*
X4399Y43305D01*
X4364Y43193D01*
X4346Y43076D01*
X4347Y42958D01*
X4367Y42842D01*
X4404Y42731D01*
X4459Y42626D01*
X4529Y42531D01*
X4613Y42449D01*
X4709Y42381D01*
X4814Y42328D01*
X5221Y42186D01*
X5641Y42083D01*
X6068Y42021D01*
X6500Y42000D01*
Y41000D01*
X6068Y40980D01*
X5641Y40918D01*
X5221Y40815D01*
X4814Y40673D01*
X4709Y40619D01*
X4613Y40551D01*
X4529Y40469D01*
X4459Y40374D01*
X4405Y40270D01*
X4368Y40158D01*
X4348Y40042D01*
X4347Y39925D01*
X4365Y39808D01*
X4400Y39696D01*
X4453Y39591D01*
X4521Y39495D01*
X4603Y39411D01*
X4698Y39341D01*
X4802Y39287D01*
X4914Y39250D01*
X5030Y39230D01*
X5147Y39229D01*
X5264Y39247D01*
X5376Y39282D01*
X5647Y39377D01*
X5927Y39445D01*
X6212Y39487D01*
X6500Y39500D01*
Y33500D01*
X6212Y33514D01*
X5927Y33556D01*
X5647Y33624D01*
X5376Y33719D01*
X5264Y33755D01*
X5147Y33773D01*
X5029Y33772D01*
X4913Y33752D01*
X4802Y33715D01*
X4697Y33660D01*
X4602Y33590D01*
X4520Y33506D01*
X4452Y33410D01*
X4399Y33305D01*
X4364Y33193D01*
X4346Y33076D01*
X4347Y32958D01*
X4367Y32842D01*
X4404Y32731D01*
X4459Y32626D01*
X4529Y32531D01*
X4613Y32449D01*
X4709Y32381D01*
X4814Y32328D01*
X5221Y32186D01*
X5641Y32083D01*
X6068Y32021D01*
X6500Y32000D01*
Y31000D01*
X6068Y30980D01*
X5641Y30918D01*
X5221Y30815D01*
X4814Y30673D01*
X4709Y30619D01*
X4613Y30551D01*
X4529Y30469D01*
X4459Y30374D01*
X4405Y30270D01*
X4368Y30158D01*
X4348Y30042D01*
X4347Y29925D01*
X4365Y29808D01*
X4400Y29696D01*
X4453Y29591D01*
X4521Y29495D01*
X4603Y29411D01*
X4698Y29341D01*
X4802Y29287D01*
X4914Y29250D01*
X5030Y29230D01*
X5147Y29229D01*
X5264Y29247D01*
X5376Y29282D01*
X5647Y29377D01*
X5927Y29445D01*
X6212Y29487D01*
X6500Y29500D01*
Y23500D01*
X6212Y23514D01*
X5927Y23556D01*
X5647Y23624D01*
X5376Y23719D01*
X5264Y23755D01*
X5147Y23773D01*
X5029Y23772D01*
X4913Y23752D01*
X4802Y23715D01*
X4697Y23660D01*
X4602Y23590D01*
X4520Y23506D01*
X4452Y23410D01*
X4399Y23305D01*
X4364Y23193D01*
X4346Y23076D01*
X4347Y22958D01*
X4367Y22842D01*
X4404Y22731D01*
X4459Y22626D01*
X4529Y22531D01*
X4613Y22449D01*
X4709Y22381D01*
X4814Y22328D01*
X5221Y22186D01*
X5641Y22083D01*
X6068Y22021D01*
X6500Y22000D01*
Y21000D01*
X6068Y20980D01*
X5641Y20918D01*
X5221Y20815D01*
X4814Y20673D01*
X4709Y20619D01*
X4613Y20551D01*
X4529Y20469D01*
X4459Y20374D01*
X4405Y20270D01*
X4368Y20158D01*
X4348Y20042D01*
X4347Y19925D01*
X4365Y19808D01*
X4400Y19696D01*
X4453Y19591D01*
X4521Y19495D01*
X4603Y19411D01*
X4698Y19341D01*
X4802Y19287D01*
X4914Y19250D01*
X5030Y19230D01*
X5147Y19229D01*
X5264Y19247D01*
X5376Y19282D01*
X5647Y19377D01*
X5927Y19445D01*
X6212Y19487D01*
X6500Y19500D01*
Y13500D01*
X6212Y13514D01*
X5927Y13556D01*
X5647Y13624D01*
X5376Y13719D01*
X5264Y13755D01*
X5147Y13773D01*
X5029Y13772D01*
X4913Y13752D01*
X4802Y13715D01*
X4697Y13660D01*
X4602Y13590D01*
X4520Y13506D01*
X4452Y13410D01*
X4399Y13305D01*
X4364Y13193D01*
X4346Y13076D01*
X4347Y12958D01*
X4367Y12842D01*
X4404Y12731D01*
X4459Y12626D01*
X4529Y12531D01*
X4613Y12449D01*
X4709Y12381D01*
X4814Y12328D01*
X5221Y12186D01*
X5641Y12083D01*
X6068Y12021D01*
X6500Y12000D01*
Y1601D01*
X2000D01*
G37*
G54D15*X500Y142500D02*X102500D01*
Y500D01*
X500D01*
Y142500D01*
G54D16*X6500Y86500D03*
Y76500D03*
Y66500D03*
Y56500D03*
Y46500D03*
Y36500D03*
Y26500D03*
Y16500D03*
G54D12*G36*
X23500Y9500D02*Y3500D01*
X29500D01*
Y9500D01*
X23500D01*
G37*
G54D16*X36500Y6500D03*
X46500D03*
X56500D03*
X66500D03*
X76500D03*
X96500Y96500D03*
Y86500D03*
Y76500D03*
Y66500D03*
G54D12*G36*
X93500Y129500D02*Y123500D01*
X99500D01*
Y129500D01*
X93500D01*
G37*
G54D16*X96500Y116500D03*
Y106500D03*
Y56500D03*
Y46500D03*
Y36500D03*
Y26500D03*
Y16500D03*
G54D12*G36*
X3500Y129500D02*Y123500D01*
X9500D01*
Y129500D01*
X3500D01*
G37*
G54D16*X6500Y116500D03*
Y106500D03*
Y96500D03*
G54D12*G36*
X13500Y139500D02*Y133500D01*
X19500D01*
Y139500D01*
X13500D01*
G37*
G54D16*X26500Y136500D03*
X36500D03*
X46500D03*
X56500D03*
X66500D03*
X76500D03*
X86500D03*
G54D22*M02*
