G04 start of page 7 for group -4079 idx -4079 *
G04 Title: (unknown), topsilk *
G04 Creator: pcb 20100929 *
G04 CreationDate: Mon Oct  3 15:02:58 2011 UTC *
G04 For: user1 *
G04 Format: Gerber/RS-274X *
G04 PCB-Dimensions: 200000 300000 *
G04 PCB-Coordinate-Origin: lower left *
%MOIN*%
%FSLAX25Y25*%
%LNFRONTSILK*%
%ADD11C,0.0200*%
%ADD29C,0.0100*%
%ADD30C,0.0130*%
%ADD31C,0.0110*%
G54D11*X51000Y250500D02*Y117500D01*
X134000D01*
Y250500D01*
X51000D01*
G54D29*X82000Y221750D02*X101000D01*
X82000D02*Y190750D01*
X101000D01*
Y221750D02*Y208750D01*
Y203750D02*Y190750D01*
Y208750D02*G75*G03X101000Y203750I0J-2500D01*G01*
G54D30*X112740Y218621D02*Y213897D01*
X105260Y218621D02*Y213897D01*
G54D31*X100566Y234134D02*Y225866D01*
X81472D02*X100566D01*
X81472Y234134D02*Y225866D01*
Y234134D02*X100566D01*
G54D30*X115240Y184362D02*Y179638D01*
X107760Y184362D02*Y179638D01*
X114255Y164893D02*Y164107D01*
X108745Y164893D02*Y164107D01*
X115240Y148862D02*Y144138D01*
X107760Y148862D02*Y144138D01*
G54D29*X82000Y180000D02*X101000D01*
X82000D02*Y149000D01*
X101000D01*
Y180000D02*Y167000D01*
Y162000D02*Y149000D01*
Y167000D02*G75*G03X101000Y162000I0J-2500D01*G01*
G54D30*X65032Y191314D02*X68968D01*
X65032Y180686D02*X68968D01*
X65032Y149814D02*X68968D01*
X65032Y139186D02*X68968D01*
G54D29*X56000Y119500D02*X116000D01*
Y129500D02*Y119500D01*
X56000Y129500D02*X116000D01*
X56000D02*Y119500D01*
X66000Y129500D02*Y119500D01*
X56000Y129500D02*X66000D01*
G54D30*X65032Y211314D02*X68968D01*
X65032Y200686D02*X68968D01*
X65032Y169814D02*X68968D01*
X65032Y159186D02*X68968D01*
G54D29*X105000Y200750D02*X108500D01*
X105000D02*X104500Y200250D01*
Y199250D01*
X105000Y198750D01*
X108500D01*
X104500Y197049D02*Y196049D01*
Y196549D02*X108500D01*
X107500Y197549D02*X108500Y196549D01*
X118650Y213909D02*Y211909D01*
X118150Y211409D01*
X117150D02*X118150D01*
X116650Y211909D02*X117150Y211409D01*
X116650Y213409D02*Y211909D01*
X114650Y213409D02*X118650D01*
X116650D02*X114650Y211409D01*
Y209708D02*Y208708D01*
Y209208D02*X118650D01*
X117650Y210208D02*X118650Y209208D01*
X89531Y239827D02*Y235827D01*
X91031Y239827D02*X91531Y239327D01*
Y236327D01*
X91031Y235827D02*X91531Y236327D01*
X89031Y235827D02*X91031D01*
X89031Y239827D02*X91031D01*
X93232Y235827D02*X94232D01*
X93732Y239827D02*Y235827D01*
X92732Y238827D02*X93732Y239827D01*
X122150Y185693D02*Y183693D01*
X121650Y183193D01*
X120650D02*X121650D01*
X120150Y183693D02*X120650Y183193D01*
X120150Y185193D02*Y183693D01*
X118150Y185193D02*X122150D01*
X120150D02*X118150Y183193D01*
X121650Y181992D02*X122150Y181492D01*
Y179992D01*
X121650Y179492D01*
X120650D02*X121650D01*
X118150Y181992D02*X120650Y179492D01*
X118150Y181992D02*Y179492D01*
X119650Y167607D02*Y165607D01*
X119150Y165107D01*
X118150D02*X119150D01*
X117650Y165607D02*X118150Y165107D01*
X117650Y167107D02*Y165607D01*
X115650Y167107D02*X119650D01*
X117650D02*X115650Y165107D01*
X119150Y163906D02*X119650Y163406D01*
Y162406D01*
X119150Y161906D01*
X116150D02*X119150D01*
X115650Y162406D02*X116150Y161906D01*
X115650Y163406D02*Y162406D01*
X116150Y163906D02*X115650Y163406D01*
X117650D02*Y161906D01*
X120650Y149607D02*Y147607D01*
X120150Y147107D01*
X119150D02*X120150D01*
X118650Y147607D02*X119150Y147107D01*
X118650Y149107D02*Y147607D01*
X116650Y149107D02*X120650D01*
X118650D02*X116650Y147107D01*
X118650Y145906D02*X120650Y143906D01*
X118650Y145906D02*Y143406D01*
X116650Y143906D02*X120650D01*
X103000Y167500D02*X106500D01*
X103000D02*X102500Y167000D01*
Y166000D01*
X103000Y165500D01*
X106500D01*
X106000Y164299D02*X106500Y163799D01*
Y162299D01*
X106000Y161799D01*
X105000D02*X106000D01*
X102500Y164299D02*X105000Y161799D01*
X102500Y164299D02*Y161799D01*
X64850Y192650D02*X66350D01*
X64350Y193150D02*X64850Y192650D01*
X64350Y196150D02*Y193150D01*
Y196150D02*X64850Y196650D01*
X66350D01*
X67551Y196150D02*X68051Y196650D01*
X69051D01*
X69551Y196150D01*
Y193150D01*
X69051Y192650D02*X69551Y193150D01*
X68051Y192650D02*X69051D01*
X67551Y193150D02*X68051Y192650D01*
Y194650D02*X69551D01*
X64393Y151650D02*X65893D01*
X63893Y152150D02*X64393Y151650D01*
X63893Y155150D02*Y152150D01*
Y155150D02*X64393Y155650D01*
X65893D01*
X67094Y155150D02*X67594Y155650D01*
X69094D01*
X69594Y155150D01*
Y154150D01*
X67094Y151650D02*X69594Y154150D01*
X67094Y151650D02*X69594D01*
X56500Y130500D02*X58000D01*
X56000Y131000D02*X56500Y130500D01*
X56000Y134000D02*Y131000D01*
Y134000D02*X56500Y134500D01*
X58000D01*
X59201Y134000D02*Y131000D01*
Y134000D02*X59701Y134500D01*
X60701D01*
X61201Y134000D01*
Y131000D01*
X60701Y130500D02*X61201Y131000D01*
X59701Y130500D02*X60701D01*
X59201Y131000D02*X59701Y130500D01*
X62402Y134500D02*Y130500D01*
Y134500D02*Y134000D01*
X64902Y131500D01*
Y134500D02*Y130500D01*
X66103Y134500D02*Y130500D01*
Y134500D02*Y134000D01*
X68603Y131500D01*
Y134500D02*Y130500D01*
X70304D02*X71304D01*
X70804Y134500D02*Y130500D01*
X69804Y133500D02*X70804Y134500D01*
X64755Y212650D02*X66255D01*
X64255Y213150D02*X64755Y212650D01*
X64255Y216150D02*Y213150D01*
Y216150D02*X64755Y216650D01*
X66255D01*
X67456Y214650D02*X69456Y216650D01*
X67456Y214650D02*X69956D01*
X69456Y216650D02*Y212650D01*
X64850Y171150D02*X66350D01*
X64350Y171650D02*X64850Y171150D01*
X64350Y174650D02*Y171650D01*
Y174650D02*X64850Y175150D01*
X66350D01*
X67551D02*X69551D01*
X67551D02*Y173150D01*
X68051Y173650D01*
X69051D01*
X69551Y173150D01*
Y171650D01*
X69051Y171150D02*X69551Y171650D01*
X68051Y171150D02*X69051D01*
X67551Y171650D02*X68051Y171150D01*
M02*
