G04 start of page 2 for group 0 idx 0 *
G04 Title: (unknown), component *
G04 Creator: pcb 20100929 *
G04 CreationDate: Mon Oct  3 15:02:58 2011 UTC *
G04 For: user1 *
G04 Format: Gerber/RS-274X *
G04 PCB-Dimensions: 200000 300000 *
G04 PCB-Coordinate-Origin: lower left *
%MOIN*%
%FSLAX25Y25*%
%LNFRONT*%
%ADD11C,0.0200*%
%ADD12C,0.0400*%
%ADD13C,0.0150*%
%ADD14C,0.0250*%
%ADD15C,0.0600*%
%ADD16C,0.0410*%
%ADD17R,0.0512X0.0512*%
%ADD18R,0.0200X0.0200*%
%ADD19R,0.0315X0.0315*%
%ADD20R,0.0315X0.0315*%
%ADD21R,0.0394X0.0394*%
%ADD22C,0.0380*%
G54D11*X75500Y177500D02*X80000Y182000D01*
X65500Y171905D02*X72905Y164500D01*
X68500Y180000D02*X71000Y177500D01*
X75500D01*
X80500Y164500D02*X72905D01*
X72405Y164000D02*X72905Y164500D01*
X84000Y174750D02*Y168000D01*
X80500Y164500D01*
G54D12*X61095Y206000D02*Y138405D01*
G54D11*X89000Y223500D02*X61000D01*
G54D12*Y241250D02*Y206095D01*
X61095Y206000D01*
G54D11*X89000Y216500D02*Y210000D01*
X94000Y196000D02*Y185000D01*
X87000Y182000D02*X89000Y180000D01*
X80000Y182000D02*X87000D01*
X102000Y185000D02*X73905D01*
X70000Y206000D02*X65500Y201500D01*
X70000Y206000D02*X79500D01*
X84000Y210500D01*
X89000Y210000D02*X75500Y196500D01*
X65500Y201500D02*Y171905D01*
X73905Y185000D02*X72905Y186000D01*
X75500Y196500D02*X72000D01*
X68500Y193000D01*
Y180000D01*
X67000Y154000D02*Y139500D01*
X94000Y170500D02*X97500Y167000D01*
X94000Y174750D02*Y170500D01*
X89000Y154250D02*Y159500D01*
X91000Y161500D01*
X89000Y180000D02*Y174750D01*
X97500Y167000D02*X110457D01*
X91000Y161500D02*X110957D01*
X111500Y160957D01*
X94000Y154250D02*Y146500D01*
X117000D02*X74905D01*
X72905Y144500D01*
X101000Y136500D02*X105000Y140500D01*
X111405D01*
X111500Y140595D01*
X72905Y167155D02*Y159905D01*
X67000Y154000D01*
X120500Y177500D02*Y150000D01*
G54D12*X121000Y216500D02*Y241250D01*
G54D11*X125000Y142500D02*Y212500D01*
X121000Y216500D01*
X116000Y182000D02*X120500Y177500D01*
X105000Y182000D02*X116000D01*
X110095Y177500D02*X111500Y176095D01*
Y168043D02*Y176095D01*
X109957Y166500D02*X111500Y168043D01*
X110457Y167000D02*X111500Y168043D01*
Y160957D02*Y152405D01*
X111000Y124500D02*Y128500D01*
X117000Y146500D02*X120500Y150000D01*
X111000Y128500D02*X125000Y142500D01*
X129500Y246000D02*Y122000D01*
G54D13*X89000Y212250D02*X92500Y208750D01*
X101000D02*X103000Y210750D01*
X92500Y208750D02*X101000D01*
G54D11*X91500Y204000D02*X102646D01*
X89000Y201500D02*X91500Y204000D01*
X89000Y196000D02*Y201500D01*
X102646Y204000D02*X109000Y210354D01*
X110905Y208449D02*X109000Y210354D01*
X110905Y188500D02*Y208449D01*
Y188500D02*X111500Y187905D01*
X102000Y185000D02*X105000Y182000D01*
G54D14*X98007Y230001D02*X101163D01*
X94000Y225994D02*X98007Y230001D01*
X101163D02*X109000Y222164D01*
G54D13*Y222250D01*
X103000Y213250D02*X106000Y216250D01*
X103000Y210750D02*Y213250D01*
X106000Y216250D02*X120000D01*
G54D12*X61000Y241250D02*X121000D01*
G54D11*X55000Y246000D02*X129500D01*
G54D14*X84030Y232166D02*X86834D01*
X89000Y230000D01*
Y216500D01*
G54D11*X84000D02*Y213595D01*
Y210500D02*Y216500D01*
G54D14*X94000D02*Y225994D01*
G54D11*X91000Y124500D02*Y146500D01*
X101000Y124500D02*Y136500D01*
X55000Y246000D02*Y130500D01*
X61000Y124500D01*
X67000Y139500D02*X72500Y134000D01*
X79000D01*
X81000Y132000D01*
Y124500D01*
G54D12*X61095Y138405D02*X71000Y128500D01*
Y124500D01*
G54D11*G36*
X58000Y127500D02*Y121500D01*
X64000D01*
Y127500D01*
X58000D01*
G37*
G54D15*X71000Y124500D03*
X81000D03*
X91000D03*
X101000D03*
X111000D03*
G54D16*X129500Y246000D03*
X55000D03*
G54D17*X110319Y187905D02*X112681D01*
X110319Y176095D02*X112681D01*
X111107Y168043D02*X111893D01*
X111107Y160957D02*X111893D01*
X110319Y152405D02*X112681D01*
X110319Y140595D02*X112681D01*
G54D18*X99000Y178000D02*Y171500D01*
X94000Y178000D02*Y171500D01*
X89000Y178000D02*Y171500D01*
X84000Y178000D02*Y171500D01*
Y157500D02*Y151000D01*
X89000Y157500D02*Y151000D01*
X94000Y157500D02*Y151000D01*
X99000Y157500D02*Y151000D01*
G54D17*X61095Y188755D02*Y183245D01*
Y147255D02*Y141745D01*
Y167255D02*Y161745D01*
X72905Y188755D02*Y183245D01*
Y147255D02*Y141745D01*
Y167255D02*Y161745D01*
G54D18*X84000Y199250D02*Y192750D01*
X89000Y199250D02*Y192750D01*
X94000Y199250D02*Y192750D01*
G54D17*X61095Y208755D02*Y203245D01*
X72905Y208755D02*Y203245D01*
G54D18*X99000Y219750D02*Y213250D01*
X94000Y219750D02*Y213250D01*
X89000Y219750D02*Y213250D01*
X84000Y219750D02*Y213250D01*
X99000Y199250D02*Y192750D01*
G54D17*X107819Y222164D02*X110181D01*
X107819Y210354D02*X110181D01*
G54D19*X83440Y232166D02*X84621D01*
G54D20*X83441Y227835D02*X84621D01*
G54D21*X97810Y230001D02*X98204D01*
G54D22*G54D11*M02*
