G04 start of page 5 for group -4063 idx -4063 *
G04 Title: (unknown), componentmask *
G04 Creator: pcb 20100929 *
G04 CreationDate: Mon Oct  3 15:02:58 2011 UTC *
G04 For: user1 *
G04 Format: Gerber/RS-274X *
G04 PCB-Dimensions: 200000 300000 *
G04 PCB-Coordinate-Origin: lower left *
%MOIN*%
%FSLAX25Y25*%
%LNFRONTMASK*%
%ADD11C,0.0200*%
%ADD23C,0.0660*%
%ADD24R,0.0572X0.0572*%
%ADD25R,0.0300X0.0300*%
%ADD26R,0.0375X0.0375*%
%ADD27R,0.0375X0.0375*%
%ADD28R,0.0454X0.0454*%
G54D11*G36*
X57700Y127800D02*Y121200D01*
X64300D01*
Y127800D01*
X57700D01*
G37*
G54D23*X71000Y124500D03*
X81000D03*
X91000D03*
X101000D03*
X111000D03*
G54D24*X110319Y187905D02*X112681D01*
X110319Y176095D02*X112681D01*
X111107Y168043D02*X111893D01*
X111107Y160957D02*X111893D01*
X110319Y152405D02*X112681D01*
X110319Y140595D02*X112681D01*
G54D25*X99000Y178000D02*Y171500D01*
X94000Y178000D02*Y171500D01*
X89000Y178000D02*Y171500D01*
X84000Y178000D02*Y171500D01*
Y157500D02*Y151000D01*
X89000Y157500D02*Y151000D01*
X94000Y157500D02*Y151000D01*
X99000Y157500D02*Y151000D01*
G54D24*X61095Y188755D02*Y183245D01*
Y147255D02*Y141745D01*
Y167255D02*Y161745D01*
X72905Y188755D02*Y183245D01*
Y147255D02*Y141745D01*
Y167255D02*Y161745D01*
G54D25*X84000Y199250D02*Y192750D01*
X89000Y199250D02*Y192750D01*
X94000Y199250D02*Y192750D01*
G54D24*X61095Y208755D02*Y203245D01*
X72905Y208755D02*Y203245D01*
G54D25*X99000Y219750D02*Y213250D01*
X94000Y219750D02*Y213250D01*
X89000Y219750D02*Y213250D01*
X84000Y219750D02*Y213250D01*
X99000Y199250D02*Y192750D01*
G54D24*X107819Y222164D02*X110181D01*
X107819Y210354D02*X110181D01*
G54D26*X83440Y232166D02*X84621D01*
G54D27*X83441Y227835D02*X84621D01*
G54D28*X97810Y230001D02*X98204D01*
M02*
