G04 start of page 6 for group -4062 idx -4062 *
G04 Title: (unknown), soldermask *
G04 Creator: pcb 20100929 *
G04 CreationDate: Wed Oct  5 19:14:07 2011 UTC *
G04 For: user1 *
G04 Format: Gerber/RS-274X *
G04 PCB-Dimensions: 200000 300000 *
G04 PCB-Coordinate-Origin: lower left *
%MOIN*%
%FSLAX25Y25*%
%LNBACKMASK*%
%ADD12C,0.0200*%
%ADD22C,0.0660*%
G54D22*X47000Y204500D03*
Y194500D03*
Y184500D03*
Y174500D03*
Y164500D03*
Y154500D03*
Y144500D03*
Y134500D03*
G54D12*G36*
X63700Y127800D02*Y121200D01*
X70300D01*
Y127800D01*
X63700D01*
G37*
G54D22*X77000Y124500D03*
X87000D03*
X97000D03*
X107000D03*
X117000D03*
X137000Y214500D03*
Y204500D03*
Y194500D03*
Y184500D03*
G54D12*G36*
X133700Y247800D02*Y241200D01*
X140300D01*
Y247800D01*
X133700D01*
G37*
G54D22*X137000Y234500D03*
Y224500D03*
Y174500D03*
Y164500D03*
Y154500D03*
Y144500D03*
Y134500D03*
G54D12*G36*
X43700Y247800D02*Y241200D01*
X50300D01*
Y247800D01*
X43700D01*
G37*
G54D22*X47000Y234500D03*
Y224500D03*
Y214500D03*
G54D12*G36*
X53700Y257800D02*Y251200D01*
X60300D01*
Y257800D01*
X53700D01*
G37*
G54D22*X67000Y254500D03*
X77000D03*
X87000D03*
X97000D03*
X107000D03*
X117000D03*
X127000D03*
M02*
