G04 start of page 8 for group -4015 idx -4015 *
G04 Title: (unknown), toppaste *
G04 Creator: pcb 20100929 *
G04 CreationDate: Wed Oct  5 19:14:07 2011 UTC *
G04 For: user1 *
G04 Format: Gerber/RS-274X *
G04 PCB-Dimensions: 200000 300000 *
G04 PCB-Coordinate-Origin: lower left *
%MOIN*%
%FSLAX25Y25*%
%LNFRONTPASTE*%
%ADD16R,0.0512X0.0512*%
%ADD17R,0.0200X0.0200*%
%ADD18R,0.0315X0.0315*%
%ADD19R,0.0315X0.0315*%
%ADD20R,0.0394X0.0394*%
G54D16*X61095Y167255D02*Y161745D01*
X72905Y167255D02*Y161745D01*
X61095Y208755D02*Y203245D01*
X72905Y208755D02*Y203245D01*
X61095Y147255D02*Y141745D01*
X72905Y147255D02*Y141745D01*
X61095Y188755D02*Y183245D01*
X72905Y188755D02*Y183245D01*
G54D18*X83440Y232166D02*X84621D01*
G54D19*X83441Y227835D02*X84621D01*
G54D20*X97810Y230001D02*X98204D01*
G54D17*X99000Y178000D02*Y171500D01*
X94000Y178000D02*Y171500D01*
X89000Y178000D02*Y171500D01*
X84000Y178000D02*Y171500D01*
Y157500D02*Y151000D01*
X89000Y157500D02*Y151000D01*
X94000Y157500D02*Y151000D01*
X99000Y157500D02*Y151000D01*
G54D16*X110319Y152405D02*X112681D01*
X110319Y140595D02*X112681D01*
X111107Y168043D02*X111893D01*
X111107Y160957D02*X111893D01*
X110319Y187905D02*X112681D01*
X110319Y176095D02*X112681D01*
X107819Y222164D02*X110181D01*
X107819Y210354D02*X110181D01*
G54D17*X99000Y219750D02*Y213250D01*
X94000Y219750D02*Y213250D01*
X89000Y219750D02*Y213250D01*
X84000Y219750D02*Y213250D01*
Y199250D02*Y192750D01*
X89000Y199250D02*Y192750D01*
X94000Y199250D02*Y192750D01*
X99000Y199250D02*Y192750D01*
M02*
