M48
INCH
T21C0.038
%
T21
X004700Y020450
X004700Y019450
X004700Y018450
X004700Y017450
X004700Y016450
X004700Y015450
X004700Y014450
X004700Y013450
X006700Y012450
X007700Y012450
X008700Y012450
X009700Y012450
X010700Y012450
X011700Y012450
X013700Y021450
X013700Y020450
X013700Y019450
X013700Y018450
X013700Y024450
X013700Y023450
X013700Y022450
X013700Y017450
X013700Y016450
X013700Y015450
X013700Y014450
X013700Y013450
X004700Y024450
X004700Y023450
X004700Y022450
X004700Y021450
X005700Y025450
X006700Y025450
X007700Y025450
X008700Y025450
X009700Y025450
X010700Y025450
X011700Y025450
X012700Y025450
M30
