G04 start of page 7 for group -4079 idx -4079 *
G04 Title: (unknown), topsilk *
G04 Creator: pcb 20100929 *
G04 CreationDate: Wed Oct  5 19:14:07 2011 UTC *
G04 For: user1 *
G04 Format: Gerber/RS-274X *
G04 PCB-Dimensions: 200000 300000 *
G04 PCB-Coordinate-Origin: lower left *
%MOIN*%
%FSLAX25Y25*%
%LNFRONTSILK*%
%ADD28C,0.0100*%
%ADD29C,0.0130*%
%ADD30C,0.0110*%
G54D28*X126500Y218000D02*X130500D01*
Y218500D02*Y216500D01*
X130000Y216000D01*
X129000D02*X130000D01*
X128500Y216500D02*X129000Y216000D01*
X128500Y218000D02*Y216500D01*
X126500Y214799D02*X130500D01*
X128000D02*X128500Y214299D01*
Y213299D01*
X128000Y212799D01*
X126500D02*X128000D01*
X127000Y211598D02*X128000D01*
X128500Y211098D01*
Y210098D01*
X128000Y209598D01*
X127000D02*X128000D01*
X126500Y210098D02*X127000Y209598D01*
X126500Y211098D02*Y210098D01*
X127000Y211598D02*X126500Y211098D01*
X127000Y207897D02*X130500D01*
X127000D02*X126500Y207397D01*
X129000Y208397D02*Y207397D01*
X127000Y206396D02*X128000D01*
X128500Y205896D01*
Y204896D01*
X128000Y204396D01*
X127000D02*X128000D01*
X126500Y204896D02*X127000Y204396D01*
X126500Y205896D02*Y204896D01*
X127000Y206396D02*X126500Y205896D01*
Y202695D02*X128000D01*
X128500Y202195D01*
Y201695D01*
X128000Y201195D01*
X126500D02*X128000D01*
X128500Y200695D01*
Y200195D01*
X128000Y199695D01*
X126500D02*X128000D01*
X128500Y203195D02*X128000Y202695D01*
X126500Y197994D02*Y196494D01*
X127000Y198494D02*X126500Y197994D01*
X127000Y198494D02*X128000D01*
X128500Y197994D01*
Y196994D01*
X128000Y196494D01*
X127500Y198494D02*Y196494D01*
X128000D01*
X127000Y194793D02*X130500D01*
X127000D02*X126500Y194293D01*
X129000Y195293D02*Y194293D01*
X126500Y192792D02*Y191292D01*
X127000Y193292D02*X126500Y192792D01*
X127000Y193292D02*X128000D01*
X128500Y192792D01*
Y191792D01*
X128000Y191292D01*
X127500Y193292D02*Y191292D01*
X128000D01*
X126500Y189591D02*X128000D01*
X128500Y189091D01*
Y188091D01*
Y190091D02*X128000Y189591D01*
X128500Y185090D02*Y183590D01*
X126500Y185090D02*Y183090D01*
Y185090D02*X130500D01*
Y183090D01*
X128500Y180389D02*X128000Y179889D01*
X128500Y181389D02*Y180389D01*
X128000Y181889D02*X128500Y181389D01*
X127000Y181889D02*X128000D01*
X127000D02*X126500Y181389D01*
X127000Y179889D02*X128500D01*
X127000D02*X126500Y179389D01*
Y181389D02*Y180389D01*
X127000Y179889D01*
Y177688D02*X130500D01*
X127000D02*X126500Y177188D01*
X129000Y178188D02*Y177188D01*
X127000Y176187D02*X128000D01*
X128500Y175687D01*
Y174687D01*
X128000Y174187D01*
X127000D02*X128000D01*
X126500Y174687D02*X127000Y174187D01*
X126500Y175687D02*Y174687D01*
X127000Y176187D02*X126500Y175687D01*
Y172486D02*X128000D01*
X128500Y171986D01*
Y171486D01*
X128000Y170986D01*
X126500D02*X128000D01*
X128500Y172986D02*X128000Y172486D01*
X126500Y167485D02*X130500D01*
Y167985D02*Y165985D01*
X130000Y165485D01*
X129000D02*X130000D01*
X128500Y165985D02*X129000Y165485D01*
X128500Y167485D02*Y165985D01*
X126500Y163784D02*Y162284D01*
X127000Y164284D02*X126500Y163784D01*
X127000Y164284D02*X128000D01*
X128500Y163784D01*
Y162784D01*
X128000Y162284D01*
X127500Y164284D02*Y162284D01*
X128000D01*
X128500Y159583D02*X128000Y159083D01*
X128500Y160583D02*Y159583D01*
X128000Y161083D02*X128500Y160583D01*
X127000Y161083D02*X128000D01*
X127000D02*X126500Y160583D01*
X127000Y159083D02*X128500D01*
X127000D02*X126500Y158583D01*
Y160583D02*Y159583D01*
X127000Y159083D01*
X126500Y157382D02*X130500D01*
X127000D02*X126500Y156882D01*
Y155882D01*
X127000Y155382D01*
X128000D01*
X128500Y155882D02*X128000Y155382D01*
X128500Y156882D02*Y155882D01*
X128000Y157382D02*X128500Y156882D01*
X127000Y154181D02*X128000D01*
X128500Y153681D01*
Y152681D01*
X128000Y152181D01*
X127000D02*X128000D01*
X126500Y152681D02*X127000Y152181D01*
X126500Y153681D02*Y152681D01*
X127000Y154181D02*X126500Y153681D01*
Y148980D02*X130500D01*
X126500Y149480D02*X127000Y148980D01*
X126500Y150480D02*Y149480D01*
X127000Y150980D02*X126500Y150480D01*
X127000Y150980D02*X128000D01*
X128500Y150480D01*
Y149480D01*
X128000Y148980D01*
X127000Y147779D02*X128500D01*
X127000D02*X126500Y147279D01*
X125500Y145779D02*X128500D01*
X125000Y146279D02*X125500Y145779D01*
X125000Y147279D02*Y146279D01*
X125500Y147779D02*X125000Y147279D01*
X126500D02*Y146279D01*
X127000Y145779D01*
X126500Y142778D02*X130500D01*
X126500D02*Y140778D01*
X128500Y138077D02*X128000Y137577D01*
X128500Y139077D02*Y138077D01*
X128000Y139577D02*X128500Y139077D01*
X127000Y139577D02*X128000D01*
X127000D02*X126500Y139077D01*
X127000Y137577D02*X128500D01*
X127000D02*X126500Y137077D01*
Y139077D02*Y138077D01*
X127000Y137577D01*
X126500Y135876D02*X130500D01*
X127000D02*X126500Y135376D01*
Y134376D01*
X127000Y133876D01*
X128000D01*
X128500Y134376D02*X128000Y133876D01*
X128500Y135376D02*Y134376D01*
X128000Y135876D02*X128500Y135376D01*
X57000Y209000D02*X57500Y208500D01*
Y207000D01*
X57000Y206500D01*
X56000D02*X57000D01*
X53500Y209000D02*X56000Y206500D01*
X53500Y209000D02*Y206500D01*
X54000Y205299D02*X53500Y204799D01*
X54000Y205299D02*X57000D01*
X57500Y204799D01*
Y203799D01*
X57000Y203299D01*
X54000D02*X57000D01*
X53500Y203799D02*X54000Y203299D01*
X53500Y204799D02*Y203799D01*
X54500Y205299D02*X56500Y203299D01*
X53500Y201598D02*Y200598D01*
Y201098D02*X57500D01*
X56500Y202098D02*X57500Y201098D01*
X53500Y198897D02*Y197897D01*
Y198397D02*X57500D01*
X56500Y199397D02*X57500Y198397D01*
X53500Y196696D02*Y196196D01*
Y194495D02*Y193495D01*
Y193995D02*X57500D01*
X56500Y194995D02*X57500Y193995D01*
X54000Y192294D02*X53500Y191794D01*
X54000Y192294D02*X57000D01*
X57500Y191794D01*
Y190794D01*
X57000Y190294D01*
X54000D02*X57000D01*
X53500Y190794D02*X54000Y190294D01*
X53500Y191794D02*Y190794D01*
X54500Y192294D02*X56500Y190294D01*
X53500Y189093D02*Y188593D01*
X54000Y187392D02*X53500Y186892D01*
X54000Y187392D02*X57000D01*
X57500Y186892D01*
Y185892D01*
X57000Y185392D01*
X54000D02*X57000D01*
X53500Y185892D02*X54000Y185392D01*
X53500Y186892D02*Y185892D01*
X54500Y187392D02*X56500Y185392D01*
X57500Y184191D02*Y182191D01*
X55500Y184191D02*X57500D01*
X55500D02*X56000Y183691D01*
Y182691D01*
X55500Y182191D01*
X54000D02*X55500D01*
X53500Y182691D02*X54000Y182191D01*
X53500Y183691D02*Y182691D01*
X54000Y184191D02*X53500Y183691D01*
X55500Y179190D02*Y177190D01*
Y174189D02*Y172689D01*
X53500Y174189D02*Y172189D01*
Y174189D02*X57500D01*
Y172189D01*
X54500Y170988D02*X55500D01*
X54500D02*X53500Y169988D01*
X54500Y168988D01*
X55500D01*
Y166287D02*X55000Y165787D01*
X55500Y167287D02*Y166287D01*
X55000Y167787D02*X55500Y167287D01*
X54000Y167787D02*X55000D01*
X54000D02*X53500Y167287D01*
X54000Y165787D02*X55500D01*
X54000D02*X53500Y165287D01*
Y167287D02*Y166287D01*
X54000Y165787D01*
X53500Y163586D02*X55000D01*
X55500Y163086D01*
Y162586D01*
X55000Y162086D01*
X53500D02*X55000D01*
X55500Y164086D02*X55000Y163586D01*
X53500Y159085D02*X57500D01*
Y157085D01*
X55500Y159085D02*Y157585D01*
X54000Y155884D02*X55000D01*
X55500Y155384D01*
Y154384D01*
X55000Y153884D01*
X54000D02*X55000D01*
X53500Y154384D02*X54000Y153884D01*
X53500Y155384D02*Y154384D01*
X54000Y155884D02*X53500Y155384D01*
Y152183D02*Y150683D01*
X54000Y150183D01*
X54500Y150683D02*X54000Y150183D01*
X54500Y152183D02*Y150683D01*
X55000Y152683D02*X54500Y152183D01*
X55000Y152683D02*X55500Y152183D01*
Y150683D01*
X55000Y150183D01*
X54000Y152683D02*X53500Y152183D01*
Y148482D02*Y146982D01*
X54000Y146482D01*
X54500Y146982D02*X54000Y146482D01*
X54500Y148482D02*Y146982D01*
X55000Y148982D02*X54500Y148482D01*
X55000Y148982D02*X55500Y148482D01*
Y146982D01*
X55000Y146482D01*
X54000Y148982D02*X53500Y148482D01*
X82000Y221750D02*X101000D01*
X82000D02*Y190750D01*
X101000D01*
Y221750D02*Y208750D01*
Y203750D02*Y190750D01*
Y208750D02*G75*G03X101000Y203750I0J-2500D01*G01*
G54D29*X112740Y218621D02*Y213897D01*
X105260Y218621D02*Y213897D01*
G54D30*X100566Y234134D02*Y225866D01*
X81472D02*X100566D01*
X81472Y234134D02*Y225866D01*
Y234134D02*X100566D01*
G54D28*X52000Y249500D02*X132000D01*
Y259500D02*Y249500D01*
X52000Y259500D02*X132000D01*
X52000D02*Y249500D01*
X62000Y259500D02*Y249500D01*
X52000Y259500D02*X62000D01*
G54D29*X115240Y184362D02*Y179638D01*
X107760Y184362D02*Y179638D01*
X114255Y164893D02*Y164107D01*
X108745Y164893D02*Y164107D01*
X115240Y148862D02*Y144138D01*
X107760Y148862D02*Y144138D01*
G54D28*X82000Y180000D02*X101000D01*
X82000D02*Y149000D01*
X101000D01*
Y180000D02*Y167000D01*
Y162000D02*Y149000D01*
Y167000D02*G75*G03X101000Y162000I0J-2500D01*G01*
X132000Y249500D02*Y129500D01*
X142000D01*
Y249500D01*
X132000D01*
Y239500D02*X142000D01*
Y249500D01*
G54D29*X65032Y191314D02*X68968D01*
X65032Y180686D02*X68968D01*
G54D28*X42000Y249500D02*Y129500D01*
X52000D01*
Y249500D01*
X42000D01*
Y239500D02*X52000D01*
Y249500D01*
G54D29*X65032Y149814D02*X68968D01*
X65032Y139186D02*X68968D01*
G54D28*X62000Y119500D02*X122000D01*
Y129500D02*Y119500D01*
X62000Y129500D02*X122000D01*
X62000D02*Y119500D01*
X72000Y129500D02*Y119500D01*
X62000Y129500D02*X72000D01*
G54D29*X65032Y211314D02*X68968D01*
X65032Y200686D02*X68968D01*
X65032Y169814D02*X68968D01*
X65032Y159186D02*X68968D01*
G54D28*X103500Y201750D02*X107000D01*
X103500D02*X103000Y201250D01*
Y200250D01*
X103500Y199750D01*
X107000D01*
X103000Y198049D02*Y197049D01*
Y197549D02*X107000D01*
X106000Y198549D02*X107000Y197549D01*
X118650Y213909D02*Y211909D01*
X118150Y211409D01*
X117150D02*X118150D01*
X116650Y211909D02*X117150Y211409D01*
X116650Y213409D02*Y211909D01*
X114650Y213409D02*X118650D01*
X116650D02*X114650Y211409D01*
Y209708D02*Y208708D01*
Y209208D02*X118650D01*
X117650Y210208D02*X118650Y209208D01*
X89531Y239827D02*Y235827D01*
X91031Y239827D02*X91531Y239327D01*
Y236327D01*
X91031Y235827D02*X91531Y236327D01*
X89031Y235827D02*X91031D01*
X89031Y239827D02*X91031D01*
X93232Y235827D02*X94232D01*
X93732Y239827D02*Y235827D01*
X92732Y238827D02*X93732Y239827D01*
X126000Y247000D02*Y245500D01*
X126500Y247500D02*X126000Y247000D01*
X126500Y247500D02*X129500D01*
X130000Y247000D01*
Y245500D01*
X126500Y244299D02*X129500D01*
X130000Y243799D01*
Y242799D01*
X129500Y242299D01*
X126500D02*X129500D01*
X126000Y242799D02*X126500Y242299D01*
X126000Y243799D02*Y242799D01*
X126500Y244299D02*X126000Y243799D01*
Y241098D02*X130000D01*
X129500D02*X130000D01*
X129500D02*X127000Y238598D01*
X126000D02*X130000D01*
X126000Y237397D02*X130000D01*
X129500D02*X130000D01*
X129500D02*X127000Y234897D01*
X126000D02*X130000D01*
X129500Y233696D02*X130000Y233196D01*
Y232196D01*
X129500Y231696D01*
X126500D02*X129500D01*
X126000Y232196D02*X126500Y231696D01*
X126000Y233196D02*Y232196D01*
X126500Y233696D02*X126000Y233196D01*
X128000D02*Y231696D01*
X122150Y185693D02*Y183693D01*
X121650Y183193D01*
X120650D02*X121650D01*
X120150Y183693D02*X120650Y183193D01*
X120150Y185193D02*Y183693D01*
X118150Y185193D02*X122150D01*
X120150D02*X118150Y183193D01*
X121650Y181992D02*X122150Y181492D01*
Y179992D01*
X121650Y179492D01*
X120650D02*X121650D01*
X118150Y181992D02*X120650Y179492D01*
X118150Y181992D02*Y179492D01*
X119650Y167607D02*Y165607D01*
X119150Y165107D01*
X118150D02*X119150D01*
X117650Y165607D02*X118150Y165107D01*
X117650Y167107D02*Y165607D01*
X115650Y167107D02*X119650D01*
X117650D02*X115650Y165107D01*
X119150Y163906D02*X119650Y163406D01*
Y162406D01*
X119150Y161906D01*
X116150D02*X119150D01*
X115650Y162406D02*X116150Y161906D01*
X115650Y163406D02*Y162406D01*
X116150Y163906D02*X115650Y163406D01*
X117650D02*Y161906D01*
X120650Y149607D02*Y147607D01*
X120150Y147107D01*
X119150D02*X120150D01*
X118650Y147607D02*X119150Y147107D01*
X118650Y149107D02*Y147607D01*
X116650Y149107D02*X120650D01*
X118650D02*X116650Y147107D01*
X118650Y145906D02*X120650Y143906D01*
X118650Y145906D02*Y143406D01*
X116650Y143906D02*X120650D01*
X103000Y167500D02*X106500D01*
X103000D02*X102500Y167000D01*
Y166000D01*
X103000Y165500D01*
X106500D01*
X106000Y164299D02*X106500Y163799D01*
Y162299D01*
X106000Y161799D01*
X105000D02*X106000D01*
X102500Y164299D02*X105000Y161799D01*
X102500Y164299D02*Y161799D01*
X64850Y192650D02*X66350D01*
X64350Y193150D02*X64850Y192650D01*
X64350Y196150D02*Y193150D01*
Y196150D02*X64850Y196650D01*
X66350D01*
X67551Y196150D02*X68051Y196650D01*
X69051D01*
X69551Y196150D01*
Y193150D01*
X69051Y192650D02*X69551Y193150D01*
X68051Y192650D02*X69051D01*
X67551Y193150D02*X68051Y192650D01*
Y194650D02*X69551D01*
X64393Y151650D02*X65893D01*
X63893Y152150D02*X64393Y151650D01*
X63893Y155150D02*Y152150D01*
Y155150D02*X64393Y155650D01*
X65893D01*
X67094Y155150D02*X67594Y155650D01*
X69094D01*
X69594Y155150D01*
Y154150D01*
X67094Y151650D02*X69594Y154150D01*
X67094Y151650D02*X69594D01*
X62500Y131000D02*X64000D01*
X62000Y131500D02*X62500Y131000D01*
X62000Y134500D02*Y131500D01*
Y134500D02*X62500Y135000D01*
X64000D01*
X65201Y134500D02*Y131500D01*
Y134500D02*X65701Y135000D01*
X66701D01*
X67201Y134500D01*
Y131500D01*
X66701Y131000D02*X67201Y131500D01*
X65701Y131000D02*X66701D01*
X65201Y131500D02*X65701Y131000D01*
X68402Y135000D02*Y131000D01*
Y135000D02*Y134500D01*
X70902Y132000D01*
Y135000D02*Y131000D01*
X72103Y135000D02*Y131000D01*
Y135000D02*Y134500D01*
X74603Y132000D01*
Y135000D02*Y131000D01*
X76304D02*X77304D01*
X76804Y135000D02*Y131000D01*
X75804Y134000D02*X76804Y135000D01*
X64755Y212650D02*X66255D01*
X64255Y213150D02*X64755Y212650D01*
X64255Y216150D02*Y213150D01*
Y216150D02*X64755Y216650D01*
X66255D01*
X67456Y214650D02*X69456Y216650D01*
X67456Y214650D02*X69956D01*
X69456Y216650D02*Y212650D01*
X54000Y247000D02*Y245500D01*
X54500Y247500D02*X54000Y247000D01*
X54500Y247500D02*X57500D01*
X58000Y247000D01*
Y245500D01*
X54500Y244299D02*X57500D01*
X58000Y243799D01*
Y242799D01*
X57500Y242299D01*
X54500D02*X57500D01*
X54000Y242799D02*X54500Y242299D01*
X54000Y243799D02*Y242799D01*
X54500Y244299D02*X54000Y243799D01*
Y241098D02*X58000D01*
X57500D02*X58000D01*
X57500D02*X55000Y238598D01*
X54000D02*X58000D01*
X54000Y237397D02*X58000D01*
X57500D02*X58000D01*
X57500D02*X55000Y234897D01*
X54000D02*X58000D01*
X57500Y233696D02*X58000Y233196D01*
Y231696D01*
X57500Y231196D01*
X56500D02*X57500D01*
X54000Y233696D02*X56500Y231196D01*
X54000Y233696D02*Y231196D01*
X61000Y243500D02*X62500D01*
X60500Y244000D02*X61000Y243500D01*
X60500Y247000D02*Y244000D01*
Y247000D02*X61000Y247500D01*
X62500D01*
X63701Y247000D02*Y244000D01*
Y247000D02*X64201Y247500D01*
X65201D01*
X65701Y247000D01*
Y244000D01*
X65201Y243500D02*X65701Y244000D01*
X64201Y243500D02*X65201D01*
X63701Y244000D02*X64201Y243500D01*
X66902Y247500D02*Y243500D01*
Y247500D02*Y247000D01*
X69402Y244500D01*
Y247500D02*Y243500D01*
X70603Y247500D02*Y243500D01*
Y247500D02*Y247000D01*
X73103Y244500D01*
Y247500D02*Y243500D01*
X74304Y245500D02*X76304Y247500D01*
X74304Y245500D02*X76804D01*
X76304Y247500D02*Y243500D01*
X64850Y171150D02*X66350D01*
X64350Y171650D02*X64850Y171150D01*
X64350Y174650D02*Y171650D01*
Y174650D02*X64850Y175150D01*
X66350D01*
X67551D02*X69551D01*
X67551D02*Y173150D01*
X68051Y173650D01*
X69051D01*
X69551Y173150D01*
Y171650D01*
X69051Y171150D02*X69551Y171650D01*
X68051Y171150D02*X69051D01*
X67551Y171650D02*X68051Y171150D01*
M02*
