G04 start of page 7 for group -4079 idx -4079 *
G04 Title: (unknown), topsilk *
G04 Creator: pcb 20100929 *
G04 CreationDate: Wed Aug 24 19:23:26 2011 UTC *
G04 For: user1 *
G04 Format: Gerber/RS-274X *
G04 PCB-Dimensions: 600000 500000 *
G04 PCB-Coordinate-Origin: lower left *
%MOIN*%
%FSLAX25Y25*%
%LNFRONTSILK*%
%ADD12C,0.0100*%
%ADD27C,0.0130*%
%ADD28C,0.0080*%
%ADD29C,0.0060*%
G54D27*X126564Y377755D02*X127350D01*
X126564Y372245D02*X127350D01*
X145532Y384814D02*X149468D01*
X145532Y374186D02*X149468D01*
G54D12*X114500Y409500D02*Y390500D01*
X145500D01*
Y409500D01*
X114500D02*X127500D01*
X145500D02*X132500D01*
X127500D02*G75*G03X132500Y409500I2500J0D01*G01*
X108500Y355500D02*X148500D01*
Y365500D02*Y355500D01*
X108500Y365500D02*X148500D01*
X108500D02*Y355500D01*
X118500Y365500D02*Y355500D01*
X108500Y365500D02*X118500D01*
G54D28*X122043Y387740D02*X126767D01*
X122043Y380260D02*X126767D01*
G54D29*X105000Y414500D02*X155000D01*
Y455500D02*Y414500D01*
X105000Y455500D02*X155000D01*
X105000D02*Y414500D01*
X140000Y446500D02*X141500Y445000D01*
X140000Y448500D02*X141500Y447000D01*
X140000Y448500D02*Y444500D01*
X141500Y443000D01*
X138000Y446500D02*X140000D01*
X130000Y435500D02*Y434500D01*
Y435500D02*X129500Y435000D01*
X130500D01*
X130000Y434500D01*
X129500Y435000D01*
X130000Y417000D02*G75*G03X131500Y418500I0J1500D01*G01*
X128500D02*G75*G03X130000Y417000I1500J0D01*G01*
X118500Y445500D02*G75*G03X120000Y444000I1500J0D01*G01*
G75*G03X121500Y445500I0J1500D01*G01*
G75*G03X120000Y447000I-1500J0D01*G01*
G75*G03X118500Y445500I0J-1500D01*G01*
X120000Y447000D02*G75*G03X121500Y448500I0J1500D01*G01*
X129500Y435000D02*G75*G03X130000Y434500I500J0D01*G01*
G75*G03X130500Y435000I0J500D01*G01*
G75*G03X130000Y435500I-500J0D01*G01*
G75*G03X129500Y435000I0J-500D01*G01*
G54D12*X114764Y373150D02*X116264D01*
X114264Y373650D02*X114764Y373150D01*
X114264Y376650D02*Y373650D01*
Y376650D02*X114764Y377150D01*
X116264D01*
X117965Y373150D02*X118965D01*
X118465Y377150D02*Y373150D01*
X117465Y376150D02*X118465Y377150D01*
X144850D02*X146350D01*
X144350Y377650D02*X144850Y377150D01*
X144350Y380650D02*Y377650D01*
Y380650D02*X144850Y381150D01*
X146350D01*
X147551Y380650D02*X148051Y381150D01*
X149051D01*
X149551Y380650D01*
Y377650D01*
X149051Y377150D02*X149551Y377650D01*
X148051Y377150D02*X149051D01*
X147551Y377650D02*X148051Y377150D01*
Y379150D02*X149551D01*
X105000Y402000D02*Y398500D01*
X105500Y398000D01*
X106500D01*
X107000Y398500D01*
Y402000D02*Y398500D01*
X108701Y398000D02*X109701D01*
X109201Y402000D02*Y398000D01*
X108201Y401000D02*X109201Y402000D01*
X99000Y366500D02*X100500D01*
X98500Y367000D02*X99000Y366500D01*
X98500Y370000D02*Y367000D01*
Y370000D02*X99000Y370500D01*
X100500D01*
X101701Y370000D02*Y367000D01*
Y370000D02*X102201Y370500D01*
X103201D01*
X103701Y370000D01*
Y367000D01*
X103201Y366500D02*X103701Y367000D01*
X102201Y366500D02*X103201D01*
X101701Y367000D02*X102201Y366500D01*
X104902Y370500D02*Y366500D01*
Y370500D02*Y370000D01*
X107402Y367500D01*
Y370500D02*Y366500D01*
X108603Y370500D02*Y366500D01*
Y370500D02*Y370000D01*
X111103Y367500D01*
Y370500D02*Y366500D01*
X112804D02*X113804D01*
X113304Y370500D02*Y366500D01*
X112304Y369500D02*X113304Y370500D01*
X108255Y386150D02*X110255D01*
X110755Y385650D01*
Y384650D01*
X110255Y384150D02*X110755Y384650D01*
X108755Y384150D02*X110255D01*
X108755Y386150D02*Y382150D01*
Y384150D02*X110755Y382150D01*
X112456D02*X113456D01*
X112956Y386150D02*Y382150D01*
X111956Y385150D02*X112956Y386150D01*
X100000Y433000D02*X104000D01*
X100000Y434500D02*X100500Y435000D01*
X103500D01*
X104000Y434500D02*X103500Y435000D01*
X104000Y434500D02*Y432500D01*
X100000Y434500D02*Y432500D01*
X104000Y437701D02*Y436701D01*
X100000Y437201D02*X104000D01*
X101000Y436201D02*X100000Y437201D01*
M02*
