M48
INCH
T11C0.020
T20C0.038
T21C0.035
T22C0.023
%
T11
X011975Y040250
X014025Y040250
X011975Y039750
X014159Y037950
T22
X014000Y043500
X012000Y043500
X013000Y042500
T21
X009500Y037950
X009500Y040600
X016500Y037950
X016500Y040600
X016500Y046400
X009500Y046400
X009500Y043500
X016500Y043500
X013000Y046400
X009500Y035050
X016500Y035050
T20
X011350Y036050
X012350Y036050
X013350Y036050
X014350Y036050
M30
