G04 start of page 3 for group 1 idx 1 *
G04 Title: (unknown), solder *
G04 Creator: pcb 20100929 *
G04 CreationDate: Wed Aug 24 19:23:26 2011 UTC *
G04 For: user1 *
G04 Format: Gerber/RS-274X *
G04 PCB-Dimensions: 600000 500000 *
G04 PCB-Coordinate-Origin: lower left *
%MOIN*%
%FSLAX25Y25*%
%LNBACK*%
%ADD11C,0.0200*%
%ADD12C,0.0100*%
%ADD13C,0.0400*%
%ADD14C,0.0500*%
%ADD15C,0.0600*%
%ADD16C,0.0360*%
%ADD19C,0.0225*%
%ADD20C,0.0380*%
%ADD21C,0.0350*%
G54D13*X95000Y464000D02*X165000D01*
Y350500D01*
X95000D01*
G54D11*X119750Y402500D02*X140250D01*
G54D12*X95000D02*X165000D01*
G54D11*X123595Y397500D02*X141595Y379500D01*
G54D13*X95000Y350500D02*Y464000D01*
G54D11*X119750Y397500D02*X123595D01*
G54D12*X100000Y370500D02*X101500D01*
X99500Y370000D02*X100000Y370500D01*
X99500Y367000D02*Y370000D01*
Y367000D02*X100000Y366500D01*
X101500D01*
X102701Y367000D02*Y370000D01*
Y367000D02*X103201Y366500D01*
X104201D01*
X104701Y367000D01*
Y370000D01*
X104201Y370500D02*X104701Y370000D01*
X103201Y370500D02*X104201D01*
X102701Y370000D02*X103201Y370500D01*
X105902Y366500D02*Y370500D01*
Y366500D02*Y367000D01*
X108402Y369500D01*
Y366500D02*Y370500D01*
X109603Y366500D02*Y370500D01*
Y366500D02*Y367000D01*
X112103Y369500D01*
Y366500D02*Y370500D01*
X113804D02*X114804D01*
X114304Y366500D02*Y370500D01*
X113304Y367500D02*X114304Y366500D01*
X146000Y381500D02*X147500D01*
X145500Y381000D02*X146000Y381500D01*
X145500Y378000D02*Y381000D01*
Y378000D02*X146000Y377500D01*
X147500D01*
X148701Y378000D02*X149201Y377500D01*
X150201D01*
X150701Y378000D01*
Y381000D01*
X150201Y381500D02*X150701Y381000D01*
X149201Y381500D02*X150201D01*
X148701Y381000D02*X149201Y381500D01*
Y379500D02*X150701D01*
X128055Y451110D02*Y455550D01*
X129720Y451110D02*X130275Y451665D01*
Y454995D01*
X129720Y455550D02*X130275Y454995D01*
X127500Y455550D02*X129720D01*
X127500Y451110D02*X129720D01*
X132163Y455550D02*X133273D01*
X132718Y451110D02*Y455550D01*
X131608Y452220D02*X132718Y451110D01*
X114500Y377000D02*X116000D01*
X114000Y376500D02*X114500Y377000D01*
X114000Y373500D02*Y376500D01*
Y373500D02*X114500Y373000D01*
X116000D01*
X117701Y377000D02*X118701D01*
X118201Y373000D02*Y377000D01*
X117201Y374000D02*X118201Y373000D01*
X105000Y397000D02*Y400500D01*
X105500Y401000D01*
X106500D01*
X107000Y400500D01*
Y397000D02*Y400500D01*
X108701Y401000D02*X109701D01*
X109201Y397000D02*Y401000D01*
X108201Y398000D02*X109201Y397000D01*
X108500Y382000D02*X110500D01*
X111000Y382500D01*
Y383500D01*
X110500Y384000D02*X111000Y383500D01*
X109000Y384000D02*X110500D01*
X109000Y382000D02*Y386000D01*
Y384000D02*X111000Y386000D01*
X112701D02*X113701D01*
X113201Y382000D02*Y386000D01*
X112201Y383000D02*X113201Y382000D01*
G54D14*X140000Y435000D03*
X120000D03*
X130000Y425000D03*
G54D11*G36*
X110500Y363500D02*Y357500D01*
X116500D01*
Y363500D01*
X110500D01*
G37*
G54D15*X123500Y360500D03*
X133500D03*
X143500D03*
X95000Y379500D03*
Y406000D03*
X165000Y379500D03*
Y406000D03*
Y464000D03*
X95000D03*
Y435000D03*
X165000D03*
X130000Y464000D03*
X95000Y350500D03*
X165000D03*
G54D16*X119750Y402500D03*
X140250D03*
X119750Y397500D03*
X141595Y379500D03*
G54D19*G54D20*G54D21*G54D11*M02*
